ply
format ascii 1.0
comment Created by Blender 2.75 (sub 0) - www.blender.org, source file: 'bucket.blend'
element vertex 210
property float x
property float y
property float z
property float nx
property float ny
property float nz
property uchar red
property uchar green
property uchar blue
element face 57
property list uchar uint vertex_indices
end_header
0.425188 -0.420955 0.070435 0.900307 0.000000 0.435255 247 185 255
0.425188 0.441089 0.070435 0.900307 0.000000 0.435255 246 185 255
0.319480 0.441089 0.289089 0.900307 0.000000 0.435255 236 134 244
0.319480 -0.420955 0.289089 0.900307 0.000000 0.435255 231 134 242
0.319480 -0.420955 0.289089 0.522070 0.000000 0.852903 236 135 244
0.319480 0.441089 0.289089 0.522070 0.000000 0.852903 236 135 244
0.112338 0.441089 0.415882 0.522070 0.000000 0.852903 240 134 245
0.112338 -0.420955 0.415882 0.522070 0.000000 0.852903 241 134 245
0.112338 -0.420955 0.415882 -0.021920 0.000000 0.999760 239 134 245
0.112338 0.441089 0.415882 -0.021920 0.000000 0.999760 238 134 245
-0.130469 0.441089 0.410558 -0.021920 0.000000 0.999760 204 100 198
-0.130469 -0.420955 0.410558 -0.021920 0.000000 0.999760 204 100 198
-0.130469 -0.420955 0.410558 -0.558952 0.000000 0.829200 204 100 198
-0.130469 0.441089 0.410558 -0.558952 0.000000 0.829200 204 100 198
-0.331854 0.441089 0.274808 -0.558952 0.000000 0.829200 162 99 158
-0.331854 -0.420955 0.274808 -0.558952 0.000000 0.829200 163 99 158
-0.331854 -0.420955 0.274808 -0.918519 0.000000 0.395376 163 99 158
-0.331854 0.441089 0.274808 -0.918519 0.000000 0.395376 163 99 158
-0.427877 0.441089 0.051731 -0.918519 0.000000 0.395376 136 73 138
-0.427877 -0.420955 0.051731 -0.918519 0.000000 0.395376 136 73 138
-0.113076 0.441089 0.355793 0.021920 0.000000 -0.999760 245 180 254
0.097362 0.441089 0.360407 0.021920 0.000000 -0.999760 245 180 254
0.097362 -0.376155 0.360407 0.021920 0.000000 -0.999760 245 180 254
-0.113076 -0.376155 0.355793 0.021920 0.000000 -0.999760 245 180 254
0.368505 0.441089 0.061012 0.000000 1.000000 0.000000 247 185 255
0.276889 0.441089 0.250517 0.000000 1.000000 0.000000 247 185 255
0.319480 0.441089 0.289089 0.000000 1.000000 0.000000 247 185 255
0.425188 0.441089 0.070435 0.000000 1.000000 0.000000 247 185 255
0.097362 0.441089 0.360407 0.000000 1.000000 0.000000 247 185 255
0.112338 0.441089 0.415882 0.000000 1.000000 0.000000 247 185 255
-0.113076 0.441089 0.355793 0.000000 1.000000 0.000000 247 185 255
-0.130469 0.441089 0.410558 0.000000 1.000000 0.000000 247 185 255
-0.287614 0.441089 0.238140 -0.000000 1.000000 0.000000 247 185 255
-0.331854 0.441089 0.274808 -0.000000 1.000000 0.000000 247 185 255
-0.370836 0.441089 0.044802 -0.000000 1.000000 0.000000 247 185 255
-0.427877 0.441089 0.051731 -0.000000 1.000000 0.000000 247 185 255
-0.287614 0.441089 0.238140 0.558952 0.000000 -0.829200 245 181 254
-0.113076 0.441089 0.355793 0.558952 0.000000 -0.829200 245 180 254
-0.113076 -0.376155 0.355793 0.558952 0.000000 -0.829200 245 180 254
-0.287614 -0.376155 0.238140 0.558952 0.000000 -0.829200 245 180 254
0.276889 0.441089 0.250517 -0.900307 0.000000 -0.435255 245 180 254
0.368505 0.441089 0.061012 -0.900307 0.000000 -0.435255 245 180 254
0.368505 -0.376155 0.061012 -0.900307 0.000000 -0.435255 245 180 254
0.276889 -0.376155 0.250517 -0.900307 0.000000 -0.435255 245 180 254
-0.370836 0.441089 0.044802 0.918520 0.000000 -0.395375 245 180 254
-0.287614 0.441089 0.238140 0.918520 0.000000 -0.395375 243 178 252
-0.287614 -0.376155 0.238140 0.918520 0.000000 -0.395375 245 180 254
-0.370836 -0.376155 0.044802 0.918520 0.000000 -0.395375 245 180 254
0.097362 0.441089 0.360407 -0.522070 0.000000 -0.852903 245 180 254
0.276889 0.441089 0.250517 -0.522070 0.000000 -0.852903 245 180 254
0.276889 -0.376155 0.250517 -0.522070 0.000000 -0.852903 245 180 254
0.097362 -0.376155 0.360407 -0.522070 0.000000 -0.852903 245 180 254
0.401733 0.435843 0.141457 0.495879 0.136826 0.857545 183 187 204
0.364311 0.653728 0.128332 0.495879 0.136826 0.857545 255 255 255
0.332420 0.643891 0.148343 0.495879 0.136826 0.857545 255 255 255
0.367525 0.439503 0.160655 0.495879 0.136826 0.857545 183 187 204
0.367525 0.439503 0.160655 -0.909630 -0.132516 0.393716 183 187 204
0.332420 0.643891 0.148343 -0.909630 -0.132516 0.393716 255 255 255
0.318725 0.633864 0.113327 -0.909630 -0.132516 0.393716 255 255 255
0.351511 0.442974 0.124826 -0.909630 -0.132516 0.393716 183 187 204
0.351511 0.442974 0.124826 -0.495878 -0.136826 -0.857545 255 255 255
0.318725 0.633864 0.113327 -0.495878 -0.136826 -0.857545 255 255 255
0.350615 0.643701 0.093317 -0.495878 -0.136826 -0.857545 255 255 255
0.385720 0.439314 0.105629 -0.495878 -0.136826 -0.857545 255 255 255
0.401733 0.435843 0.141457 0.909629 0.132515 -0.393719 255 255 255
0.385720 0.439314 0.105629 0.909629 0.132515 -0.393719 255 255 255
0.350615 0.643701 0.093317 0.909629 0.132515 -0.393719 255 255 255
0.364311 0.653728 0.128332 0.909629 0.132515 -0.393719 255 255 255
0.364311 0.653728 0.128332 0.322470 0.538359 0.778577 255 255 255
0.210069 0.820709 0.076755 0.322470 0.538359 0.778577 255 255 255
0.187733 0.800527 0.099960 0.322470 0.538359 0.778577 255 255 255
0.332420 0.643891 0.148343 0.322470 0.538359 0.778577 255 255 255
0.332420 0.643891 0.148343 -0.724153 -0.534174 0.436189 255 255 255
0.187733 0.800527 0.099960 -0.724153 -0.534174 0.436189 255 255 255
0.183593 0.780157 0.068139 -0.724153 -0.534174 0.436189 255 255 255
0.318725 0.633864 0.113327 -0.724153 -0.534174 0.436189 255 255 255
0.318725 0.633864 0.113327 -0.322469 -0.538359 -0.778578 255 255 255
0.183593 0.780157 0.068139 -0.322469 -0.538359 -0.778578 255 255 255
0.205929 0.800338 0.044934 -0.322469 -0.538359 -0.778578 255 255 255
0.350615 0.643701 0.093317 -0.322469 -0.538359 -0.778578 255 255 255
0.350615 0.643701 0.093317 0.724152 0.534173 -0.436191 255 255 255
0.205929 0.800338 0.044934 0.724152 0.534173 -0.436191 255 255 255
0.210069 0.820709 0.076755 0.724152 0.534173 -0.436191 255 255 255
0.364311 0.653728 0.128332 0.724152 0.534173 -0.436191 255 255 255
0.210069 0.820709 0.076755 -0.002564 0.755785 0.654815 255 255 255
-0.012021 0.883770 0.003100 -0.002564 0.755785 0.654815 255 255 255
-0.020599 0.859682 0.030868 -0.002564 0.755785 0.654815 255 255 255
0.187733 0.800527 0.099960 -0.002564 0.755785 0.654815 255 255 255
0.187733 0.800527 0.099960 -0.389857 -0.751697 0.531943 255 255 255
-0.020599 0.859682 0.030868 -0.389857 -0.751697 0.531943 255 255 255
-0.010982 0.835405 0.003610 -0.389857 -0.751697 0.531943 255 255 255
0.183593 0.780157 0.068139 -0.389857 -0.751697 0.531943 255 255 255
0.183593 0.780157 0.068139 0.002564 -0.755784 -0.654815 255 255 255
-0.010982 0.835405 0.003610 0.002564 -0.755784 -0.654815 255 255 255
-0.002403 0.859493 -0.024158 0.002564 -0.755784 -0.654815 255 255 255
0.205929 0.800338 0.044934 0.002564 -0.755784 -0.654815 255 255 255
0.205929 0.800338 0.044934 0.389857 0.751697 -0.531943 255 255 255
-0.002403 0.859493 -0.024158 0.389857 0.751697 -0.531943 255 255 255
-0.012021 0.883770 0.003100 0.389857 0.751697 -0.531943 255 255 255
0.210069 0.820709 0.076755 0.389857 0.751697 -0.531943 255 255 255
-0.012021 0.883770 0.003100 -0.384929 0.752739 0.534054 255 255 255
-0.231447 0.822891 -0.069248 -0.384929 0.752739 0.534054 187 191 207
-0.226432 0.802575 -0.036998 -0.384929 0.752739 0.534054 184 188 204
-0.020599 0.859682 0.030868 -0.384929 0.752739 0.534054 255 255 255
-0.020599 0.859682 0.030868 -0.010870 -0.748615 0.662916 255 255 255
-0.226432 0.802575 -0.036998 -0.010870 -0.748615 0.662916 184 188 204
-0.203222 0.782069 -0.059774 -0.010870 -0.748615 0.662916 210 212 223
-0.010982 0.835405 0.003610 -0.010870 -0.748615 0.662916 255 255 255
-0.010982 0.835405 0.003610 0.384929 -0.752738 -0.534055 255 255 255
-0.203222 0.782069 -0.059774 0.384929 -0.752738 -0.534055 255 255 255
-0.208237 0.802385 -0.092024 0.384929 -0.752738 -0.534055 255 255 255
-0.002403 0.859493 -0.024158 0.384929 -0.752738 -0.534055 255 255 255
-0.002403 0.859493 -0.024158 0.010869 0.748616 -0.662915 255 255 255
-0.208237 0.802385 -0.092024 0.010869 0.748616 -0.662915 255 255 255
-0.231447 0.822891 -0.069248 0.010869 0.748616 -0.662915 255 255 255
-0.012021 0.883770 0.003100 0.010869 0.748616 -0.662915 255 255 255
-0.231447 0.822891 -0.069248 -0.730418 0.520919 0.441740 187 191 207
-0.378544 0.657400 -0.117318 -0.730418 0.520919 0.441740 183 187 204
-0.364417 0.647335 -0.082090 -0.730418 0.520919 0.441740 183 187 204
-0.226432 0.802575 -0.036998 -0.730418 0.520919 0.441740 184 188 204
-0.226432 0.802575 -0.036998 0.322020 -0.516662 0.793325 184 188 204
-0.364417 0.647335 -0.082090 0.322020 -0.516662 0.793325 183 187 204
-0.332094 0.637081 -0.101888 0.322020 -0.516662 0.793325 183 187 204
-0.203222 0.782069 -0.059774 0.322020 -0.516662 0.793325 210 212 223
-0.203222 0.782069 -0.059774 0.730417 -0.520917 -0.441742 255 255 255
-0.332094 0.637081 -0.101888 0.730417 -0.520917 -0.441742 255 255 255
-0.346221 0.647145 -0.137116 0.730417 -0.520917 -0.441742 255 255 255
-0.208237 0.802385 -0.092024 0.730417 -0.520917 -0.441742 255 255 255
-0.208237 0.802385 -0.092024 -0.322024 0.516664 -0.793321 255 255 255
-0.346221 0.647145 -0.137116 -0.322024 0.516664 -0.793321 255 255 255
-0.378544 0.657400 -0.117318 -0.322024 0.516664 -0.793321 255 255 255
-0.231447 0.822891 -0.069248 -0.322024 0.516664 -0.793321 255 255 255
-0.378544 0.657400 -0.117318 -0.912850 0.102255 0.395283 183 187 204
-0.406608 0.439839 -0.125848 -0.912850 0.102255 0.395283 183 187 204
-0.390743 0.443251 -0.090092 -0.912850 0.102255 0.395283 184 188 205
-0.364417 0.647335 -0.082090 -0.912850 0.102255 0.395283 183 187 204
-0.364417 0.647335 -0.082090 0.497044 -0.097923 0.862182 183 187 204
-0.390743 0.443251 -0.090092 0.497044 -0.097923 0.862182 184 188 205
-0.356682 0.446474 -0.109362 0.497044 -0.097923 0.862182 183 187 204
-0.332094 0.637081 -0.101888 0.497044 -0.097923 0.862182 183 187 204
-0.332094 0.637081 -0.101888 0.912849 -0.102254 -0.395286 255 255 255
-0.356682 0.446474 -0.109362 0.912849 -0.102254 -0.395286 255 255 255
-0.372547 0.443062 -0.145118 0.912849 -0.102254 -0.395286 255 255 255
-0.346221 0.647145 -0.137116 0.912849 -0.102254 -0.395286 255 255 255
-0.346221 0.647145 -0.137116 -0.497045 0.097922 -0.862182 255 255 255
-0.372547 0.443062 -0.145118 -0.497045 0.097922 -0.862182 255 255 255
-0.406608 0.439839 -0.125848 -0.497045 0.097922 -0.862182 255 255 255
-0.378544 0.657400 -0.117318 -0.497045 0.097922 -0.862182 255 255 255
0.240921 -0.420955 -0.357647 0.769922 0.000000 -0.638137 246 183 255
0.240921 0.441089 -0.357647 0.769922 0.000000 -0.638137 246 183 255
0.395903 0.441089 -0.170659 0.769922 0.000000 -0.638137 246 183 255
0.395903 -0.420955 -0.170659 0.769922 0.000000 -0.638137 246 183 255
0.395903 -0.420955 -0.170659 0.992703 0.000000 -0.120583 246 183 255
0.395903 0.441089 -0.170659 0.992703 0.000000 -0.120583 246 183 255
0.425188 0.441089 0.070435 0.992703 0.000000 -0.120583 246 183 255
0.425188 -0.420955 0.070435 0.992703 0.000000 -0.120583 246 183 255
-0.427877 -0.420955 0.051731 -0.986464 0.000000 -0.163978 136 73 138
-0.427877 0.441089 0.051731 -0.986464 0.000000 -0.163978 136 73 138
-0.388053 0.441089 -0.187848 -0.986464 0.000000 -0.163978 136 73 138
-0.388053 -0.420955 -0.187848 -0.986464 0.000000 -0.163978 136 73 138
-0.388053 -0.420955 -0.187848 -0.741213 0.000000 -0.671270 136 73 138
-0.388053 0.441089 -0.187848 -0.741213 0.000000 -0.671270 136 73 138
-0.225024 0.441089 -0.367863 -0.741213 0.000000 -0.671270 136 73 138
-0.225024 -0.420955 -0.367863 -0.741213 0.000000 -0.671270 136 73 138
0.009448 -0.420955 -0.431162 0.302698 0.000000 -0.953087 246 183 255
0.009448 0.441089 -0.431162 0.302698 0.000000 -0.953087 235 172 243
0.240921 0.441089 -0.357647 0.302698 0.000000 -0.953087 246 183 255
0.240921 -0.420955 -0.357647 0.302698 0.000000 -0.953087 246 183 255
-0.225024 -0.420955 -0.367863 -0.260633 0.000000 -0.965438 136 73 138
-0.225024 0.441089 -0.367863 -0.260633 0.000000 -0.965438 136 73 138
0.009448 0.441089 -0.431162 -0.260633 0.000000 -0.965438 235 172 243
0.009448 -0.420955 -0.431162 -0.260633 0.000000 -0.965438 246 183 255
0.208803 0.441089 -0.310001 0.000000 1.000000 -0.000000 247 185 255
0.343124 0.441089 -0.147941 0.000000 1.000000 -0.000000 247 185 255
0.395903 0.441089 -0.170659 0.000000 1.000000 -0.000000 247 185 255
0.240921 0.441089 -0.357647 0.000000 1.000000 -0.000000 247 185 255
0.368505 0.441089 0.061012 0.000000 1.000000 0.000000 247 185 255
0.425188 0.441089 0.070435 0.000000 1.000000 0.000000 247 185 255
-0.370836 0.441089 0.044802 -0.000000 1.000000 0.000000 247 185 255
-0.336320 0.441089 -0.162838 -0.000000 1.000000 0.000000 247 185 255
-0.388053 0.441089 -0.187848 -0.000000 1.000000 0.000000 247 185 255
-0.427877 0.441089 0.051731 -0.000000 1.000000 0.000000 247 185 255
-0.195025 0.441089 -0.318855 -0.000000 1.000000 -0.000000 247 185 255
-0.225024 0.441089 -0.367863 -0.000000 1.000000 -0.000000 247 185 255
0.008189 0.441089 -0.373715 -0.000000 1.000000 -0.000000 247 185 255
0.009448 0.441089 -0.431162 -0.000000 1.000000 -0.000000 247 185 255
0.368505 0.441089 0.061012 -0.992703 0.000000 0.120584 101 54 128
0.343124 0.441089 -0.147941 -0.992703 0.000000 0.120584 101 54 128
0.343124 -0.376155 -0.147941 -0.992703 0.000000 0.120584 101 54 128
0.368505 -0.376155 0.061012 -0.992703 0.000000 0.120584 100 55 127
-0.195025 0.441089 -0.318855 0.741213 0.000000 0.671270 100 56 126
-0.336320 0.441089 -0.162838 0.741213 0.000000 0.671270 101 54 128
-0.336320 -0.376155 -0.162838 0.741213 0.000000 0.671270 101 54 128
-0.195025 -0.376155 -0.318855 0.741213 0.000000 0.671270 101 54 128
0.008189 0.441089 -0.373715 0.260632 0.000000 0.965438 101 54 128
-0.195025 0.441089 -0.318855 0.260632 0.000000 0.965438 100 56 126
-0.195025 -0.376155 -0.318855 0.260632 0.000000 0.965438 101 54 128
0.008189 -0.376155 -0.373715 0.260632 0.000000 0.965438 101 54 128
0.208803 0.441089 -0.310001 -0.302697 0.000000 0.953087 97 58 122
0.008189 0.441089 -0.373715 -0.302697 0.000000 0.953087 101 54 128
0.008189 -0.376155 -0.373715 -0.302697 0.000000 0.953087 101 54 128
0.208803 -0.376155 -0.310001 -0.302697 0.000000 0.953087 101 54 128
0.343124 0.441089 -0.147941 -0.769923 0.000000 0.638137 101 54 128
0.208803 0.441089 -0.310001 -0.769923 0.000000 0.638137 97 58 122
0.208803 -0.376155 -0.310001 -0.769923 0.000000 0.638137 101 54 128
0.343124 -0.376155 -0.147941 -0.769923 0.000000 0.638137 101 54 128
-0.336320 0.441089 -0.162838 0.986464 0.000000 0.163977 101 54 128
-0.370836 0.441089 0.044802 0.986464 0.000000 0.163977 101 54 128
-0.370836 -0.376155 0.044802 0.986464 0.000000 0.163977 101 54 128
-0.336320 -0.376155 -0.162838 0.986464 0.000000 0.163977 101 54 128
4 0 1 2 3
4 4 5 6 7
4 8 9 10 11
4 12 13 14 15
4 16 17 18 19
4 20 21 22 23
4 24 25 26 27
4 25 28 29 26
4 28 30 31 29
4 30 32 33 31
4 32 34 35 33
4 36 37 38 39
4 40 41 42 43
4 44 45 46 47
4 48 49 50 51
4 52 53 54 55
4 56 57 58 59
4 60 61 62 63
4 64 65 66 67
4 68 69 70 71
4 72 73 74 75
4 76 77 78 79
4 80 81 82 83
4 84 85 86 87
4 88 89 90 91
4 92 93 94 95
4 96 97 98 99
4 100 101 102 103
4 104 105 106 107
4 108 109 110 111
4 112 113 114 115
4 116 117 118 119
4 120 121 122 123
4 124 125 126 127
4 128 129 130 131
4 132 133 134 135
4 136 137 138 139
4 140 141 142 143
4 144 145 146 147
4 148 149 150 151
4 152 153 154 155
4 156 157 158 159
4 160 161 162 163
4 164 165 166 167
4 168 169 170 171
4 172 173 174 175
4 173 176 177 174
4 178 179 180 181
4 179 182 183 180
4 182 184 185 183
4 184 172 175 185
4 186 187 188 189
4 190 191 192 193
4 194 195 196 197
4 198 199 200 201
4 202 203 204 205
4 206 207 208 209
