ply
format ascii 1.0
comment Created by Blender 2.78 (sub 0) - www.blender.org, source file: ''
element vertex 128
property float x
property float y
property float z
property float nx
property float ny
property float nz
property float s
property float t
element face 62
property list uchar uint vertex_indices
end_header
0.000000 0.500000 -0.500000 0.087754 0.890977 0.445488 0.250000 0.490000
0.000000 0.000000 0.500000 0.087754 0.890977 0.445488 0.250000 0.250000
0.097545 0.490393 -0.500000 0.087754 0.890977 0.445488 0.296822 0.485388
0.097545 0.490393 -0.500000 0.259888 0.856737 0.445488 0.296822 0.485388
0.000000 0.000000 0.500000 0.259888 0.856737 0.445488 0.250000 0.250000
0.191342 0.461940 -0.500000 0.259888 0.856737 0.445488 0.341844 0.471731
0.191342 0.461940 -0.500000 0.422036 0.789573 0.445488 0.341844 0.471731
0.000000 0.000000 0.500000 0.422036 0.789573 0.445488 0.250000 0.250000
0.277785 0.415735 -0.500000 0.422036 0.789573 0.445488 0.383337 0.449553
0.277785 0.415735 -0.500000 0.567965 0.692067 0.445488 0.383337 0.449553
0.000000 0.000000 0.500000 0.567965 0.692067 0.445488 0.250000 0.250000
0.353553 0.353553 -0.500000 0.567965 0.692067 0.445488 0.419706 0.419706
0.353553 0.353553 -0.500000 0.692067 0.567965 0.445488 0.419706 0.419706
0.000000 0.000000 0.500000 0.692067 0.567965 0.445488 0.250000 0.250000
0.415735 0.277785 -0.500000 0.692067 0.567965 0.445488 0.449553 0.383337
0.415735 0.277785 -0.500000 0.789573 0.422036 0.445488 0.449553 0.383337
0.000000 0.000000 0.500000 0.789573 0.422036 0.445488 0.250000 0.250000
0.461940 0.191342 -0.500000 0.789573 0.422036 0.445488 0.471731 0.341844
0.461940 0.191342 -0.500000 0.856737 0.259888 0.445488 0.471731 0.341844
0.000000 0.000000 0.500000 0.856737 0.259888 0.445488 0.250000 0.250000
0.490393 0.097545 -0.500000 0.856737 0.259888 0.445488 0.485388 0.296822
0.490393 0.097545 -0.500000 0.890977 0.087754 0.445488 0.485388 0.296822
0.000000 0.000000 0.500000 0.890977 0.087754 0.445488 0.250000 0.250000
0.500000 0.000000 -0.500000 0.890977 0.087754 0.445488 0.490000 0.250000
0.500000 0.000000 -0.500000 0.890977 -0.087753 0.445488 0.490000 0.250000
0.000000 0.000000 0.500000 0.890977 -0.087753 0.445488 0.250000 0.250000
0.490393 -0.097545 -0.500000 0.890977 -0.087753 0.445488 0.485388 0.203178
0.490393 -0.097545 -0.500000 0.856737 -0.259888 0.445488 0.485388 0.203178
0.000000 0.000000 0.500000 0.856737 -0.259888 0.445488 0.250000 0.250000
0.461940 -0.191342 -0.500000 0.856737 -0.259888 0.445488 0.471731 0.158156
0.461940 -0.191342 -0.500000 0.789573 -0.422035 0.445488 0.471731 0.158156
0.000000 0.000000 0.500000 0.789573 -0.422035 0.445488 0.250000 0.250000
0.415735 -0.277785 -0.500000 0.789573 -0.422035 0.445488 0.449553 0.116663
0.415735 -0.277785 -0.500000 0.692067 -0.567965 0.445488 0.449553 0.116663
0.000000 0.000000 0.500000 0.692067 -0.567965 0.445488 0.250000 0.250000
0.353553 -0.353553 -0.500000 0.692067 -0.567965 0.445488 0.419706 0.080294
0.353553 -0.353553 -0.500000 0.567965 -0.692067 0.445488 0.419706 0.080294
0.000000 0.000000 0.500000 0.567965 -0.692067 0.445488 0.250000 0.250000
0.277785 -0.415735 -0.500000 0.567965 -0.692067 0.445488 0.383337 0.050447
0.277785 -0.415735 -0.500000 0.422036 -0.789573 0.445488 0.383337 0.050447
0.000000 0.000000 0.500000 0.422036 -0.789573 0.445488 0.250000 0.250000
0.191342 -0.461940 -0.500000 0.422036 -0.789573 0.445488 0.341844 0.028269
0.191342 -0.461940 -0.500000 0.259888 -0.856737 0.445488 0.341844 0.028269
0.000000 0.000000 0.500000 0.259888 -0.856737 0.445488 0.250000 0.250000
0.097545 -0.490393 -0.500000 0.259888 -0.856737 0.445488 0.296822 0.014612
0.097545 -0.490393 -0.500000 0.087753 -0.890977 0.445488 0.296822 0.014612
0.000000 0.000000 0.500000 0.087753 -0.890977 0.445488 0.250000 0.250000
-0.000000 -0.500000 -0.500000 0.087753 -0.890977 0.445488 0.250000 0.010000
-0.000000 -0.500000 -0.500000 -0.087754 -0.890977 0.445488 0.250000 0.010000
0.000000 0.000000 0.500000 -0.087754 -0.890977 0.445488 0.250000 0.250000
-0.097545 -0.490393 -0.500000 -0.087754 -0.890977 0.445488 0.203178 0.014612
-0.097545 -0.490393 -0.500000 -0.259889 -0.856737 0.445488 0.203178 0.014612
0.000000 0.000000 0.500000 -0.259889 -0.856737 0.445488 0.250000 0.250000
-0.191342 -0.461940 -0.500000 -0.259889 -0.856737 0.445488 0.158156 0.028269
-0.191342 -0.461940 -0.500000 -0.422036 -0.789573 0.445488 0.158156 0.028269
0.000000 0.000000 0.500000 -0.422036 -0.789573 0.445488 0.250000 0.250000
-0.277785 -0.415735 -0.500000 -0.422036 -0.789573 0.445488 0.116663 0.050447
-0.277785 -0.415735 -0.500000 -0.567965 -0.692066 0.445488 0.116663 0.050447
0.000000 0.000000 0.500000 -0.567965 -0.692066 0.445488 0.250000 0.250000
-0.353554 -0.353553 -0.500000 -0.567965 -0.692066 0.445488 0.080294 0.080294
-0.353554 -0.353553 -0.500000 -0.692067 -0.567964 0.445488 0.080294 0.080294
0.000000 0.000000 0.500000 -0.692067 -0.567964 0.445488 0.250000 0.250000
-0.415735 -0.277785 -0.500000 -0.692067 -0.567964 0.445488 0.050447 0.116663
-0.415735 -0.277785 -0.500000 -0.789574 -0.422035 0.445488 0.050447 0.116663
0.000000 0.000000 0.500000 -0.789574 -0.422035 0.445488 0.250000 0.250000
-0.461940 -0.191341 -0.500000 -0.789574 -0.422035 0.445488 0.028269 0.158156
-0.461940 -0.191341 -0.500000 -0.856737 -0.259887 0.445488 0.028269 0.158156
0.000000 0.000000 0.500000 -0.856737 -0.259887 0.445488 0.250000 0.250000
-0.490393 -0.097545 -0.500000 -0.856737 -0.259887 0.445488 0.014611 0.203179
-0.490393 -0.097545 -0.500000 -0.890977 -0.087753 0.445488 0.014611 0.203179
0.000000 0.000000 0.500000 -0.890977 -0.087753 0.445488 0.250000 0.250000
-0.500000 0.000000 -0.500000 -0.890977 -0.087753 0.445488 0.010000 0.250000
-0.500000 0.000000 -0.500000 -0.890977 0.087754 0.445488 0.010000 0.250000
0.000000 0.000000 0.500000 -0.890977 0.087754 0.445488 0.250000 0.250000
-0.490393 0.097546 -0.500000 -0.890977 0.087754 0.445488 0.014612 0.296822
-0.490393 0.097546 -0.500000 -0.856737 0.259889 0.445488 0.014612 0.296822
0.000000 0.000000 0.500000 -0.856737 0.259889 0.445488 0.250000 0.250000
-0.461940 0.191342 -0.500000 -0.856737 0.259889 0.445488 0.028269 0.341844
-0.461940 0.191342 -0.500000 -0.789573 0.422037 0.445488 0.028269 0.341844
0.000000 0.000000 0.500000 -0.789573 0.422037 0.445488 0.250000 0.250000
-0.415734 0.277786 -0.500000 -0.789573 0.422037 0.445488 0.050447 0.383337
-0.415734 0.277786 -0.500000 -0.692066 0.567965 0.445488 0.050447 0.383337
0.000000 0.000000 0.500000 -0.692066 0.567965 0.445488 0.250000 0.250000
-0.353553 0.353554 -0.500000 -0.692066 0.567965 0.445488 0.080295 0.419706
-0.353553 0.353554 -0.500000 -0.567964 0.692067 0.445488 0.080295 0.419706
0.000000 0.000000 0.500000 -0.567964 0.692067 0.445488 0.250000 0.250000
-0.277785 0.415735 -0.500000 -0.567964 0.692067 0.445488 0.116663 0.449553
-0.277785 0.415735 -0.500000 -0.422035 0.789574 0.445488 0.116663 0.449553
0.000000 0.000000 0.500000 -0.422035 0.789574 0.445488 0.250000 0.250000
-0.191341 0.461940 -0.500000 -0.422035 0.789574 0.445488 0.158156 0.471731
-0.191341 0.461940 -0.500000 -0.259887 0.856737 0.445488 0.158156 0.471731
0.000000 0.000000 0.500000 -0.259887 0.856737 0.445488 0.250000 0.250000
-0.097544 0.490393 -0.500000 -0.259887 0.856737 0.445488 0.203179 0.485389
-0.097544 0.490393 -0.500000 -0.087753 0.890977 0.445488 0.203179 0.485389
0.000000 0.000000 0.500000 -0.087753 0.890977 0.445488 0.250000 0.250000
0.000000 0.500000 -0.500000 -0.087753 0.890977 0.445488 0.250000 0.490000
-0.097544 0.490393 -0.500000 -0.000000 0.000000 -1.000000 0.703179 0.485389
0.000000 0.500000 -0.500000 -0.000000 0.000000 -1.000000 0.750000 0.490000
0.097545 0.490393 -0.500000 -0.000000 0.000000 -1.000000 0.796822 0.485388
0.191342 0.461940 -0.500000 0.000000 0.000000 -1.000000 0.841844 0.471731
0.277785 0.415735 -0.500000 0.000000 0.000000 -1.000000 0.883337 0.449553
0.353553 0.353553 -0.500000 0.000000 0.000000 -1.000000 0.919706 0.419706
0.415735 0.277785 -0.500000 0.000000 0.000000 -1.000000 0.949553 0.383337
0.461940 0.191342 -0.500000 0.000000 0.000000 -1.000000 0.971731 0.341844
0.490393 0.097545 -0.500000 0.000000 0.000000 -1.000000 0.985388 0.296822
0.500000 0.000000 -0.500000 0.000000 0.000000 -1.000000 0.990000 0.250000
0.490393 -0.097545 -0.500000 0.000000 0.000000 -1.000000 0.985388 0.203178
0.461940 -0.191342 -0.500000 0.000000 0.000000 -1.000000 0.971731 0.158156
0.415735 -0.277785 -0.500000 0.000000 0.000000 -1.000000 0.949553 0.116663
0.353553 -0.353553 -0.500000 0.000000 0.000000 -1.000000 0.919706 0.080294
0.277785 -0.415735 -0.500000 0.000000 0.000000 -1.000000 0.883337 0.050447
0.191342 -0.461940 -0.500000 0.000000 0.000000 -1.000000 0.841844 0.028269
0.097545 -0.490393 -0.500000 0.000000 0.000000 -1.000000 0.796822 0.014612
-0.000000 -0.500000 -0.500000 0.000000 0.000000 -1.000000 0.750000 0.010000
-0.097545 -0.490393 -0.500000 0.000000 0.000000 -1.000000 0.703178 0.014612
-0.191342 -0.461940 -0.500000 0.000000 0.000000 -1.000000 0.658156 0.028269
-0.277785 -0.415735 -0.500000 0.000000 0.000000 -1.000000 0.616663 0.050447
-0.353554 -0.353553 -0.500000 0.000000 0.000000 -1.000000 0.580294 0.080294
-0.415735 -0.277785 -0.500000 0.000000 0.000000 -1.000000 0.550447 0.116663
-0.461940 -0.191341 -0.500000 0.000000 0.000000 -1.000000 0.528269 0.158156
-0.490393 -0.097545 -0.500000 0.000000 0.000000 -1.000000 0.514611 0.203179
-0.500000 0.000000 -0.500000 0.000000 -0.000000 -1.000000 0.510000 0.250000
-0.490393 0.097546 -0.500000 0.000000 -0.000000 -1.000000 0.514612 0.296822
-0.461940 0.191342 -0.500000 0.000000 0.000000 -1.000000 0.528269 0.341844
-0.415734 0.277786 -0.500000 0.000000 0.000000 -1.000000 0.550447 0.383337
-0.353553 0.353554 -0.500000 0.000000 0.000000 -1.000000 0.580295 0.419706
-0.277785 0.415735 -0.500000 0.000000 0.000000 -1.000000 0.616663 0.449553
-0.191341 0.461940 -0.500000 0.000000 0.000000 -1.000000 0.658156 0.471731
3 0 1 2
3 3 4 5
3 6 7 8
3 9 10 11
3 12 13 14
3 15 16 17
3 18 19 20
3 21 22 23
3 24 25 26
3 27 28 29
3 30 31 32
3 33 34 35
3 36 37 38
3 39 40 41
3 42 43 44
3 45 46 47
3 48 49 50
3 51 52 53
3 54 55 56
3 57 58 59
3 60 61 62
3 63 64 65
3 66 67 68
3 69 70 71
3 72 73 74
3 75 76 77
3 78 79 80
3 81 82 83
3 84 85 86
3 87 88 89
3 90 91 92
3 93 94 95
3 96 97 98
3 98 99 100
3 100 101 102
3 102 103 104
3 104 105 106
3 106 107 108
3 108 109 110
3 110 111 112
3 112 113 114
3 114 115 116
3 116 117 118
3 118 119 120
3 120 121 122
3 122 123 124
3 124 125 126
3 126 127 96
3 96 98 100
3 100 102 104
3 104 106 108
3 108 110 112
3 112 114 116
3 116 118 120
3 120 122 124
3 124 126 96
3 96 100 104
3 104 108 112
3 112 116 120
3 120 124 96
3 96 104 112
3 112 120 96
