ply
format ascii 1.0
comment Created by Blender 2.78 (sub 0) - www.blender.org, source file: ''
element vertex 64
property float x
property float y
property float z
property float nx
property float ny
property float nz
property float s
property float t
element face 30
property list uchar uint vertex_indices
end_header
0.000000 0.500000 -0.500000 0.175162 0.880599 0.440299 0.250000 0.490000
0.000000 0.000000 0.500000 0.175162 0.880599 0.440299 0.250000 0.250000
0.191342 0.461940 -0.500000 0.175162 0.880599 0.440299 0.341844 0.471731
0.191342 0.461940 -0.500000 0.498819 0.746536 0.440299 0.341844 0.471731
0.000000 0.000000 0.500000 0.498819 0.746536 0.440299 0.250000 0.250000
0.353553 0.353553 -0.500000 0.498819 0.746536 0.440299 0.419706 0.419706
0.353553 0.353553 -0.500000 0.746536 0.498819 0.440299 0.419706 0.419706
0.000000 0.000000 0.500000 0.746536 0.498819 0.440299 0.250000 0.250000
0.461940 0.191342 -0.500000 0.746536 0.498819 0.440299 0.471731 0.341844
0.461940 0.191342 -0.500000 0.880599 0.175162 0.440299 0.471731 0.341844
0.000000 0.000000 0.500000 0.880599 0.175162 0.440299 0.250000 0.250000
0.500000 -0.000000 -0.500000 0.880599 0.175162 0.440299 0.490000 0.250000
0.500000 -0.000000 -0.500000 0.880599 -0.175162 0.440300 0.490000 0.250000
0.000000 0.000000 0.500000 0.880599 -0.175162 0.440300 0.250000 0.250000
0.461940 -0.191342 -0.500000 0.880599 -0.175162 0.440300 0.471731 0.158156
0.461940 -0.191342 -0.500000 0.746536 -0.498819 0.440300 0.471731 0.158156
0.000000 0.000000 0.500000 0.746536 -0.498819 0.440300 0.250000 0.250000
0.353553 -0.353553 -0.500000 0.746536 -0.498819 0.440300 0.419706 0.080294
0.353553 -0.353553 -0.500000 0.498819 -0.746536 0.440300 0.419706 0.080294
0.000000 0.000000 0.500000 0.498819 -0.746536 0.440300 0.250000 0.250000
0.191342 -0.461940 -0.500000 0.498819 -0.746536 0.440300 0.341844 0.028269
0.191342 -0.461940 -0.500000 0.175162 -0.880599 0.440300 0.341844 0.028269
0.000000 0.000000 0.500000 0.175162 -0.880599 0.440300 0.250000 0.250000
0.000000 -0.500000 -0.500000 0.175162 -0.880599 0.440300 0.250000 0.010000
0.000000 -0.500000 -0.500000 -0.175162 -0.880599 0.440300 0.250000 0.010000
0.000000 0.000000 0.500000 -0.175162 -0.880599 0.440300 0.250000 0.250000
-0.191342 -0.461940 -0.500000 -0.175162 -0.880599 0.440300 0.158156 0.028269
-0.191342 -0.461940 -0.500000 -0.498819 -0.746536 0.440300 0.158156 0.028269
0.000000 0.000000 0.500000 -0.498819 -0.746536 0.440300 0.250000 0.250000
-0.353553 -0.353554 -0.500000 -0.498819 -0.746536 0.440300 0.080294 0.080294
-0.353553 -0.353554 -0.500000 -0.746536 -0.498819 0.440300 0.080294 0.080294
0.000000 0.000000 0.500000 -0.746536 -0.498819 0.440300 0.250000 0.250000
-0.461940 -0.191342 -0.500000 -0.746536 -0.498819 0.440300 0.028269 0.158156
-0.461940 -0.191342 -0.500000 -0.880599 -0.175162 0.440300 0.028269 0.158156
0.000000 0.000000 0.500000 -0.880599 -0.175162 0.440300 0.250000 0.250000
-0.500000 0.000000 -0.500000 -0.880599 -0.175162 0.440300 0.010000 0.250000
-0.500000 0.000000 -0.500000 -0.880599 0.175162 0.440300 0.010000 0.250000
0.000000 0.000000 0.500000 -0.880599 0.175162 0.440300 0.250000 0.250000
-0.461940 0.191342 -0.500000 -0.880599 0.175162 0.440300 0.028269 0.341844
-0.461940 0.191342 -0.500000 -0.746536 0.498819 0.440299 0.028269 0.341844
0.000000 0.000000 0.500000 -0.746536 0.498819 0.440299 0.250000 0.250000
-0.353553 0.353554 -0.500000 -0.746536 0.498819 0.440299 0.080294 0.419706
-0.353553 0.353554 -0.500000 -0.498819 0.746536 0.440300 0.080294 0.419706
0.000000 0.000000 0.500000 -0.498819 0.746536 0.440300 0.250000 0.250000
-0.191341 0.461940 -0.500000 -0.498819 0.746536 0.440300 0.158156 0.471731
-0.191341 0.461940 -0.500000 -0.175162 0.880599 0.440300 0.158156 0.471731
0.000000 0.000000 0.500000 -0.175162 0.880599 0.440300 0.250000 0.250000
0.000000 0.500000 -0.500000 -0.175162 0.880599 0.440300 0.250000 0.490000
-0.191341 0.461940 -0.500000 -0.000000 0.000000 -1.000000 0.658156 0.471731
0.000000 0.500000 -0.500000 -0.000000 0.000000 -1.000000 0.750000 0.490000
0.191342 0.461940 -0.500000 -0.000000 0.000000 -1.000000 0.841844 0.471731
0.353553 0.353553 -0.500000 0.000000 0.000000 -1.000000 0.919706 0.419706
0.461940 0.191342 -0.500000 0.000000 0.000000 -1.000000 0.971731 0.341844
0.500000 -0.000000 -0.500000 0.000000 0.000000 -1.000000 0.990000 0.250000
0.461940 -0.191342 -0.500000 0.000000 0.000000 -1.000000 0.971731 0.158156
0.353553 -0.353553 -0.500000 0.000000 0.000000 -1.000000 0.919706 0.080294
0.191342 -0.461940 -0.500000 0.000000 0.000000 -1.000000 0.841844 0.028269
0.000000 -0.500000 -0.500000 0.000000 0.000000 -1.000000 0.750000 0.010000
-0.191342 -0.461940 -0.500000 0.000000 0.000000 -1.000000 0.658156 0.028269
-0.353553 -0.353554 -0.500000 0.000000 0.000000 -1.000000 0.580294 0.080294
-0.461940 -0.191342 -0.500000 0.000000 0.000000 -1.000000 0.528269 0.158156
-0.500000 0.000000 -0.500000 0.000000 -0.000000 -1.000000 0.510000 0.250000
-0.461940 0.191342 -0.500000 0.000000 -0.000000 -1.000000 0.528269 0.341844
-0.353553 0.353554 -0.500000 0.000000 0.000000 -1.000000 0.580294 0.419706
3 0 1 2
3 3 4 5
3 6 7 8
3 9 10 11
3 12 13 14
3 15 16 17
3 18 19 20
3 21 22 23
3 24 25 26
3 27 28 29
3 30 31 32
3 33 34 35
3 36 37 38
3 39 40 41
3 42 43 44
3 45 46 47
3 48 49 50
3 50 51 52
3 52 53 54
3 54 55 56
3 56 57 58
3 58 59 60
3 60 61 62
3 62 63 48
3 48 50 52
3 52 54 56
3 56 58 60
3 60 62 48
3 48 52 56
3 56 60 48
