ply
format ascii 1.0
comment Created by Blender 2.78 (sub 0) - www.blender.org, source file: ''
element vertex 256
property float x
property float y
property float z
property float nx
property float ny
property float nz
property float s
property float t
element face 126
property list uchar uint vertex_indices
end_header
0.000000 0.500000 -0.500000 0.043898 0.893565 0.446782 0.250000 0.490000
0.000000 0.000000 0.500000 0.043898 0.893565 0.446782 0.250000 0.250000
0.049009 0.497592 -0.500000 0.043898 0.893565 0.446782 0.273524 0.488844
0.049009 0.497592 -0.500000 0.131272 0.884959 0.446782 0.273524 0.488844
0.000000 0.000000 0.500000 0.131272 0.884959 0.446782 0.250000 0.250000
0.097545 0.490393 -0.500000 0.131272 0.884959 0.446782 0.296822 0.485388
0.097545 0.490393 -0.500000 0.217380 0.867831 0.446782 0.296822 0.485388
0.000000 0.000000 0.500000 0.217380 0.867831 0.446782 0.250000 0.250000
0.145142 0.478470 -0.500000 0.217380 0.867831 0.446782 0.319668 0.479666
0.145142 0.478470 -0.500000 0.301396 0.842345 0.446782 0.319668 0.479666
0.000000 0.000000 0.500000 0.301396 0.842345 0.446782 0.250000 0.250000
0.191342 0.461940 -0.500000 0.301396 0.842345 0.446782 0.341844 0.471731
0.191342 0.461940 -0.500000 0.382509 0.808747 0.446782 0.341844 0.471731
0.000000 0.000000 0.500000 0.382509 0.808747 0.446782 0.250000 0.250000
0.235698 0.440961 -0.500000 0.382509 0.808747 0.446782 0.363135 0.461661
0.235698 0.440961 -0.500000 0.459938 0.767361 0.446782 0.363135 0.461661
0.000000 0.000000 0.500000 0.459938 0.767361 0.446782 0.250000 0.250000
0.277785 0.415735 -0.500000 0.459938 0.767361 0.446782 0.383337 0.449553
0.277785 0.415735 -0.500000 0.532938 0.718584 0.446782 0.383337 0.449553
0.000000 0.000000 0.500000 0.532938 0.718584 0.446782 0.250000 0.250000
0.317197 0.386505 -0.500000 0.532938 0.718584 0.446782 0.402254 0.435522
0.317197 0.386505 -0.500000 0.600805 0.662887 0.446782 0.402254 0.435522
0.000000 0.000000 0.500000 0.600805 0.662887 0.446782 0.250000 0.250000
0.353553 0.353553 -0.500000 0.600805 0.662887 0.446782 0.419706 0.419706
0.353553 0.353553 -0.500000 0.662887 0.600805 0.446782 0.419706 0.419706
0.000000 0.000000 0.500000 0.662887 0.600805 0.446782 0.250000 0.250000
0.386505 0.317197 -0.500000 0.662887 0.600805 0.446782 0.435522 0.402254
0.386505 0.317197 -0.500000 0.718584 0.532938 0.446782 0.435522 0.402254
0.000000 0.000000 0.500000 0.718584 0.532938 0.446782 0.250000 0.250000
0.415735 0.277785 -0.500000 0.718584 0.532938 0.446782 0.449553 0.383337
0.415735 0.277785 -0.500000 0.767361 0.459938 0.446782 0.449553 0.383337
0.000000 0.000000 0.500000 0.767361 0.459938 0.446782 0.250000 0.250000
0.440961 0.235698 -0.500000 0.767361 0.459938 0.446782 0.461661 0.363135
0.440961 0.235698 -0.500000 0.808747 0.382509 0.446782 0.461661 0.363135
0.000000 0.000000 0.500000 0.808747 0.382509 0.446782 0.250000 0.250000
0.461940 0.191342 -0.500000 0.808747 0.382509 0.446782 0.471731 0.341844
0.461940 0.191342 -0.500000 0.842345 0.301396 0.446782 0.471731 0.341844
0.000000 0.000000 0.500000 0.842345 0.301396 0.446782 0.250000 0.250000
0.478470 0.145142 -0.500000 0.842345 0.301396 0.446782 0.479666 0.319668
0.478470 0.145142 -0.500000 0.867831 0.217380 0.446782 0.479666 0.319668
0.000000 0.000000 0.500000 0.867831 0.217380 0.446782 0.250000 0.250000
0.490393 0.097545 -0.500000 0.867831 0.217380 0.446782 0.485388 0.296822
0.490393 0.097545 -0.500000 0.884959 0.131271 0.446782 0.485388 0.296822
0.000000 0.000000 0.500000 0.884959 0.131271 0.446782 0.250000 0.250000
0.497592 0.049009 -0.500000 0.884959 0.131271 0.446782 0.488844 0.273524
0.497592 0.049009 -0.500000 0.893565 0.043898 0.446782 0.488844 0.273524
0.000000 0.000000 0.500000 0.893565 0.043898 0.446782 0.250000 0.250000
0.500000 -0.000000 -0.500000 0.893565 0.043898 0.446782 0.490000 0.250000
0.500000 -0.000000 -0.500000 0.893565 -0.043898 0.446782 0.490000 0.250000
0.000000 0.000000 0.500000 0.893565 -0.043898 0.446782 0.250000 0.250000
0.497592 -0.049009 -0.500000 0.893565 -0.043898 0.446782 0.488844 0.226476
0.497592 -0.049009 -0.500000 0.884959 -0.131271 0.446782 0.488844 0.226476
0.000000 0.000000 0.500000 0.884959 -0.131271 0.446782 0.250000 0.250000
0.490393 -0.097545 -0.500000 0.884959 -0.131271 0.446782 0.485388 0.203178
0.490393 -0.097545 -0.500000 0.867831 -0.217381 0.446783 0.485388 0.203178
0.000000 0.000000 0.500000 0.867831 -0.217381 0.446783 0.250000 0.250000
0.478470 -0.145142 -0.500000 0.867831 -0.217381 0.446783 0.479666 0.180332
0.478470 -0.145142 -0.500000 0.842345 -0.301396 0.446782 0.479666 0.180332
0.000000 0.000000 0.500000 0.842345 -0.301396 0.446782 0.250000 0.250000
0.461940 -0.191342 -0.500000 0.842345 -0.301396 0.446782 0.471731 0.158156
0.461940 -0.191342 -0.500000 0.808747 -0.382509 0.446782 0.471731 0.158156
0.000000 0.000000 0.500000 0.808747 -0.382509 0.446782 0.250000 0.250000
0.440961 -0.235699 -0.500000 0.808747 -0.382509 0.446782 0.461661 0.136865
0.440961 -0.235699 -0.500000 0.767360 -0.459938 0.446783 0.461661 0.136865
0.000000 0.000000 0.500000 0.767360 -0.459938 0.446783 0.250000 0.250000
0.415735 -0.277785 -0.500000 0.767360 -0.459938 0.446783 0.449553 0.116663
0.415735 -0.277785 -0.500000 0.718584 -0.532938 0.446782 0.449553 0.116663
0.000000 0.000000 0.500000 0.718584 -0.532938 0.446782 0.250000 0.250000
0.386505 -0.317197 -0.500000 0.718584 -0.532938 0.446782 0.435522 0.097746
0.386505 -0.317197 -0.500000 0.662886 -0.600806 0.446782 0.435522 0.097746
0.000000 0.000000 0.500000 0.662886 -0.600806 0.446782 0.250000 0.250000
0.353553 -0.353554 -0.500000 0.662886 -0.600806 0.446782 0.419706 0.080294
0.353553 -0.353554 -0.500000 0.600805 -0.662887 0.446782 0.419706 0.080294
0.000000 0.000000 0.500000 0.600805 -0.662887 0.446782 0.250000 0.250000
0.317196 -0.386505 -0.500000 0.600805 -0.662887 0.446782 0.402254 0.064477
0.317196 -0.386505 -0.500000 0.532938 -0.718584 0.446782 0.402254 0.064477
0.000000 0.000000 0.500000 0.532938 -0.718584 0.446782 0.250000 0.250000
0.277785 -0.415735 -0.500000 0.532938 -0.718584 0.446782 0.383337 0.050447
0.277785 -0.415735 -0.500000 0.459937 -0.767361 0.446782 0.383337 0.050447
0.000000 0.000000 0.500000 0.459937 -0.767361 0.446782 0.250000 0.250000
0.235698 -0.440961 -0.500000 0.459937 -0.767361 0.446782 0.363135 0.038339
0.235698 -0.440961 -0.500000 0.382509 -0.808747 0.446783 0.363135 0.038339
0.000000 0.000000 0.500000 0.382509 -0.808747 0.446783 0.250000 0.250000
0.191341 -0.461940 -0.500000 0.382509 -0.808747 0.446783 0.341844 0.028269
0.191341 -0.461940 -0.500000 0.301395 -0.842346 0.446783 0.341844 0.028269
0.000000 0.000000 0.500000 0.301395 -0.842346 0.446783 0.250000 0.250000
0.145142 -0.478470 -0.500000 0.301395 -0.842346 0.446783 0.319668 0.020334
0.145142 -0.478470 -0.500000 0.217380 -0.867831 0.446782 0.319668 0.020334
0.000000 0.000000 0.500000 0.217380 -0.867831 0.446782 0.250000 0.250000
0.097545 -0.490393 -0.500000 0.217380 -0.867831 0.446782 0.296822 0.014611
0.097545 -0.490393 -0.500000 0.131270 -0.884960 0.446782 0.296822 0.014611
0.000000 0.000000 0.500000 0.131270 -0.884960 0.446782 0.250000 0.250000
0.049008 -0.497592 -0.500000 0.131270 -0.884960 0.446782 0.273524 0.011156
0.049008 -0.497592 -0.500000 0.043898 -0.893565 0.446782 0.273524 0.011156
0.000000 0.000000 0.500000 0.043898 -0.893565 0.446782 0.250000 0.250000
-0.000000 -0.500000 -0.500000 0.043898 -0.893565 0.446782 0.250000 0.010000
-0.000000 -0.500000 -0.500000 -0.043899 -0.893565 0.446783 0.250000 0.010000
0.000000 0.000000 0.500000 -0.043899 -0.893565 0.446783 0.250000 0.250000
-0.049009 -0.497592 -0.500000 -0.043899 -0.893565 0.446783 0.226476 0.011156
-0.049009 -0.497592 -0.500000 -0.131272 -0.884959 0.446782 0.226476 0.011156
0.000000 0.000000 0.500000 -0.131272 -0.884959 0.446782 0.250000 0.250000
-0.097546 -0.490393 -0.500000 -0.131272 -0.884959 0.446782 0.203178 0.014612
-0.097546 -0.490393 -0.500000 -0.217382 -0.867831 0.446782 0.203178 0.014612
0.000000 0.000000 0.500000 -0.217382 -0.867831 0.446782 0.250000 0.250000
-0.145143 -0.478470 -0.500000 -0.217382 -0.867831 0.446782 0.180331 0.020334
-0.145143 -0.478470 -0.500000 -0.301397 -0.842345 0.446782 0.180331 0.020334
0.000000 0.000000 0.500000 -0.301397 -0.842345 0.446782 0.250000 0.250000
-0.191342 -0.461940 -0.500000 -0.301397 -0.842345 0.446782 0.158156 0.028269
-0.191342 -0.461940 -0.500000 -0.382510 -0.808747 0.446782 0.158156 0.028269
0.000000 0.000000 0.500000 -0.382510 -0.808747 0.446782 0.250000 0.250000
-0.235699 -0.440960 -0.500000 -0.382510 -0.808747 0.446782 0.136865 0.038339
-0.235699 -0.440960 -0.500000 -0.459939 -0.767360 0.446783 0.136865 0.038339
0.000000 0.000000 0.500000 -0.459939 -0.767360 0.446783 0.250000 0.250000
-0.277786 -0.415735 -0.500000 -0.459939 -0.767360 0.446783 0.116663 0.050447
-0.277786 -0.415735 -0.500000 -0.532939 -0.718583 0.446782 0.116663 0.050447
0.000000 0.000000 0.500000 -0.532939 -0.718583 0.446782 0.250000 0.250000
-0.317197 -0.386505 -0.500000 -0.532939 -0.718583 0.446782 0.097745 0.064478
-0.317197 -0.386505 -0.500000 -0.600806 -0.662886 0.446783 0.097745 0.064478
0.000000 0.000000 0.500000 -0.600806 -0.662886 0.446783 0.250000 0.250000
-0.353554 -0.353553 -0.500000 -0.600806 -0.662886 0.446783 0.080294 0.080295
-0.353554 -0.353553 -0.500000 -0.662887 -0.600804 0.446783 0.080294 0.080295
0.000000 0.000000 0.500000 -0.662887 -0.600804 0.446783 0.250000 0.250000
-0.386506 -0.317196 -0.500000 -0.662887 -0.600804 0.446783 0.064477 0.097746
-0.386506 -0.317196 -0.500000 -0.718584 -0.532938 0.446782 0.064477 0.097746
0.000000 0.000000 0.500000 -0.718584 -0.532938 0.446782 0.250000 0.250000
-0.415735 -0.277785 -0.500000 -0.718584 -0.532938 0.446782 0.050447 0.116663
-0.415735 -0.277785 -0.500000 -0.767361 -0.459938 0.446783 0.050447 0.116663
0.000000 0.000000 0.500000 -0.767361 -0.459938 0.446783 0.250000 0.250000
-0.440961 -0.235698 -0.500000 -0.767361 -0.459938 0.446783 0.038339 0.136865
-0.440961 -0.235698 -0.500000 -0.808747 -0.382509 0.446783 0.038339 0.136865
0.000000 0.000000 0.500000 -0.808747 -0.382509 0.446783 0.250000 0.250000
-0.461940 -0.191342 -0.500000 -0.808747 -0.382509 0.446783 0.028269 0.158156
-0.461940 -0.191342 -0.500000 -0.842346 -0.301395 0.446782 0.028269 0.158156
0.000000 0.000000 0.500000 -0.842346 -0.301395 0.446782 0.250000 0.250000
-0.478470 -0.145142 -0.500000 -0.842346 -0.301395 0.446782 0.020334 0.180332
-0.478470 -0.145142 -0.500000 -0.867831 -0.217380 0.446783 0.020334 0.180332
0.000000 0.000000 0.500000 -0.867831 -0.217380 0.446783 0.250000 0.250000
-0.490393 -0.097545 -0.500000 -0.867831 -0.217380 0.446783 0.014612 0.203178
-0.490393 -0.097545 -0.500000 -0.884959 -0.131272 0.446782 0.014612 0.203178
0.000000 0.000000 0.500000 -0.884959 -0.131272 0.446782 0.250000 0.250000
-0.497592 -0.049009 -0.500000 -0.884959 -0.131272 0.446782 0.011156 0.226476
-0.497592 -0.049009 -0.500000 -0.893565 -0.043898 0.446782 0.011156 0.226476
0.000000 0.000000 0.500000 -0.893565 -0.043898 0.446782 0.250000 0.250000
-0.500000 -0.000000 -0.500000 -0.893565 -0.043898 0.446782 0.010000 0.250000
-0.500000 -0.000000 -0.500000 -0.893565 0.043898 0.446782 0.010000 0.250000
0.000000 0.000000 0.500000 -0.893565 0.043898 0.446782 0.250000 0.250000
-0.497592 0.049008 -0.500000 -0.893565 0.043898 0.446782 0.011156 0.273524
-0.497592 0.049008 -0.500000 -0.884960 0.131271 0.446782 0.011156 0.273524
0.000000 0.000000 0.500000 -0.884960 0.131271 0.446782 0.250000 0.250000
-0.490393 0.097545 -0.500000 -0.884960 0.131271 0.446782 0.014611 0.296821
-0.490393 0.097545 -0.500000 -0.867832 0.217379 0.446782 0.014611 0.296821
0.000000 0.000000 0.500000 -0.867832 0.217379 0.446782 0.250000 0.250000
-0.478470 0.145142 -0.500000 -0.867832 0.217379 0.446782 0.020334 0.319668
-0.478470 0.145142 -0.500000 -0.842346 0.301395 0.446782 0.020334 0.319668
0.000000 0.000000 0.500000 -0.842346 0.301395 0.446782 0.250000 0.250000
-0.461940 0.191341 -0.500000 -0.842346 0.301395 0.446782 0.028269 0.341844
-0.461940 0.191341 -0.500000 -0.808748 0.382508 0.446783 0.028269 0.341844
0.000000 0.000000 0.500000 -0.808748 0.382508 0.446783 0.250000 0.250000
-0.440961 0.235698 -0.500000 -0.808748 0.382508 0.446783 0.038339 0.363135
-0.440961 0.235698 -0.500000 -0.767361 0.459937 0.446783 0.038339 0.363135
0.000000 0.000000 0.500000 -0.767361 0.459937 0.446783 0.250000 0.250000
-0.415735 0.277784 -0.500000 -0.767361 0.459937 0.446783 0.050447 0.383337
-0.415735 0.277784 -0.500000 -0.718584 0.532937 0.446783 0.050447 0.383337
0.000000 0.000000 0.500000 -0.718584 0.532937 0.446783 0.250000 0.250000
-0.386506 0.317196 -0.500000 -0.718584 0.532937 0.446783 0.064477 0.402254
-0.386506 0.317196 -0.500000 -0.662888 0.600804 0.446782 0.064477 0.402254
0.000000 0.000000 0.500000 -0.662888 0.600804 0.446782 0.250000 0.250000
-0.353554 0.353553 -0.500000 -0.662888 0.600804 0.446782 0.080294 0.419705
-0.353554 0.353553 -0.500000 -0.600806 0.662885 0.446783 0.080294 0.419705
0.000000 0.000000 0.500000 -0.600806 0.662885 0.446783 0.250000 0.250000
-0.317198 0.386505 -0.500000 -0.600806 0.662885 0.446783 0.097745 0.435522
-0.317198 0.386505 -0.500000 -0.532940 0.718582 0.446782 0.097745 0.435522
0.000000 0.000000 0.500000 -0.532940 0.718582 0.446782 0.250000 0.250000
-0.277786 0.415734 -0.500000 -0.532940 0.718582 0.446782 0.116663 0.449552
-0.277786 0.415734 -0.500000 -0.459940 0.767359 0.446783 0.116663 0.449552
0.000000 0.000000 0.500000 -0.459940 0.767359 0.446783 0.250000 0.250000
-0.235700 0.440960 -0.500000 -0.459940 0.767359 0.446783 0.136864 0.461661
-0.235700 0.440960 -0.500000 -0.382511 0.808746 0.446783 0.136864 0.461661
0.000000 0.000000 0.500000 -0.382511 0.808746 0.446783 0.250000 0.250000
-0.191343 0.461939 -0.500000 -0.382511 0.808746 0.446783 0.158155 0.471731
-0.191343 0.461939 -0.500000 -0.301399 0.842345 0.446783 0.158155 0.471731
0.000000 0.000000 0.500000 -0.301399 0.842345 0.446783 0.250000 0.250000
-0.145144 0.478470 -0.500000 -0.301399 0.842345 0.446783 0.180331 0.479665
-0.145144 0.478470 -0.500000 -0.217383 0.867831 0.446782 0.180331 0.479665
0.000000 0.000000 0.500000 -0.217383 0.867831 0.446782 0.250000 0.250000
-0.097547 0.490392 -0.500000 -0.217383 0.867831 0.446782 0.203178 0.485388
-0.097547 0.490392 -0.500000 -0.131274 0.884959 0.446782 0.203178 0.485388
0.000000 0.000000 0.500000 -0.131274 0.884959 0.446782 0.250000 0.250000
-0.049010 0.497592 -0.500000 -0.131274 0.884959 0.446782 0.226475 0.488844
-0.049010 0.497592 -0.500000 -0.043900 0.893565 0.446782 0.226475 0.488844
0.000000 0.000000 0.500000 -0.043900 0.893565 0.446782 0.250000 0.250000
0.000000 0.500000 -0.500000 -0.043900 0.893565 0.446782 0.250000 0.490000
-0.049010 0.497592 -0.500000 -0.000000 0.000000 -1.000000 0.726475 0.488844
0.000000 0.500000 -0.500000 -0.000000 0.000000 -1.000000 0.750000 0.490000
0.049009 0.497592 -0.500000 -0.000000 0.000000 -1.000000 0.773524 0.488844
0.097545 0.490393 -0.500000 0.000000 0.000000 -1.000000 0.796822 0.485388
0.145142 0.478470 -0.500000 0.000000 0.000000 -1.000000 0.819668 0.479666
0.191342 0.461940 -0.500000 0.000000 0.000000 -1.000000 0.841844 0.471731
0.235698 0.440961 -0.500000 0.000000 0.000000 -1.000000 0.863135 0.461661
0.277785 0.415735 -0.500000 0.000000 0.000000 -1.000000 0.883337 0.449553
0.317197 0.386505 -0.500000 0.000000 0.000000 -1.000000 0.902254 0.435522
0.353553 0.353553 -0.500000 0.000000 0.000000 -1.000000 0.919706 0.419706
0.386505 0.317197 -0.500000 0.000000 0.000000 -1.000000 0.935522 0.402254
0.415735 0.277785 -0.500000 0.000000 0.000000 -1.000000 0.949553 0.383337
0.440961 0.235698 -0.500000 0.000000 0.000000 -1.000000 0.961661 0.363135
0.461940 0.191342 -0.500000 0.000000 0.000000 -1.000000 0.971731 0.341844
0.478470 0.145142 -0.500000 0.000000 0.000000 -1.000000 0.979666 0.319668
0.490393 0.097545 -0.500000 0.000000 0.000000 -1.000000 0.985388 0.296822
0.497592 0.049009 -0.500000 0.000000 0.000000 -1.000000 0.988844 0.273524
0.500000 -0.000000 -0.500000 0.000000 0.000000 -1.000000 0.990000 0.250000
0.497592 -0.049009 -0.500000 0.000000 0.000000 -1.000000 0.988844 0.226476
0.490393 -0.097545 -0.500000 0.000000 0.000000 -1.000000 0.985388 0.203178
0.478470 -0.145142 -0.500000 0.000000 0.000000 -1.000000 0.979666 0.180332
0.461940 -0.191342 -0.500000 0.000000 0.000000 -1.000000 0.971731 0.158156
0.440961 -0.235699 -0.500000 0.000000 0.000000 -1.000000 0.961661 0.136865
0.415735 -0.277785 -0.500000 0.000000 0.000000 -1.000000 0.949553 0.116663
0.386505 -0.317197 -0.500000 0.000000 0.000000 -1.000000 0.935522 0.097746
0.353553 -0.353554 -0.500000 0.000000 0.000000 -1.000000 0.919706 0.080294
0.317196 -0.386505 -0.500000 0.000000 0.000000 -1.000000 0.902254 0.064477
0.277785 -0.415735 -0.500000 0.000000 0.000000 -1.000000 0.883337 0.050447
0.235698 -0.440961 -0.500000 0.000000 0.000000 -1.000000 0.863135 0.038339
0.191341 -0.461940 -0.500000 0.000000 0.000000 -1.000000 0.841844 0.028269
0.145142 -0.478470 -0.500000 0.000000 0.000000 -1.000000 0.819668 0.020334
0.097545 -0.490393 -0.500000 0.000000 0.000000 -1.000000 0.796821 0.014611
0.049008 -0.497592 -0.500000 0.000000 0.000000 -1.000000 0.773524 0.011156
-0.000000 -0.500000 -0.500000 0.000000 0.000000 -1.000000 0.750000 0.010000
-0.049009 -0.497592 -0.500000 0.000000 0.000000 -1.000000 0.726476 0.011156
-0.097546 -0.490393 -0.500000 0.000000 0.000000 -1.000000 0.703178 0.014612
-0.145143 -0.478470 -0.500000 0.000000 0.000000 -1.000000 0.680331 0.020334
-0.191342 -0.461940 -0.500000 0.000000 0.000000 -1.000000 0.658156 0.028269
-0.235699 -0.440960 -0.500000 0.000000 0.000000 -1.000000 0.636865 0.038339
-0.277786 -0.415735 -0.500000 0.000000 0.000000 -1.000000 0.616663 0.050447
-0.317197 -0.386505 -0.500000 0.000000 0.000000 -1.000000 0.597745 0.064478
-0.353554 -0.353553 -0.500000 0.000000 0.000000 -1.000000 0.580294 0.080295
-0.386506 -0.317196 -0.500000 0.000000 0.000000 -1.000000 0.564477 0.097746
-0.415735 -0.277785 -0.500000 0.000000 0.000000 -1.000000 0.550447 0.116663
-0.440961 -0.235698 -0.500000 0.000000 0.000000 -1.000000 0.538339 0.136865
-0.461940 -0.191342 -0.500000 0.000000 0.000000 -1.000000 0.528269 0.158156
-0.478470 -0.145142 -0.500000 0.000000 0.000000 -1.000000 0.520334 0.180332
-0.490393 -0.097545 -0.500000 0.000000 0.000000 -1.000000 0.514612 0.203178
-0.497592 -0.049009 -0.500000 0.000000 0.000000 -1.000000 0.511156 0.226476
-0.500000 -0.000000 -0.500000 0.000000 -0.000000 -1.000000 0.510000 0.250000
-0.497592 0.049008 -0.500000 0.000000 -0.000000 -1.000000 0.511156 0.273524
-0.490393 0.097545 -0.500000 0.000000 0.000000 -1.000000 0.514611 0.296821
-0.478470 0.145142 -0.500000 0.000000 0.000000 -1.000000 0.520334 0.319668
-0.461940 0.191341 -0.500000 0.000000 0.000000 -1.000000 0.528269 0.341844
-0.440961 0.235698 -0.500000 0.000000 0.000000 -1.000000 0.538339 0.363135
-0.415735 0.277784 -0.500000 0.000000 0.000000 -1.000000 0.550447 0.383337
-0.386506 0.317196 -0.500000 0.000000 0.000000 -1.000000 0.564477 0.402254
-0.353554 0.353553 -0.500000 0.000000 0.000000 -1.000000 0.580294 0.419705
-0.317198 0.386505 -0.500000 0.000000 0.000000 -1.000000 0.597745 0.435522
-0.277786 0.415734 -0.500000 0.000000 0.000000 -1.000000 0.616663 0.449552
-0.235700 0.440960 -0.500000 0.000000 0.000000 -1.000000 0.636864 0.461661
-0.191343 0.461939 -0.500000 0.000000 0.000000 -1.000000 0.658155 0.471731
-0.145144 0.478470 -0.500000 0.000000 0.000000 -1.000000 0.680331 0.479665
-0.097547 0.490392 -0.500000 0.000000 0.000000 -1.000000 0.703178 0.485388
3 0 1 2
3 3 4 5
3 6 7 8
3 9 10 11
3 12 13 14
3 15 16 17
3 18 19 20
3 21 22 23
3 24 25 26
3 27 28 29
3 30 31 32
3 33 34 35
3 36 37 38
3 39 40 41
3 42 43 44
3 45 46 47
3 48 49 50
3 51 52 53
3 54 55 56
3 57 58 59
3 60 61 62
3 63 64 65
3 66 67 68
3 69 70 71
3 72 73 74
3 75 76 77
3 78 79 80
3 81 82 83
3 84 85 86
3 87 88 89
3 90 91 92
3 93 94 95
3 96 97 98
3 99 100 101
3 102 103 104
3 105 106 107
3 108 109 110
3 111 112 113
3 114 115 116
3 117 118 119
3 120 121 122
3 123 124 125
3 126 127 128
3 129 130 131
3 132 133 134
3 135 136 137
3 138 139 140
3 141 142 143
3 144 145 146
3 147 148 149
3 150 151 152
3 153 154 155
3 156 157 158
3 159 160 161
3 162 163 164
3 165 166 167
3 168 169 170
3 171 172 173
3 174 175 176
3 177 178 179
3 180 181 182
3 183 184 185
3 186 187 188
3 189 190 191
3 192 193 194
3 194 195 196
3 196 197 198
3 198 199 200
3 200 201 202
3 202 203 204
3 204 205 206
3 206 207 208
3 208 209 210
3 210 211 212
3 212 213 214
3 214 215 216
3 216 217 218
3 218 219 220
3 220 221 222
3 222 223 224
3 224 225 226
3 226 227 228
3 228 229 230
3 230 231 232
3 232 233 234
3 234 235 236
3 236 237 238
3 238 239 240
3 240 241 242
3 242 243 244
3 244 245 246
3 246 247 248
3 248 249 250
3 250 251 252
3 252 253 254
3 254 255 192
3 192 194 196
3 196 198 200
3 200 202 204
3 204 206 208
3 208 210 212
3 212 214 216
3 216 218 220
3 220 222 224
3 224 226 228
3 228 230 232
3 232 234 236
3 236 238 240
3 240 242 244
3 244 246 248
3 248 250 252
3 252 254 192
3 192 196 200
3 200 204 208
3 208 212 216
3 216 220 224
3 224 228 232
3 232 236 240
3 240 244 248
3 248 252 192
3 192 200 208
3 208 216 224
3 224 232 240
3 240 248 192
3 192 208 224
3 224 240 192
