ply
format ascii 1.0
comment Created by Blender 2.75 (sub 0) - www.blender.org, source file: 'gear.blend'
element vertex 170
property float x
property float y
property float z
property float s
property float t
property uchar red
property uchar green
property uchar blue
element face 63
property list uchar uint vertex_indices
end_header
-0.247767 0.514493 0.000000 0.778560 0.230967 117 117 117
0.000000 0.571044 0.000000 0.778560 0.156699 117 117 117
0.000000 0.571044 0.233330 0.852373 0.156699 117 117 117
-0.247767 0.514493 0.233330 0.852373 0.230967 117 117 117
-0.446460 0.356040 0.233330 0.852373 0.282362 117 117 117
-0.446460 0.356040 0.000000 0.778560 0.282362 117 117 117
-0.000000 -1.000000 0.000000 0.778560 0.844611 117 117 117
0.433884 -0.900969 0.000000 0.778560 0.714554 117 117 117
0.433884 -0.900969 0.233330 0.852373 0.714554 117 117 117
-0.000000 -1.000000 0.233330 0.852373 0.844610 117 117 117
-0.433884 0.900969 0.000000 0.852373 0.955162 117 117 117
-0.781832 0.623490 0.000000 0.852373 0.825106 117 117 117
-0.781832 0.623490 0.233330 0.926187 0.825105 117 117 117
-0.433884 0.900969 0.233330 0.926187 0.955162 117 117 117
0.781831 -0.623490 0.000000 1.000000 0.083285 117 117 117
0.974928 -0.222521 0.000000 1.000000 0.213342 117 117 117
0.974928 -0.222521 0.233330 0.926187 0.213342 117 117 117
0.781831 -0.623490 0.233330 0.926187 0.083285 117 117 117
-0.974928 0.222521 0.000000 0.073813 0.818798 117 117 117
-0.974928 -0.222521 0.000000 0.073813 0.963150 117 117 117
-0.974928 -0.222521 0.233330 0.000000 0.963150 117 117 117
-0.974928 0.222521 0.233330 0.000000 0.818798 117 117 117
0.974928 0.222521 0.000000 0.926187 0.426684 117 117 117
0.781831 0.623490 0.000000 0.926187 0.296627 117 117 117
0.781831 0.623490 0.233330 1.000000 0.296627 117 117 117
0.974928 0.222521 0.233330 1.000000 0.426684 117 117 117
-0.781832 -0.623490 0.000000 1.000000 0.509969 117 117 117
-0.433884 -0.900969 0.000000 1.000000 0.640025 117 117 117
-0.433884 -0.900969 0.233330 0.926187 0.640025 117 117 117
-0.781832 -0.623490 0.233330 0.926187 0.509969 117 117 117
0.433883 0.900969 0.000000 0.926187 0.149829 117 117 117
0.000000 1.000000 0.000000 0.926187 0.279886 117 117 117
0.000000 1.000000 0.233330 0.852373 0.279886 117 117 117
0.433883 0.900969 0.233330 0.852373 0.149829 117 117 117
-0.119332 1.262191 0.030407 0.833135 0.844610 117 117 117
-0.440130 1.188971 0.030407 0.833135 0.951339 117 117 117
-0.440130 1.188971 0.202923 0.778560 0.951339 117 117 117
-0.119332 1.262191 0.202923 0.778560 0.844611 117 117 117
-0.433884 0.900969 0.233330 0.147627 0.912213 117 117 117
-0.440130 1.188971 0.202923 0.157246 0.818798 117 117 117
-0.440130 1.188971 0.030407 0.211821 0.818798 117 117 117
-0.433884 0.900969 0.000000 0.221440 0.912213 117 117 117
0.000000 1.000000 0.233330 0.133549 0.611631 181 181 181
-0.119332 1.262191 0.202923 0.045164 0.634393 181 181 181
-0.440130 1.188971 0.202923 0.000000 0.538234 181 181 181
-0.433884 0.900969 0.233330 0.072464 0.481575 181 181 181
0.000000 1.000000 0.000000 0.516693 0.818798 117 117 117
-0.119332 1.262191 0.030407 0.507074 0.903841 117 117 117
-0.119332 1.262191 0.202923 0.452499 0.903841 117 117 117
0.000000 1.000000 0.233330 0.442880 0.818798 117 117 117
0.655158 -1.085419 0.030407 0.788179 0.631269 117 117 117
0.912418 -0.880261 0.030407 0.788179 0.564725 117 117 117
0.912418 -0.880261 0.202923 0.842754 0.564725 117 117 117
0.655158 -1.085419 0.202923 0.842754 0.631269 117 117 117
0.912418 -0.880261 0.202923 0.935806 0.000000 117 117 117
0.912418 -0.880261 0.030407 0.990381 0.000000 117 117 117
0.433884 -0.900969 0.233330 0.689296 0.337223 181 181 181
0.655158 -1.085419 0.202923 0.778560 0.356035 181 181 181
0.912418 -0.880261 0.202923 0.778560 0.462763 181 181 181
0.781831 -0.623490 0.233330 0.689296 0.481575 181 181 181
-1.061223 0.693666 0.030407 0.276015 0.903841 117 117 117
-1.203991 0.397204 0.030407 0.276015 1.000000 117 117 117
-1.203991 0.397204 0.202923 0.221440 1.000000 117 117 117
-1.061223 0.693666 0.202923 0.221440 0.903841 117 117 117
-0.974928 0.222521 0.233330 0.516693 0.903841 117 117 117
-1.203991 0.397204 0.202923 0.526312 0.818798 117 117 117
-1.203991 0.397204 0.030407 0.580887 0.818798 117 117 117
-0.974928 0.222521 0.000000 0.590506 0.903841 117 117 117
-0.781832 0.623490 0.233330 0.072464 0.337223 181 181 181
-1.061223 0.693666 0.202923 0.000000 0.280563 181 181 181
-1.203991 0.397204 0.202923 0.045165 0.184404 181 181 181
-0.974928 0.222521 0.233330 0.133549 0.207166 181 181 181
-1.061223 0.693666 0.030407 0.861993 0.741820 117 117 117
-1.061223 0.693666 0.202923 0.916567 0.741820 117 117 117
1.257099 -0.164524 0.030407 0.718895 0.818798 117 117 117
1.257099 0.164524 0.030407 0.718895 0.925526 117 117 117
1.257099 0.164524 0.202923 0.664320 0.925526 117 117 117
1.257099 -0.164524 0.202923 0.664320 0.818798 117 117 117
0.974928 0.222521 0.233330 0.590506 0.903841 117 117 117
1.257099 0.164524 0.202923 0.600126 0.818798 117 117 117
1.257099 0.164524 0.030407 0.654701 0.818798 117 117 117
0.974928 0.222521 0.000000 0.664320 0.903841 117 117 117
0.974928 -0.222521 0.233330 0.628210 0.611631 181 181 181
1.257099 -0.164524 0.202923 0.669521 0.694916 180 180 180
1.257099 0.164524 0.202923 0.588138 0.761461 179 179 179
0.974928 0.222521 0.233330 0.518138 0.701633 181 181 181
0.974928 -0.222521 0.000000 0.295253 0.903841 117 117 117
1.257099 -0.164524 0.030407 0.304872 0.818798 117 117 117
1.257099 -0.164524 0.202923 0.359447 0.818798 117 117 117
0.974928 -0.222521 0.233330 0.369067 0.903841 117 117 117
-1.203991 -0.397204 0.030407 0.330590 0.903841 117 117 117
-1.061223 -0.693666 0.030407 0.330590 1.000000 117 117 117
-1.061223 -0.693666 0.202923 0.276015 1.000000 117 117 117
-1.203991 -0.397204 0.202923 0.276015 0.903841 117 117 117
-1.061223 -0.693666 0.202923 0.935806 0.426684 117 117 117
-1.061223 -0.693666 0.030407 0.990381 0.426684 117 117 117
-0.974928 -0.222521 0.233330 0.243622 0.117164 181 181 181
-1.203991 -0.397204 0.202923 0.241646 0.023749 181 181 181
-1.061223 -0.693666 0.202923 0.343129 0.000000 181 181 181
-0.781832 -0.623490 0.233330 0.380880 0.085043 181 181 181
-0.974928 -0.222521 0.000000 0.221440 0.903841 117 117 117
-1.203991 -0.397204 0.030407 0.231059 0.818798 117 117 117
-1.203991 -0.397204 0.202923 0.285634 0.818798 117 117 117
-0.974928 -0.222521 0.233330 0.295253 0.903841 117 117 117
0.912418 0.880261 0.030407 0.916567 0.000000 117 117 117
0.655158 1.085419 0.030407 0.916567 0.066544 117 117 117
0.655158 1.085419 0.202923 0.861993 0.066544 117 117 117
0.912418 0.880261 0.202923 0.861993 0.000000 117 117 117
0.781831 0.623490 0.233330 0.380880 0.733755 181 181 181
0.912418 0.880261 0.202923 0.343129 0.818798 181 181 181
0.655158 1.085419 0.202923 0.241646 0.795048 181 181 181
0.433883 0.900969 0.233330 0.243621 0.701633 181 181 181
0.912418 0.880261 0.030407 0.935806 0.213342 117 117 117
0.912418 0.880261 0.202923 0.990381 0.213342 117 117 117
-0.440130 -1.188971 0.030407 0.773469 0.818798 117 117 117
-0.119332 -1.262191 0.030407 0.773469 0.925526 117 117 117
-0.119332 -1.262191 0.202923 0.718895 0.925526 117 117 117
-0.440130 -1.188971 0.202923 0.718895 0.818798 117 117 117
-0.000000 -1.000000 0.233330 0.369067 0.903841 117 117 117
-0.119332 -1.262191 0.202923 0.378686 0.818798 117 117 117
-0.119332 -1.262191 0.030407 0.433261 0.818798 117 117 117
-0.000000 -1.000000 0.000000 0.442880 0.903841 117 117 117
-0.433884 -0.900969 0.233330 0.518138 0.117164 181 181 181
-0.440130 -1.188971 0.202923 0.588138 0.057337 181 181 181
-0.119332 -1.262191 0.202923 0.669521 0.123881 181 181 181
-0.000000 -1.000000 0.233330 0.628210 0.207166 181 181 181
-0.433884 -0.900969 0.000000 0.073813 0.912213 117 117 117
-0.440130 -1.188971 0.030407 0.083433 0.818798 117 117 117
-0.440130 -1.188971 0.202923 0.138007 0.818798 117 117 117
-0.433884 -0.900969 0.233330 0.147627 0.912213 117 117 117
-0.247767 0.514493 0.233330 0.204761 0.450614 181 181 181
0.000000 0.571044 0.233330 0.239643 0.524882 181 181 181
-0.446460 0.356040 0.233330 0.204761 0.368183 181 181 181
-0.556727 0.127069 0.233330 0.239643 0.293915 179 179 179
-0.556727 -0.127069 0.233330 0.302499 0.242520 173 173 173
-0.446460 -0.356040 0.233330 0.380880 0.224177 180 180 180
-0.247767 -0.514493 0.233330 0.459260 0.242520 181 181 181
-0.000000 -0.571044 0.233330 0.522116 0.293915 181 181 181
0.247767 -0.514493 0.233330 0.556999 0.368183 181 181 181
0.446460 -0.356040 0.233330 0.556999 0.450614 181 181 181
0.556727 -0.127069 0.233330 0.522116 0.524882 181 181 181
0.556727 0.127069 0.233330 0.459260 0.576278 181 181 181
0.446460 0.356040 0.233330 0.380880 0.594620 181 181 181
0.247766 0.514493 0.233330 0.302499 0.576277 181 181 181
0.247766 0.514493 0.000000 0.778560 0.074268 117 117 117
0.247766 0.514493 0.233330 0.852373 0.074268 117 117 117
0.446460 0.356040 0.233330 0.852373 0.000000 117 117 117
0.446460 0.356040 0.000000 0.778560 0.000000 117 117 117
0.556727 0.127069 0.233330 0.852373 0.354154 117 117 117
0.446460 0.356040 0.233330 0.852373 0.279886 117 117 117
0.446460 0.356040 0.000000 0.926187 0.279886 117 117 117
0.556727 0.127069 0.000000 0.926187 0.354154 117 117 117
0.556727 -0.127069 0.233330 0.852373 0.436585 117 117 117
0.556727 -0.127069 0.000000 0.926187 0.436585 117 117 117
0.446460 -0.356040 0.233330 0.852373 0.510853 117 117 117
0.446460 -0.356040 0.000000 0.926187 0.510853 117 117 117
0.247767 -0.514493 0.233330 0.852373 0.585121 117 117 117
0.247767 -0.514493 0.000000 0.926187 0.585121 117 117 117
-0.000000 -0.571044 0.233330 0.852373 0.667552 117 117 117
-0.000000 -0.571044 0.000000 0.926187 0.667552 117 117 117
-0.247767 -0.514493 0.233330 0.852373 0.741820 117 117 117
-0.247767 -0.514493 0.000000 0.926187 0.741820 117 117 117
-0.446460 -0.356040 0.233330 0.852373 0.513330 117 117 117
-0.247767 -0.514493 0.233330 0.852373 0.564725 117 117 117
-0.247767 -0.514493 0.000000 0.778560 0.564725 117 117 117
-0.446460 -0.356040 0.000000 0.778560 0.513330 117 117 117
-0.556727 -0.127069 0.233330 0.852373 0.439062 117 117 117
-0.556727 -0.127069 0.000000 0.778560 0.439062 117 117 117
-0.556727 0.127069 0.233330 0.852373 0.356630 117 117 117
-0.556727 0.127069 0.000000 0.778560 0.356630 117 117 117
4 0 1 2 3
4 3 4 5 0
4 6 7 8 9
4 10 11 12 13
4 14 15 16 17
4 18 19 20 21
4 22 23 24 25
4 26 27 28 29
4 30 31 32 33
4 34 35 36 37
4 38 39 40 41
4 42 43 44 45
4 46 47 48 49
4 50 51 52 53
4 17 54 55 14
4 56 57 58 59
4 7 50 53 8
4 60 61 62 63
4 64 65 66 67
4 68 69 70 71
4 11 72 73 12
4 74 75 76 77
4 78 79 80 81
4 82 83 84 85
4 86 87 88 89
4 90 91 92 93
4 29 94 95 26
4 96 97 98 99
4 100 101 102 103
4 104 105 106 107
4 33 106 105 30
4 108 109 110 111
4 23 112 113 24
4 114 115 116 117
4 118 119 120 121
4 122 123 124 125
4 126 127 128 129
4 130 131 42 45
4 132 130 45 68
4 133 132 68 71
4 134 133 71 96
4 135 134 96 99
4 136 135 99 122
4 137 136 122 125
4 138 137 125 56
4 139 138 56 59
4 140 139 59 82
4 141 140 82 85
4 142 141 85 108
4 143 142 108 111
4 131 143 111 42
4 1 144 145 2
4 146 145 144 147
4 148 149 150 151
4 152 148 151 153
4 154 152 153 155
4 156 154 155 157
4 158 156 157 159
4 160 158 159 161
4 162 163 164 165
4 166 162 165 167
4 168 166 167 169
4 4 168 169 5
