ply
format ascii 1.0
comment Created by Blender 2.78 (sub 0) - www.blender.org, source file: ''
element vertex 504
property float x
property float y
property float z
property float nx
property float ny
property float nz
property float s
property float t
element face 512
property list uchar uint vertex_indices
end_header
0.000000 0.500000 0.000000 0.000000 1.000000 0.000000 0.987170 0.890057
0.000000 0.490392 0.097545 0.000000 0.980987 0.193915 1.052852 0.853496
0.095671 0.480970 0.097545 0.191382 0.962157 0.193915 1.118646 0.886741
0.097545 0.490393 0.000000 0.195074 0.980773 0.000000 1.058858 0.941531
0.000000 0.097545 0.490393 0.000000 0.200964 0.979583 0.164175 0.515355
-0.000000 -0.000000 0.500000 0.000000 0.000000 1.000000 0.173885 0.455932
0.019030 0.095671 0.490393 0.039186 0.197089 0.979583 0.170127 0.517981
0.000000 -0.000000 -0.500000 0.000000 0.000000 -1.000000 0.673885 0.544068
0.000000 0.097545 -0.490393 0.000000 0.200964 -0.979583 0.684118 0.603319
0.019030 0.095671 -0.490393 0.039186 0.197089 -0.979583 0.677855 0.606091
0.000000 0.490392 -0.097545 0.000000 0.980987 -0.193915 0.890769 0.898698
0.095671 0.480970 -0.097545 0.191382 0.962157 -0.193915 0.850503 0.957761
0.037329 0.187665 0.461940 0.075655 0.380413 0.921690 0.166285 0.580019
0.000000 0.191342 0.461940 0.000000 0.387860 0.921690 0.154287 0.574719
0.000000 0.461940 -0.191342 0.000000 0.924741 -0.380535 0.807760 0.873551
0.090120 0.453064 -0.191342 0.180395 0.906980 -0.380535 0.740138 0.910980
0.000000 0.277785 0.415735 0.000000 0.559771 0.828639 0.143468 0.633779
0.054193 0.272448 0.415735 0.109195 0.548997 0.828639 0.162032 0.642009
0.000000 0.415734 -0.277785 0.000000 0.833338 -0.552751 0.758509 0.828935
0.081106 0.407747 -0.277785 0.162572 0.817316 -0.552751 0.709897 0.852220
0.000000 0.353553 0.353553 0.000000 0.710135 0.704031 0.130681 0.692192
0.068975 0.346760 0.353553 0.138524 0.696493 0.704031 0.156895 0.703891
0.000000 0.353553 -0.353553 0.000000 0.710135 -0.704031 0.729340 0.776239
0.068975 0.346760 -0.353553 0.138524 0.696493 -0.704031 0.696266 0.791374
0.000000 0.415734 0.277785 0.000000 0.833338 0.552751 0.114193 0.749365
0.081106 0.407747 0.277785 0.162572 0.817316 0.552751 0.149994 0.765559
0.000000 0.277785 -0.415735 0.000000 0.559771 -0.828639 0.710019 0.720033
0.054193 0.272448 -0.415735 0.109195 0.548997 -0.828639 0.688139 0.729854
0.000000 0.461940 0.191342 0.000000 0.924741 0.380535 0.090639 0.804092
0.090120 0.453064 0.191342 0.180395 0.906980 0.380535 0.139303 0.826766
0.000000 0.191342 -0.461940 0.000000 0.387860 -0.921690 0.695729 0.662120
0.037329 0.187665 -0.461940 0.075655 0.380413 -0.921690 0.682407 0.668044
0.000000 0.490392 0.097545 0.000000 0.980987 0.193915 0.052852 0.853496
0.095671 0.480970 0.097545 0.191382 0.962157 0.193915 0.118646 0.886741
0.106304 0.256640 -0.415735 0.214209 0.517136 -0.828639 0.664997 0.730905
0.073223 0.176777 -0.461940 0.148412 0.358348 -0.921690 0.668578 0.668672
0.176777 0.426777 0.191342 0.353893 0.854366 0.380535 0.195586 0.829312
0.187665 0.453064 0.097545 0.375408 0.906339 0.193915 0.209053 0.890801
0.037329 0.090120 -0.490393 0.076907 0.185644 -0.979583 0.671414 0.606384
0.097545 0.490393 0.000000 0.195074 0.980773 0.000000 0.058858 0.941531
0.191342 0.461940 0.000000 0.382672 0.923856 0.000000 0.253455 0.949881
0.037329 0.090120 0.490393 0.076907 0.185644 0.979583 0.176223 0.518258
0.191342 0.461940 0.000000 0.382672 0.923856 0.000000 1.253455 0.949881
0.187665 0.453064 -0.097545 0.375408 0.906339 -0.193915 0.530317 0.970046
0.073223 0.176777 0.461940 0.148412 0.358348 0.921690 0.178614 0.580580
0.176777 0.426777 -0.191342 0.353893 0.854366 -0.380535 0.631068 0.915854
0.106304 0.256640 0.415735 0.214209 0.517136 0.828639 0.181265 0.642882
0.159095 0.384089 -0.277785 0.318888 0.769890 -0.552751 0.651216 0.854874
0.135299 0.326641 0.353553 0.271737 0.656056 0.704031 0.184475 0.705142
0.135299 0.326641 -0.353553 0.271737 0.656056 -0.704031 0.659893 0.793024
0.159095 0.384089 0.277785 0.318888 0.769890 0.552751 0.188807 0.767319
0.256640 0.384089 -0.191342 0.513749 0.768914 -0.380535 0.551523 0.883984
0.230970 0.345671 -0.277785 0.462966 0.692892 -0.552751 0.599171 0.835880
0.154329 0.230970 0.415735 0.310984 0.465407 0.828639 0.200079 0.636338
0.196424 0.293969 0.353553 0.394513 0.590442 0.704031 0.211192 0.695811
0.196424 0.293969 -0.353553 0.394513 0.590442 -0.704031 0.625629 0.780870
0.230970 0.345671 0.277785 0.462966 0.692892 0.552751 0.225697 0.754330
0.154329 0.230970 -0.415735 0.310984 0.465407 -0.828639 0.642650 0.723072
0.256640 0.384089 0.191342 0.513749 0.768914 0.380535 0.246893 0.810913
0.106304 0.159095 -0.461940 0.215491 0.322489 -0.921690 0.655066 0.663963
0.272448 0.407747 0.097545 0.545000 0.815668 0.193915 0.282530 0.863056
0.054193 0.081106 -0.490393 0.111637 0.167089 -0.979583 0.665084 0.604184
0.277785 0.415735 0.000000 0.555559 0.831446 0.000000 0.350658 0.903214
0.054193 0.081106 0.490393 0.111637 0.167089 0.979583 0.182229 0.516174
0.272448 0.407747 -0.097545 0.545000 0.815668 -0.193915 0.461195 0.912809
0.106304 0.159095 0.461940 0.215491 0.322489 0.921690 0.190737 0.576371
0.135299 0.135299 -0.461940 0.274270 0.274270 -0.921690 0.642640 0.654224
0.068975 0.068975 -0.490393 0.142094 0.142094 -0.979583 0.659144 0.599593
0.346760 0.346760 0.097545 0.693655 0.693655 0.193915 0.325638 0.817476
0.353554 0.353553 0.000000 0.707083 0.707083 0.000000 0.381459 0.845133
0.068975 0.068975 0.490393 0.142094 0.142094 0.979583 0.187918 0.511813
0.346760 0.346760 -0.097545 0.693655 0.693655 -0.193915 0.449712 0.852040
0.135299 0.135299 0.461940 0.274270 0.274270 0.921690 0.202136 0.567601
0.326641 0.326641 -0.191342 0.653890 0.653890 -0.380535 0.514096 0.835548
0.196424 0.196424 0.415735 0.395795 0.395795 0.828639 0.217475 0.622824
0.293969 0.293969 -0.277785 0.589251 0.589251 -0.552751 0.562931 0.801433
0.250000 0.250000 0.353553 0.502121 0.502121 0.704031 0.235134 0.676860
0.250000 0.250000 -0.353553 0.502121 0.502121 -0.704031 0.597557 0.757070
0.293969 0.293969 0.277785 0.589251 0.589251 0.552751 0.256892 0.728731
0.196424 0.196424 -0.415735 0.395795 0.395795 -0.828639 0.622887 0.707165
0.326641 0.326641 0.191342 0.653890 0.653890 0.380535 0.285599 0.776699
0.230970 0.154329 0.415735 0.465407 0.310984 0.828639 0.232723 0.603180
0.293969 0.196424 0.353553 0.590442 0.394513 0.704031 0.255243 0.649945
0.345671 0.230970 -0.277785 0.692892 0.462966 -0.552751 0.540270 0.758192
0.293969 0.196424 -0.353553 0.590442 0.394513 -0.704031 0.576775 0.724812
0.345671 0.230970 0.277785 0.692892 0.462966 0.552751 0.281292 0.693727
0.230970 0.154329 -0.415735 0.465407 0.310984 -0.828639 0.606743 0.684607
0.384089 0.256640 0.191342 0.768914 0.513749 0.380535 0.312531 0.732700
0.159095 0.106304 -0.461940 0.322489 0.215491 -0.921690 0.631898 0.640050
0.407747 0.272447 0.097545 0.815668 0.545000 0.193915 0.350628 0.764190
0.081106 0.054193 -0.490393 0.167089 0.111637 -0.979583 0.653846 0.592819
0.415735 0.277785 0.000000 0.831446 0.555559 0.000000 0.396119 0.784691
0.081106 0.054193 0.490393 0.167089 0.111637 0.979583 0.193076 0.505343
0.407747 0.272447 -0.097545 0.815668 0.545000 -0.193915 0.446540 0.790835
0.159095 0.106304 0.461940 0.322489 0.215491 0.921690 0.212368 0.554677
0.384089 0.256640 -0.191342 0.768914 0.513749 -0.380535 0.496296 0.781382
0.453064 0.187665 0.097545 0.906339 0.375408 0.193915 0.366301 0.707381
0.461940 0.191342 0.000000 0.923856 0.382672 0.000000 0.405088 0.723441
0.090120 0.037329 0.490393 0.185644 0.076907 0.979583 0.197516 0.497015
0.090120 0.037329 -0.490393 0.185644 0.076907 -0.979583 0.649397 0.584159
0.453064 0.187665 -0.097545 0.906339 0.375408 -0.193915 0.446204 0.729542
0.176777 0.073223 0.461940 0.358348 0.148412 0.921690 0.221090 0.538164
0.426777 0.176777 -0.191342 0.854366 0.353862 -0.380535 0.487492 0.724969
0.256640 0.106304 0.415735 0.517136 0.214209 0.828639 0.245404 0.578459
0.384089 0.159095 -0.277785 0.769890 0.318888 -0.552751 0.526720 0.710264
0.326641 0.135299 0.353553 0.656056 0.271737 0.704031 0.271280 0.616885
0.326641 0.135299 -0.353553 0.656056 0.271737 -0.704031 0.562496 0.686965
0.384089 0.159095 0.277785 0.769890 0.318888 0.552751 0.299570 0.652231
0.256640 0.106304 -0.415735 0.517136 0.214209 -0.828639 0.594516 0.657004
0.426777 0.176777 0.191342 0.854366 0.353862 0.380535 0.331072 0.682997
0.176777 0.073223 -0.461940 0.358348 0.148412 -0.921690 0.623224 0.622220
0.407747 0.081106 -0.277785 0.817316 0.162572 -0.552751 0.519148 0.659881
0.346760 0.068975 -0.353553 0.696493 0.138524 -0.704031 0.553474 0.645659
0.346760 0.068975 0.353553 0.696493 0.138524 0.704031 0.283474 0.579325
0.407747 0.081106 0.277785 0.817316 0.162572 0.552751 0.312896 0.606404
0.272448 0.054193 -0.415735 0.548997 0.109195 -0.828639 0.586050 0.625865
0.453064 0.090120 0.191342 0.906980 0.180395 0.380535 0.343982 0.629924
0.187665 0.037329 -0.461940 0.380413 0.075655 -0.921690 0.616806 0.601597
0.480970 0.095671 0.097545 0.962157 0.191382 0.193915 0.376900 0.648761
0.095671 0.019030 -0.490393 0.197089 0.039186 -0.979583 0.645954 0.573977
0.490393 0.097545 0.000000 0.980773 0.195074 0.000000 0.411514 0.661834
0.095671 0.019030 0.490393 0.197089 0.039186 0.979583 0.201080 0.487143
0.480970 0.095671 -0.097545 0.962157 0.191382 -0.193915 0.447322 0.668273
0.187665 0.037329 0.461940 0.380413 0.075655 0.921690 0.228059 0.518725
0.453064 0.090120 -0.191342 0.906980 0.180395 -0.380535 0.483508 0.667605
0.272448 0.054193 0.415735 0.548997 0.109195 0.828639 0.255351 0.549765
0.097545 -0.000000 0.490393 0.200964 0.000000 0.979583 0.203639 0.476093
0.097545 -0.000000 -0.490393 0.200964 0.000000 -0.979583 0.643623 0.562687
0.500000 -0.000000 0.000000 1.000000 0.000000 0.000000 0.416673 0.600050
0.490393 -0.000000 -0.097545 0.980987 0.000000 -0.193915 0.449450 0.607099
0.191342 -0.000000 0.461940 0.387860 0.000000 0.921690 0.233107 0.497077
0.461940 -0.000000 -0.191342 0.924741 0.000000 -0.380535 0.482581 0.609901
0.277785 -0.000000 0.415735 0.559771 0.000000 0.828639 0.262539 0.518160
0.415735 -0.000000 -0.277785 0.833338 0.000000 -0.552751 0.515758 0.608308
0.353553 -0.000000 0.353553 0.710135 0.000000 0.704031 0.292191 0.538620
0.353553 -0.000000 -0.353553 0.710135 0.000000 -0.704031 0.548660 0.602406
0.415735 -0.000000 0.277785 0.833338 0.000000 0.552751 0.322293 0.557737
0.277785 -0.000000 -0.415735 0.559771 0.000000 -0.828639 0.581026 0.592494
0.461940 -0.000000 0.191342 0.924741 0.000000 0.380535 0.353026 0.574796
0.191342 -0.000000 -0.461940 0.387860 0.000000 -0.921690 0.612694 0.579054
0.490393 -0.000000 0.097545 0.980987 0.000000 0.193915 0.384489 0.589110
0.346760 -0.068975 0.353553 0.696493 -0.138524 0.704031 0.297736 0.495871
0.407747 -0.081106 0.277785 0.817316 -0.162572 0.552751 0.328465 0.507265
0.346760 -0.068975 -0.353553 0.696493 -0.138524 -0.704031 0.547354 0.558319
0.272448 -0.054193 -0.415735 0.548997 -0.109195 -0.828639 0.579134 0.558005
0.453064 -0.090120 0.191342 0.906980 -0.180395 0.380535 0.359242 0.518389
0.187665 -0.037329 -0.461940 0.380413 -0.075655 -0.921690 0.610862 0.555439
0.480970 -0.095671 0.097545 0.962157 -0.191382 0.193915 0.390140 0.528826
0.095671 -0.019030 -0.490393 0.197089 -0.039186 -0.979583 0.642463 0.550728
0.490393 -0.097545 0.000000 0.980773 -0.195074 0.000000 0.421212 0.538180
0.095671 -0.019030 0.490393 0.197089 -0.039186 0.979583 0.205102 0.464272
0.480970 -0.095671 -0.097545 0.962157 -0.191382 -0.193915 0.452486 0.546087
0.187665 -0.037329 0.461940 0.380413 -0.075655 0.921690 0.236122 0.473963
0.453064 -0.090120 -0.191342 0.906980 -0.180395 -0.380535 0.483961 0.552233
0.272448 -0.054193 0.415735 0.548997 -0.109195 0.828639 0.266980 0.484631
0.407747 -0.081106 -0.277785 0.817316 -0.162572 -0.552751 0.515604 0.556368
0.461940 -0.191342 0.000000 0.923856 -0.382672 0.000000 0.425540 0.476280
0.453064 -0.187665 -0.097545 0.906339 -0.375408 -0.193915 0.456519 0.485322
0.090120 -0.037329 0.490393 0.185644 -0.076907 0.979583 0.205406 0.452113
0.176777 -0.073224 0.461940 0.358348 -0.148412 0.921690 0.237014 0.450144
0.426777 -0.176777 -0.191342 0.854366 -0.353862 -0.380535 0.487415 0.494916
0.256640 -0.106304 0.415735 0.517136 -0.214209 0.828639 0.268652 0.450106
0.384089 -0.159095 -0.277785 0.769890 -0.318888 -0.552751 0.518281 0.504701
0.326641 -0.135299 0.353553 0.656056 -0.271737 0.704031 0.300262 0.452000
0.326641 -0.135299 -0.353553 0.656056 -0.271737 -0.704031 0.549174 0.514309
0.384089 -0.159095 0.277785 0.769890 -0.318888 0.552751 0.331788 0.455749
0.256640 -0.106304 -0.415735 0.517136 -0.214209 -0.828639 0.580149 0.523379
0.426777 -0.176777 0.191342 0.854366 -0.353893 0.380535 0.363187 0.461200
0.176777 -0.073223 -0.461940 0.358348 -0.148412 -0.921690 0.611247 0.531566
0.453064 -0.187665 0.097545 0.906339 -0.375408 0.193915 0.394437 0.468134
0.090120 -0.037329 -0.490393 0.185644 -0.076907 -0.979583 0.642491 0.538554
0.293969 -0.196424 -0.353553 0.590442 -0.394513 -0.704031 0.554008 0.471219
0.230970 -0.154329 -0.415735 0.465407 -0.310984 -0.828639 0.583947 0.489536
0.345671 -0.230970 0.277785 0.692892 -0.462966 0.552751 0.332316 0.403818
0.384089 -0.256640 0.191342 0.768914 -0.513749 0.380535 0.365057 0.403586
0.159095 -0.106304 -0.461940 0.322489 -0.215491 -0.921690 0.613773 0.508219
0.407747 -0.272448 0.097545 0.815668 -0.545000 0.193915 0.397692 0.407171
0.081106 -0.054193 -0.490393 0.167089 -0.111637 -0.979583 0.643688 0.526615
0.415735 -0.277785 0.000000 0.831446 -0.555559 0.000000 0.429998 0.414398
0.081106 -0.054193 0.490393 0.167089 -0.111637 0.979583 0.204523 0.440064
0.407747 -0.272448 -0.097545 0.815668 -0.545000 -0.193915 0.461814 0.424927
0.159095 -0.106304 0.461940 0.322489 -0.215491 0.921690 0.235706 0.426397
0.384089 -0.256640 -0.191342 0.768914 -0.513749 -0.380535 0.493065 0.438288
0.230970 -0.154329 0.415735 0.465407 -0.310984 0.828639 0.267456 0.415500
0.345671 -0.230970 -0.277785 0.692892 -0.462966 -0.552751 0.523765 0.453923
0.293969 -0.196424 0.353553 0.590442 -0.394513 0.704031 0.299710 0.407855
0.346760 -0.346760 -0.097545 0.693655 -0.693655 -0.193915 0.468878 0.365101
0.326641 -0.326641 -0.191342 0.653890 -0.653890 -0.380535 0.501377 0.382805
0.135299 -0.135299 0.461940 0.274270 -0.274270 0.921690 0.232131 0.403529
0.196424 -0.196424 0.415735 0.395795 -0.395795 0.828639 0.263189 0.381775
0.293969 -0.293969 -0.277785 0.589251 -0.589251 -0.552751 0.532358 0.404755
0.250000 -0.250000 0.353553 0.502121 -0.502121 0.704031 0.295766 0.364317
0.250000 -0.250000 -0.353553 0.502121 -0.502121 -0.704031 0.561961 0.429947
0.293969 -0.293969 0.277785 0.589251 -0.589251 0.552751 0.329742 0.352096
0.196424 -0.196424 -0.415735 0.395795 -0.395795 -0.828639 0.590492 0.457395
0.326641 -0.326641 0.191342 0.653890 -0.653890 0.380535 0.364713 0.345861
0.135299 -0.135299 -0.461940 0.274270 -0.274270 -0.921690 0.618355 0.486162
0.346760 -0.346760 0.097545 0.693655 -0.693655 0.193915 0.400033 0.346029
0.068975 -0.068975 -0.490393 0.142094 -0.142094 -0.979583 0.645998 0.515347
0.353553 -0.353554 0.000000 0.707083 -0.707083 0.000000 0.434967 0.352588
0.068975 -0.068975 0.490393 0.142094 -0.142094 0.979583 0.202462 0.428577
0.154329 -0.230970 -0.415735 0.310984 -0.465407 -0.828639 0.599795 0.427929
0.106304 -0.159095 -0.461940 0.215491 -0.322489 -0.921690 0.624887 0.466141
0.256640 -0.384089 0.191342 0.513749 -0.768914 0.380535 0.361551 0.288375
0.272447 -0.407747 0.097545 0.545000 -0.815668 0.193915 0.401410 0.284776
0.054193 -0.081106 -0.490393 0.111637 -0.167089 -0.979583 0.649337 0.505166
0.277785 -0.415735 0.000000 0.555559 -0.831446 0.000000 0.441016 0.290928
0.054193 -0.081106 0.490393 0.111637 -0.167089 0.979583 0.199272 0.418098
0.272447 -0.407747 -0.097545 0.545000 -0.815668 -0.193915 0.478638 0.306189
0.106304 -0.159095 0.461940 0.215491 -0.322489 0.921690 0.226250 0.382380
0.256640 -0.384089 -0.191342 0.513749 -0.768914 -0.380535 0.513257 0.329160
0.154329 -0.230970 0.415735 0.310984 -0.465407 0.828639 0.255557 0.350005
0.230970 -0.345671 -0.277785 0.462966 -0.692892 -0.552751 0.544685 0.358152
0.196424 -0.293969 0.353553 0.394513 -0.590442 0.704031 0.287808 0.322439
0.196424 -0.293969 -0.353553 0.394513 -0.590442 -0.704031 0.573310 0.391541
0.230970 -0.345671 0.277785 0.462966 -0.692892 0.552751 0.323270 0.301344
0.073223 -0.176777 0.461940 0.148412 -0.358348 0.921690 0.218092 0.363819
0.106304 -0.256640 0.415735 0.214209 -0.517136 0.828639 0.244233 0.321448
0.176777 -0.426777 -0.191342 0.353862 -0.854366 -0.380535 0.530275 0.278509
0.159095 -0.384089 -0.277785 0.318888 -0.769890 -0.552751 0.561702 0.315478
0.135299 -0.326641 0.353553 0.271737 -0.656056 0.704031 0.274867 0.283620
0.135299 -0.326641 -0.353553 0.271737 -0.656056 -0.704031 0.588419 0.357293
0.159095 -0.384089 0.277785 0.318888 -0.769890 0.552751 0.311339 0.252690
0.106304 -0.256640 -0.415735 0.214209 -0.517136 -0.828639 0.611845 0.402182
0.176777 -0.426777 0.191342 0.353862 -0.854366 0.380535 0.354120 0.231662
0.073223 -0.176777 -0.461940 0.148412 -0.358348 -0.921690 0.633218 0.448883
0.187665 -0.453064 0.097545 0.375408 -0.906339 0.193915 0.401485 0.223481
0.037329 -0.090120 -0.490393 0.076907 -0.185644 -0.979583 0.653586 0.496446
0.191342 -0.461940 0.000000 0.382672 -0.923856 0.000000 0.449214 0.229570
0.037329 -0.090120 0.490393 0.076907 -0.185644 0.979583 0.195046 0.409047
0.187665 -0.453064 -0.097545 0.375408 -0.906339 -0.193915 0.492855 0.248853
0.090120 -0.453064 0.191342 0.180395 -0.906980 0.380535 0.339030 0.176783
0.095671 -0.480970 0.097545 0.191382 -0.962157 0.193915 0.399207 0.162240
0.037329 -0.187665 -0.461940 0.075655 -0.380413 -0.921690 0.643125 0.435066
0.019030 -0.095671 -0.490393 0.039186 -0.197089 -0.979583 0.658592 0.489518
0.097545 -0.490393 0.000000 0.195074 -0.980773 0.000000 0.462053 0.168868
0.019030 -0.095671 0.490393 0.039186 -0.197089 0.979583 0.189929 0.401803
0.095671 -0.480970 -0.097545 0.191382 -0.962157 -0.193915 0.515097 0.194501
0.037329 -0.187665 0.461940 0.075655 -0.380413 0.921690 0.207808 0.348717
0.090120 -0.453064 -0.191342 0.180395 -0.906980 -0.380535 0.554946 0.232889
0.054193 -0.272448 0.415735 0.109195 -0.548997 0.828639 0.229000 0.297568
0.081106 -0.407747 -0.277785 0.162572 -0.817316 -0.552751 0.584576 0.278722
0.068975 -0.346760 0.353553 0.138524 -0.696493 0.704031 0.255709 0.249826
0.068975 -0.346760 -0.353553 0.138524 -0.696493 -0.704031 0.607575 0.328782
0.081106 -0.407747 0.277785 0.162572 -0.817316 0.552751 0.291172 0.208073
0.054193 -0.272448 -0.415735 0.109195 -0.548997 -0.828639 0.626520 0.381253
0.000000 -0.461940 -0.191342 0.000000 -0.924741 -0.380535 0.590639 0.195908
-0.000000 -0.415735 -0.277785 0.000000 -0.833338 -0.552751 0.614193 0.250635
0.000000 -0.277785 0.415735 0.000000 -0.559771 0.828639 0.210019 0.279967
-0.000000 -0.353554 0.353553 0.000000 -0.710135 0.704031 0.229340 0.223761
-0.000000 -0.353554 -0.353553 0.000000 -0.710135 -0.704031 0.630681 0.307808
-0.000000 -0.415735 0.277785 0.000000 -0.833338 0.552751 0.258509 0.171065
-0.000000 -0.277785 -0.415735 0.000000 -0.559771 -0.828639 0.643468 0.366221
0.000000 -0.461940 0.191342 0.000000 -0.924741 0.380535 0.307760 0.126449
0.000000 -0.191342 -0.461940 0.000000 -0.387860 -0.921690 0.654287 0.425281
-0.000000 -0.490393 0.097545 0.000000 -0.980987 0.193915 0.390769 0.101302
0.000000 -0.097545 -0.490393 0.000000 -0.200964 -0.979583 0.664175 0.484645
-0.000000 -0.500000 0.000000 0.000000 -1.000000 0.000000 0.487170 0.109943
-0.000000 -0.097545 0.490393 0.000000 -0.200964 0.979583 0.184118 0.396680
-0.000000 -0.490393 -0.097545 0.000000 -0.980987 -0.193915 0.552851 0.146504
0.000000 -0.191342 0.461940 0.000000 -0.387860 0.921690 0.195729 0.337880
-0.037329 -0.187665 -0.461940 -0.075655 -0.380413 -0.921690 0.666285 0.419981
-0.019030 -0.095671 -0.490393 -0.039186 -0.197089 -0.979583 0.670127 0.482019
-0.095671 -0.480970 0.097545 -0.191382 -0.962157 0.193915 0.350503 0.042239
-0.097545 -0.490393 0.000000 -0.195074 -0.980773 0.000000 0.558858 0.058469
-0.019030 -0.095671 0.490393 -0.039186 -0.197089 0.979583 0.177855 0.393909
-0.095671 -0.480970 -0.097545 -0.191382 -0.962157 -0.193915 0.618646 0.113259
-0.037329 -0.187665 0.461940 -0.075655 -0.380413 0.921690 0.182407 0.331956
-0.090120 -0.453064 -0.191342 -0.180395 -0.906980 -0.380535 0.639303 0.173234
-0.054193 -0.272448 0.415735 -0.109195 -0.548997 0.828639 0.188139 0.270146
-0.081106 -0.407747 -0.277785 -0.162572 -0.817316 -0.552751 0.649994 0.234441
-0.068975 -0.346760 0.353553 -0.138524 -0.696493 0.704031 0.196266 0.208626
-0.068975 -0.346760 -0.353553 -0.138524 -0.696493 -0.704031 0.656895 0.296109
-0.081106 -0.407747 0.277785 -0.162572 -0.817316 0.552751 0.209897 0.147780
-0.054193 -0.272448 -0.415735 -0.109195 -0.548997 -0.828639 0.662032 0.357991
-0.090120 -0.453064 0.191342 -0.180395 -0.906980 0.380535 0.240138 0.089020
-0.106304 -0.256640 0.415735 -0.214209 -0.517136 0.828639 0.164997 0.269095
-0.135299 -0.326641 0.353553 -0.271737 -0.656056 0.704031 0.159893 0.206976
-0.159095 -0.384089 -0.277785 -0.318888 -0.769890 -0.552751 0.688807 0.232681
-0.135299 -0.326641 -0.353553 -0.271737 -0.656056 -0.704031 0.684475 0.294857
-0.159095 -0.384089 0.277785 -0.318888 -0.769890 0.552751 0.151216 0.145126
-0.106304 -0.256640 -0.415735 -0.214209 -0.517136 -0.828639 0.681265 0.357118
-0.176777 -0.426777 0.191342 -0.353893 -0.854366 0.380535 0.131069 0.084146
-0.073223 -0.176777 -0.461940 -0.148412 -0.358348 -0.921690 0.678614 0.419420
-0.187665 -0.453064 0.097545 -0.375408 -0.906339 0.193915 0.030318 0.029954
-0.037329 -0.090120 -0.490393 -0.076907 -0.185644 -0.979583 0.676223 0.481742
-0.187665 -0.453064 0.097545 -0.375408 -0.906339 0.193915 1.030318 0.029954
-0.191342 -0.461940 0.000000 -0.382672 -0.923856 0.000000 0.753455 0.050119
-0.037329 -0.090120 0.490393 -0.076907 -0.185644 0.979583 0.171414 0.393616
-0.187665 -0.453064 -0.097545 -0.375408 -0.906339 -0.193915 0.709053 0.109199
-0.073223 -0.176777 0.461940 -0.148412 -0.358348 0.921690 0.168578 0.331328
-0.176777 -0.426777 -0.191342 -0.353893 -0.854366 -0.380535 0.695586 0.170688
-0.272448 -0.407747 0.097545 -0.545000 -0.815668 0.193915 0.961195 0.087191
-0.277785 -0.415735 0.000000 -0.555559 -0.831446 0.000000 0.850658 0.096786
-0.054193 -0.081106 0.490393 -0.111637 -0.167089 0.979583 0.165084 0.395816
-0.054193 -0.081106 -0.490393 -0.111637 -0.167089 -0.979583 0.682229 0.483826
-0.272448 -0.407747 -0.097545 -0.545000 -0.815668 -0.193915 0.782530 0.136944
-0.106304 -0.159095 0.461940 -0.215491 -0.322489 0.921690 0.155066 0.336037
-0.256640 -0.384089 -0.191342 -0.513749 -0.768914 -0.380535 0.746893 0.189087
-0.154329 -0.230970 0.415735 -0.310984 -0.465407 0.828639 0.142651 0.276928
-0.230970 -0.345671 -0.277785 -0.462966 -0.692892 -0.552751 0.725697 0.245670
-0.196424 -0.293969 0.353553 -0.394513 -0.590442 0.704031 0.125629 0.219130
-0.196424 -0.293969 -0.353553 -0.394513 -0.590442 -0.704031 0.711192 0.304188
-0.230970 -0.345671 0.277785 -0.462966 -0.692892 0.552751 0.099171 0.164120
-0.154329 -0.230970 -0.415735 -0.310984 -0.465407 -0.828639 0.700079 0.363662
-0.256640 -0.384089 0.191342 -0.513749 -0.768914 0.380535 0.051523 0.116016
-0.106304 -0.159095 -0.461940 -0.215491 -0.322489 -0.921690 0.690737 0.423629
-0.176777 -0.426777 0.191342 -0.353893 -0.854366 0.380535 1.131068 0.084146
-0.256640 -0.384089 0.191342 -0.513749 -0.768914 0.380535 1.051523 0.116016
-0.293969 -0.293969 -0.277785 -0.589251 -0.589251 -0.552751 0.756892 0.271269
-0.250000 -0.250000 -0.353553 -0.502121 -0.502121 -0.704031 0.735134 0.323140
-0.250000 -0.250000 0.353553 -0.502121 -0.502121 0.704031 0.097557 0.242930
-0.293969 -0.293969 0.277785 -0.589251 -0.589251 0.552751 0.062931 0.198567
-0.196424 -0.196424 -0.415735 -0.395795 -0.395795 -0.828639 0.717475 0.377176
-0.326641 -0.326641 0.191342 -0.653890 -0.653890 0.380535 0.014096 0.164451
-0.135299 -0.135299 -0.461940 -0.274270 -0.274270 -0.921690 0.702136 0.432399
-0.326641 -0.326641 0.191342 -0.653890 -0.653890 0.380535 1.014096 0.164451
-0.346760 -0.346760 0.097545 -0.693655 -0.693655 0.193915 0.949712 0.147960
-0.068975 -0.068975 -0.490393 -0.142094 -0.142094 -0.979583 0.687917 0.488187
-0.353553 -0.353554 0.000000 -0.707083 -0.707083 0.000000 0.881459 0.154867
-0.068975 -0.068975 0.490393 -0.142094 -0.142094 0.979583 0.159144 0.400407
-0.346760 -0.346760 -0.097545 -0.693655 -0.693655 -0.193915 0.825638 0.182524
-0.135299 -0.135299 0.461940 -0.274270 -0.274270 0.921690 0.142640 0.345776
-0.326641 -0.326641 -0.191342 -0.653890 -0.653890 -0.380535 0.785599 0.223301
-0.196424 -0.196424 0.415735 -0.395795 -0.395795 0.828639 0.122887 0.292835
-0.081106 -0.054193 -0.490393 -0.167089 -0.111637 -0.979583 0.693076 0.494657
-0.415735 -0.277785 0.000000 -0.831446 -0.555559 0.000000 0.896119 0.215309
-0.407746 -0.272448 -0.097545 -0.815668 -0.545000 -0.193915 0.850628 0.235810
-0.081106 -0.054193 0.490393 -0.167089 -0.111637 0.979583 0.153846 0.407181
-0.159095 -0.106304 0.461940 -0.322489 -0.215491 0.921690 0.131898 0.359950
-0.384089 -0.256640 -0.191342 -0.768914 -0.513749 -0.380535 0.812531 0.267300
-0.230970 -0.154329 0.415735 -0.465407 -0.310984 0.828639 0.106743 0.315393
-0.345671 -0.230970 -0.277785 -0.692892 -0.462966 -0.552751 0.781291 0.306273
-0.293969 -0.196424 0.353553 -0.590442 -0.394513 0.704031 0.076775 0.275188
-0.293969 -0.196424 -0.353553 -0.590442 -0.394513 -0.704031 0.755243 0.350055
-0.345671 -0.230970 0.277785 -0.692892 -0.462966 0.552751 0.040270 0.241808
-0.230970 -0.154329 -0.415735 -0.465407 -0.310984 -0.828639 0.732723 0.396820
-0.293969 -0.293969 0.277785 -0.589251 -0.589251 0.552751 1.062931 0.198567
-0.345671 -0.230970 0.277785 -0.692892 -0.462966 0.552751 1.040270 0.241808
-0.384089 -0.256640 0.191342 -0.768914 -0.513749 0.380535 0.996296 0.218618
-0.159095 -0.106304 -0.461940 -0.322489 -0.215491 -0.921690 0.712368 0.445323
-0.407746 -0.272448 0.097545 -0.815668 -0.545000 0.193915 0.946540 0.209165
-0.326641 -0.135299 -0.353553 -0.656056 -0.271737 -0.704031 0.771280 0.383115
-0.256640 -0.106304 -0.415735 -0.517136 -0.214209 -0.828639 0.745404 0.421541
-0.384089 -0.159095 0.277785 -0.769890 -0.318888 0.552751 1.026720 0.289736
-0.426777 -0.176777 0.191342 -0.854366 -0.353862 0.380535 0.987492 0.275031
-0.176777 -0.073223 -0.461940 -0.358348 -0.148412 -0.921690 0.721090 0.461836
-0.453064 -0.187665 0.097545 -0.906339 -0.375408 0.193915 0.946204 0.270458
-0.090120 -0.037329 -0.490393 -0.185644 -0.076907 -0.979583 0.697516 0.502985
-0.461940 -0.191342 0.000000 -0.923856 -0.382672 0.000000 0.905088 0.276559
-0.090120 -0.037329 0.490393 -0.185644 -0.076907 0.979583 0.149397 0.415841
-0.453064 -0.187665 -0.097545 -0.906339 -0.375408 -0.193915 0.866301 0.292619
-0.176777 -0.073223 0.461940 -0.358348 -0.148412 0.921690 0.123224 0.377779
-0.426777 -0.176777 -0.191342 -0.854366 -0.353862 -0.380535 0.831072 0.317003
-0.256640 -0.106304 0.415735 -0.517136 -0.214209 0.828639 0.094516 0.342996
-0.384089 -0.159095 -0.277785 -0.769890 -0.318888 -0.552751 0.799570 0.347769
-0.326641 -0.135299 0.353553 -0.656056 -0.271737 0.704031 0.062496 0.313035
-0.384089 -0.159095 0.277785 -0.769890 -0.318888 0.552751 0.026720 0.289736
-0.095671 -0.019030 0.490393 -0.197089 -0.039186 0.979583 0.145954 0.426023
-0.187665 -0.037329 0.461940 -0.380413 -0.075655 0.921690 0.116806 0.398403
-0.480970 -0.095671 -0.097545 -0.962157 -0.191382 -0.193915 0.876900 0.351239
-0.453064 -0.090120 -0.191342 -0.906980 -0.180395 -0.380535 0.843982 0.370076
-0.272448 -0.054193 0.415735 -0.548997 -0.109195 0.828639 0.086050 0.374135
-0.407746 -0.081106 -0.277785 -0.817316 -0.162572 -0.552751 0.812896 0.393596
-0.346760 -0.068975 0.353553 -0.696493 -0.138524 0.704031 0.053474 0.354341
-0.346760 -0.068975 -0.353553 -0.696493 -0.138524 -0.704031 0.783474 0.420675
-0.407746 -0.081106 0.277785 -0.817316 -0.162572 0.552751 0.019148 0.340119
-0.272447 -0.054193 -0.415735 -0.548997 -0.109195 -0.828639 0.755351 0.450235
-0.407746 -0.081106 0.277785 -0.817316 -0.162572 0.552751 1.019148 0.340119
-0.453064 -0.090120 0.191342 -0.906980 -0.180395 0.380535 0.983508 0.332395
-0.187665 -0.037329 -0.461940 -0.380413 -0.075655 -0.921690 0.728058 0.481275
-0.480970 -0.095671 0.097545 -0.962157 -0.191382 0.193915 0.947322 0.331727
-0.095671 -0.019030 -0.490393 -0.197089 -0.039186 -0.979583 0.701079 0.512857
-0.490393 -0.097545 0.000000 -0.980773 -0.195074 0.000000 0.911514 0.338166
-0.415735 -0.000000 0.277785 -0.833338 0.000000 0.552751 1.015758 0.391692
-0.461940 -0.000000 0.191342 -0.924741 0.000000 0.380535 0.982581 0.390099
-0.277785 -0.000000 -0.415735 -0.559771 0.000000 -0.828639 0.762539 0.481840
-0.191342 -0.000000 -0.461940 -0.387860 0.000000 -0.921690 0.733107 0.502923
-0.490392 -0.000000 0.097545 -0.980987 0.000000 0.193915 0.949450 0.392901
-0.097545 -0.000000 -0.490393 -0.200964 0.000000 -0.979583 0.703639 0.523906
-0.500000 -0.000000 0.000000 -1.000000 0.000000 0.000000 0.916673 0.399950
-0.097545 -0.000000 0.490393 -0.200964 0.000000 0.979583 0.143623 0.437313
-0.490392 -0.000000 -0.097545 -0.980987 0.000000 -0.193915 0.884489 0.410890
-0.191342 -0.000000 0.461940 -0.387860 0.000000 0.921690 0.112694 0.420946
-0.461940 -0.000000 -0.191342 -0.924741 0.000000 -0.380535 0.853026 0.425204
-0.277785 -0.000000 0.415735 -0.559771 0.000000 0.828639 0.081026 0.407505
-0.415735 -0.000000 -0.277785 -0.833338 0.000000 -0.552751 0.822293 0.442263
-0.353553 -0.000000 0.353553 -0.710135 0.000000 0.704031 0.048660 0.397594
-0.353553 -0.000000 -0.353553 -0.710135 0.000000 -0.704031 0.792191 0.461379
-0.415735 -0.000000 0.277785 -0.833338 0.000000 0.552751 0.015758 0.391692
-0.480970 0.095671 -0.097545 -0.962157 0.191382 -0.193915 0.890140 0.471174
-0.453064 0.090120 -0.191342 -0.906980 0.180395 -0.380535 0.859242 0.481611
-0.187665 0.037329 0.461940 -0.380413 0.075655 0.921690 0.110862 0.444561
-0.272448 0.054193 0.415735 -0.548997 0.109195 0.828639 0.079134 0.441995
-0.407746 0.081106 -0.277785 -0.817316 0.162572 -0.552751 0.828465 0.492735
-0.346760 0.068975 0.353553 -0.696493 0.138524 0.704031 0.047354 0.441680
-0.346760 0.068975 -0.353553 -0.696493 0.138524 -0.704031 0.797736 0.504129
-0.407746 0.081106 0.277785 -0.817316 0.162572 0.552751 0.015604 0.443632
-0.272447 0.054193 -0.415735 -0.548997 0.109195 -0.828639 0.766980 0.515369
-0.407746 0.081106 0.277785 -0.817316 0.162572 0.552751 1.015604 0.443632
-0.453064 0.090120 0.191342 -0.906980 0.180395 0.380535 0.983961 0.447767
-0.187665 0.037329 -0.461940 -0.380413 0.075655 -0.921690 0.736121 0.526037
-0.480970 0.095671 0.097545 -0.962157 0.191382 0.193915 0.952486 0.453913
-0.095671 0.019030 -0.490393 -0.197089 0.039186 -0.979583 0.705102 0.535727
-0.490393 0.097545 0.000000 -0.980773 0.195074 0.000000 0.921212 0.461820
-0.095671 0.019030 0.490393 -0.197089 0.039186 0.979583 0.142463 0.449272
-0.256640 0.106304 -0.415735 -0.517136 0.214209 -0.828639 0.768652 0.549894
-0.176777 0.073223 -0.461940 -0.358348 0.148412 -0.921690 0.737013 0.549856
-0.426777 0.176777 0.191342 -0.854366 0.353862 0.380535 0.987415 0.505084
-0.453063 0.187665 0.097545 -0.906339 0.375408 0.193915 0.956519 0.514678
-0.090120 0.037329 -0.490393 -0.185644 0.076907 -0.979583 0.705406 0.547887
-0.461940 0.191342 0.000000 -0.923856 0.382672 0.000000 0.925540 0.523720
-0.090120 0.037329 0.490393 -0.185644 0.076907 0.979583 0.142491 0.461446
-0.453063 0.187665 -0.097545 -0.906339 0.375408 -0.193915 0.894437 0.531866
-0.176777 0.073223 0.461940 -0.358348 0.148412 0.921690 0.111247 0.468434
-0.426777 0.176777 -0.191342 -0.854366 0.353862 -0.380535 0.863187 0.538800
-0.256640 0.106304 0.415735 -0.517136 0.214209 0.828639 0.080149 0.476621
-0.384089 0.159095 -0.277785 -0.769890 0.318888 -0.552751 0.831788 0.544251
-0.326641 0.135299 0.353553 -0.656056 0.271737 0.704031 0.049174 0.485691
-0.326641 0.135299 -0.353553 -0.656056 0.271737 -0.704031 0.800262 0.548000
-0.384089 0.159095 0.277785 -0.769890 0.318888 0.552751 0.018281 0.495299
-0.384089 0.159095 0.277785 -0.769890 0.318888 0.552751 1.018281 0.495299
-0.159095 0.106304 0.461940 -0.322489 0.215491 0.921690 0.113773 0.491781
-0.230970 0.154329 0.415735 -0.465407 0.310984 0.828639 0.083947 0.510464
-0.384089 0.256640 -0.191342 -0.768914 0.513749 -0.380535 0.865057 0.596413
-0.345671 0.230970 -0.277785 -0.692892 0.462966 -0.552751 0.832316 0.596182
-0.293969 0.196424 0.353553 -0.590442 0.394513 0.704031 0.054008 0.528781
-0.293969 0.196424 -0.353553 -0.590442 0.394513 -0.704031 0.799710 0.592145
-0.345671 0.230970 0.277785 -0.692892 0.462966 0.552751 0.023765 0.546077
-0.230970 0.154329 -0.415735 -0.465407 0.310984 -0.828639 0.767456 0.584500
-0.345671 0.230970 0.277785 -0.692892 0.462966 0.552751 1.023765 0.546077
-0.384089 0.256640 0.191342 -0.768914 0.513749 0.380535 0.993065 0.561711
-0.159095 0.106304 -0.461940 -0.322489 0.215491 -0.921690 0.735705 0.573602
-0.407746 0.272447 0.097545 -0.815668 0.545000 0.193915 0.961814 0.575073
-0.081106 0.054193 -0.490393 -0.167089 0.111637 -0.979583 0.704523 0.559936
-0.415735 0.277785 0.000000 -0.831446 0.555559 0.000000 0.929998 0.585602
-0.081106 0.054193 0.490393 -0.167089 0.111637 0.979583 0.143688 0.473385
-0.407746 0.272447 -0.097545 -0.815668 0.545000 -0.193915 0.897692 0.592829
-0.326641 0.326641 0.191342 -0.653890 0.653890 0.380535 1.001377 0.617194
-0.346760 0.346760 0.097545 -0.693655 0.693655 0.193915 0.968878 0.634899
-0.135299 0.135299 -0.461940 -0.274270 0.274270 -0.921690 0.732131 0.596471
-0.068975 0.068975 -0.490393 -0.142094 0.142094 -0.979583 0.702462 0.571423
-0.353553 0.353553 0.000000 -0.707083 0.707083 0.000000 0.934967 0.647412
-0.068975 0.068975 0.490393 -0.142094 0.142094 0.979583 0.145998 0.484653
-0.346760 0.346760 -0.097545 -0.693655 0.693655 -0.193915 0.900033 0.653971
-0.135299 0.135299 0.461940 -0.274270 0.274270 0.921690 0.118355 0.513838
-0.326641 0.326641 -0.191342 -0.653890 0.653890 -0.380535 0.864713 0.654139
-0.196424 0.196424 0.415735 -0.395795 0.395795 0.828639 0.090492 0.542605
-0.293969 0.293969 -0.277785 -0.589251 0.589251 -0.552751 0.829742 0.647904
-0.250000 0.250000 0.353553 -0.502121 0.502121 0.704031 0.061961 0.570053
-0.250000 0.250000 -0.353553 -0.502121 0.502121 -0.704031 0.795766 0.635683
-0.293969 0.293969 0.277785 -0.589251 0.589251 0.552751 0.032358 0.595245
-0.196424 0.196424 -0.415735 -0.395795 0.395795 -0.828639 0.763189 0.618225
-0.293969 0.293969 0.277785 -0.589251 0.589251 0.552751 1.032358 0.595245
-0.256640 0.384089 -0.191342 -0.513749 0.768914 -0.380535 0.861551 0.711625
-0.230970 0.345671 -0.277785 -0.462966 0.692892 -0.552751 0.823270 0.698656
-0.154329 0.230970 0.415735 -0.310984 0.465407 0.828639 0.099795 0.572071
-0.196424 0.293969 0.353553 -0.394513 0.590442 0.704031 0.073310 0.608459
-0.196424 0.293969 -0.353553 -0.394513 0.590442 -0.704031 0.787808 0.677561
-0.230970 0.345671 0.277785 -0.462966 0.692892 0.552751 0.044685 0.641848
-0.154329 0.230970 -0.415735 -0.310984 0.465407 -0.828639 0.755557 0.649994
-0.326641 0.326641 0.191342 -0.653890 0.653890 0.380535 0.001377 0.617194
-0.256640 0.384089 0.191342 -0.513749 0.768914 0.380535 0.013257 0.670840
-0.106304 0.159095 -0.461940 -0.215491 0.322489 -0.921690 0.726250 0.617620
-0.256640 0.384089 0.191342 -0.513749 0.768914 0.380535 1.013257 0.670840
-0.272447 0.407746 0.097545 -0.545000 0.815668 0.193915 0.978638 0.693811
-0.054193 0.081106 -0.490393 -0.111637 0.167089 -0.979583 0.699272 0.581902
-0.277785 0.415735 0.000000 -0.555559 0.831446 0.000000 0.941016 0.709072
-0.054193 0.081106 0.490393 -0.111637 0.167089 0.979583 0.149337 0.494834
-0.272447 0.407746 -0.097545 -0.545000 0.815668 -0.193915 0.901410 0.715223
-0.106304 0.159095 0.461940 -0.215491 0.322489 0.921690 0.124887 0.533859
-0.073223 0.176777 -0.461940 -0.148412 0.358348 -0.921690 0.718092 0.636181
-0.037329 0.090120 -0.490393 -0.076907 0.185644 -0.979583 0.695045 0.590952
-0.187665 0.453063 0.097545 -0.375408 0.906339 0.193915 0.992855 0.751147
-0.191342 0.461940 0.000000 -0.382672 0.923856 0.000000 0.949214 0.770430
-0.037329 0.090120 0.490393 -0.076907 0.185644 0.979583 0.153586 0.503554
-0.187665 0.453063 -0.097545 -0.375408 0.906339 -0.193915 0.901485 0.776519
-0.073223 0.176777 0.461940 -0.148412 0.358348 0.921690 0.133218 0.551117
-0.176777 0.426777 -0.191342 -0.353862 0.854366 -0.380535 0.854120 0.768338
-0.106304 0.256640 0.415735 -0.214209 0.517136 0.828639 0.111845 0.597818
-0.159095 0.384089 -0.277785 -0.318888 0.769890 -0.552751 0.811339 0.747310
-0.135299 0.326641 0.353553 -0.271737 0.656056 0.704031 0.088419 0.642707
-0.135299 0.326641 -0.353553 -0.271737 0.656056 -0.704031 0.774867 0.716380
-0.159095 0.384089 0.277785 -0.318888 0.769890 0.552751 0.061702 0.684522
-0.106304 0.256640 -0.415735 -0.214209 0.517136 -0.828639 0.744233 0.678551
-0.176777 0.426777 0.191342 -0.353862 0.854366 0.380535 0.030275 0.721491
-0.176777 0.426777 0.191342 -0.353862 0.854366 0.380535 1.030275 0.721491
-0.081106 0.407746 -0.277785 -0.162572 0.817316 -0.552751 0.791172 0.791927
-0.068975 0.346760 -0.353553 -0.138524 0.696493 -0.704031 0.755709 0.750174
-0.068975 0.346760 0.353553 -0.138524 0.696493 0.704031 0.107575 0.671218
-0.081106 0.407746 0.277785 -0.162572 0.817316 0.552751 0.084577 0.721278
-0.054193 0.272447 -0.415735 -0.109195 0.548997 -0.828639 0.729000 0.702432
-0.090120 0.453064 0.191342 -0.180395 0.906980 0.380535 0.054946 0.767111
-0.037329 0.187665 -0.461940 -0.075655 0.380413 -0.921690 0.707807 0.651283
-0.090120 0.453064 0.191342 -0.180395 0.906980 0.380535 1.054946 0.767111
-0.095671 0.480970 0.097545 -0.191382 0.962157 0.193915 1.015097 0.805499
-0.019030 0.095671 -0.490393 -0.039186 0.197089 -0.979583 0.689929 0.598197
-0.097545 0.490392 0.000000 -0.195074 0.980773 0.000000 0.962053 0.831132
-0.019030 0.095671 0.490393 -0.039186 0.197089 0.979583 0.158592 0.510482
-0.095671 0.480970 -0.097545 -0.191382 0.962157 -0.193915 0.899207 0.837760
-0.037329 0.187665 0.461940 -0.075655 0.380413 0.921690 0.143125 0.564934
-0.090120 0.453064 -0.191342 -0.180395 0.906980 -0.380535 0.839030 0.823217
-0.054193 0.272447 0.415735 -0.109195 0.548997 0.828639 0.126520 0.618747
-0.095671 0.480970 0.097545 -0.191382 0.962157 0.193915 0.015097 0.805499
4 0 1 2 3
3 4 5 6
3 7 8 9
4 10 0 3 11
4 6 12 13 4
4 14 10 11 15
4 16 13 12 17
4 18 14 15 19
4 20 16 17 21
4 22 18 19 23
4 24 20 21 25
4 26 22 23 27
4 28 24 25 29
4 30 26 27 31
4 32 28 29 33
4 8 30 31 9
4 31 27 34 35
4 33 29 36 37
4 9 31 35 38
4 39 33 37 40
3 6 5 41
3 7 9 38
4 11 3 42 43
4 12 6 41 44
4 15 11 43 45
4 17 12 44 46
4 19 15 45 47
4 21 17 46 48
4 23 19 47 49
4 25 21 48 50
4 27 23 49 34
4 29 25 50 36
4 47 45 51 52
4 48 46 53 54
4 49 47 52 55
4 50 48 54 56
4 34 49 55 57
4 36 50 56 58
4 35 34 57 59
4 37 36 58 60
4 38 35 59 61
4 40 37 60 62
3 41 5 63
3 7 38 61
4 43 40 62 64
4 44 41 63 65
4 45 43 64 51
4 46 44 65 53
4 61 59 66 67
4 62 60 68 69
3 63 5 70
3 7 61 67
4 64 62 69 71
4 65 63 70 72
4 51 64 71 73
4 53 65 72 74
4 52 51 73 75
4 54 53 74 76
4 55 52 75 77
4 56 54 76 78
4 57 55 77 79
4 58 56 78 80
4 59 57 79 66
4 60 58 80 68
4 76 74 81 82
4 77 75 83 84
4 78 76 82 85
4 79 77 84 86
4 80 78 85 87
4 66 79 86 88
4 68 80 87 89
4 67 66 88 90
4 69 68 89 91
3 70 5 92
3 7 67 90
4 71 69 91 93
4 72 70 92 94
4 73 71 93 95
4 74 72 94 81
4 75 73 95 83
4 91 89 96 97
3 92 5 98
3 7 90 99
4 93 91 97 100
4 94 92 98 101
4 95 93 100 102
4 81 94 101 103
4 83 95 102 104
4 82 81 103 105
4 84 83 104 106
4 85 82 105 107
4 86 84 106 108
4 87 85 107 109
4 88 86 108 110
4 89 87 109 96
4 90 88 110 99
4 106 104 111 112
4 107 105 113 114
4 108 106 112 115
4 109 107 114 116
4 110 108 115 117
4 96 109 116 118
4 99 110 117 119
4 97 96 118 120
3 98 5 121
3 7 99 119
4 100 97 120 122
4 101 98 121 123
4 102 100 122 124
4 103 101 123 125
4 104 102 124 111
4 105 103 125 113
3 121 5 126
3 7 119 127
4 122 120 128 129
4 123 121 126 130
4 124 122 129 131
4 125 123 130 132
4 111 124 131 133
4 113 125 132 134
4 112 111 133 135
4 114 113 134 136
4 115 112 135 137
4 116 114 136 138
4 117 115 137 139
4 118 116 138 140
4 119 117 139 127
4 120 118 140 128
4 136 134 141 142
4 137 135 143 144
4 138 136 142 145
4 139 137 144 146
4 140 138 145 147
4 127 139 146 148
4 128 140 147 149
3 126 5 150
3 7 127 148
4 129 128 149 151
4 130 126 150 152
4 131 129 151 153
4 132 130 152 154
4 133 131 153 155
4 134 132 154 141
4 135 133 155 143
4 151 149 156 157
4 152 150 158 159
4 153 151 157 160
4 154 152 159 161
4 155 153 160 162
4 141 154 161 163
4 143 155 162 164
4 142 141 163 165
4 144 143 164 166
4 145 142 165 167
4 146 144 166 168
4 147 145 167 169
4 148 146 168 170
4 149 147 169 156
3 150 5 158
3 7 148 170
4 166 164 171 172
4 167 165 173 174
4 168 166 172 175
4 169 167 174 176
4 170 168 175 177
4 156 169 176 178
3 158 5 179
3 7 170 177
4 157 156 178 180
4 159 158 179 181
4 160 157 180 182
4 161 159 181 183
4 162 160 182 184
4 163 161 183 185
4 164 162 184 171
4 165 163 185 173
4 182 180 186 187
4 183 181 188 189
4 184 182 187 190
4 185 183 189 191
4 171 184 190 192
4 173 185 191 193
4 172 171 192 194
4 174 173 193 195
4 175 172 194 196
4 176 174 195 197
4 177 175 196 198
4 178 176 197 199
3 179 5 200
3 7 177 198
4 180 178 199 186
4 181 179 200 188
4 196 194 201 202
4 197 195 203 204
4 198 196 202 205
4 199 197 204 206
3 200 5 207
3 7 198 205
4 186 199 206 208
4 188 200 207 209
4 187 186 208 210
4 189 188 209 211
4 190 187 210 212
4 191 189 211 213
4 192 190 212 214
4 193 191 213 215
4 194 192 214 201
4 195 193 215 203
4 211 209 216 217
4 212 210 218 219
4 213 211 217 220
4 214 212 219 221
4 215 213 220 222
4 201 214 221 223
4 203 215 222 224
4 202 201 223 225
4 204 203 224 226
4 205 202 225 227
4 206 204 226 228
3 207 5 229
3 7 205 227
4 208 206 228 230
4 209 207 229 216
4 210 208 230 218
4 226 224 231 232
4 227 225 233 234
4 228 226 232 235
3 229 5 236
3 7 227 234
4 230 228 235 237
4 216 229 236 238
4 218 230 237 239
4 217 216 238 240
4 219 218 239 241
4 220 217 240 242
4 221 219 241 243
4 222 220 242 244
4 223 221 243 245
4 224 222 244 231
4 225 223 245 233
4 241 239 246 247
4 242 240 248 249
4 243 241 247 250
4 244 242 249 251
4 245 243 250 252
4 231 244 251 253
4 233 245 252 254
4 232 231 253 255
4 234 233 254 256
4 235 232 255 257
3 236 5 258
3 7 234 256
4 237 235 257 259
4 238 236 258 260
4 239 237 259 246
4 240 238 260 248
4 256 254 261 262
4 257 255 263 264
3 258 5 265
3 7 256 262
4 259 257 264 266
4 260 258 265 267
4 246 259 266 268
4 248 260 267 269
4 247 246 268 270
4 249 248 269 271
4 250 247 270 272
4 251 249 271 273
4 252 250 272 274
4 253 251 273 275
4 254 252 274 261
4 255 253 275 263
4 271 269 276 277
4 272 270 278 279
4 273 271 277 280
4 274 272 279 281
4 275 273 280 282
4 261 274 281 283
4 263 275 282 284
4 262 261 283 285
4 264 263 286 287
3 265 5 288
3 7 262 285
4 266 264 287 289
4 267 265 288 290
4 268 266 289 291
4 269 267 290 276
4 270 268 291 278
4 287 286 292 293
3 288 5 294
3 7 285 295
4 289 287 293 296
4 290 288 294 297
4 291 289 296 298
4 276 290 297 299
4 278 291 298 300
4 277 276 299 301
4 279 278 300 302
4 280 277 301 303
4 281 279 302 304
4 282 280 303 305
4 283 281 304 306
4 286 307 308 292
4 285 283 306 295
4 302 300 309 310
4 303 301 311 312
4 304 302 310 313
4 305 303 312 314
4 306 304 313 315
4 292 308 316 317
4 295 306 315 318
4 293 292 317 319
3 294 5 320
3 7 295 318
4 296 293 319 321
4 297 294 320 322
4 298 296 321 323
4 299 297 322 324
4 300 298 323 309
4 301 299 324 311
3 7 318 325
4 321 319 326 327
4 322 320 328 329
4 323 321 327 330
4 324 322 329 331
4 309 323 330 332
4 311 324 331 333
4 310 309 332 334
4 312 311 333 335
4 313 310 334 336
4 316 337 338 339
4 315 313 336 340
4 317 316 339 341
4 318 315 340 325
4 319 317 341 326
3 320 5 328
4 336 334 342 343
4 339 338 344 345
4 340 336 343 346
4 341 339 345 347
4 325 340 346 348
4 326 341 347 349
3 328 5 350
3 7 325 348
4 327 326 349 351
4 329 328 350 352
4 330 327 351 353
4 331 329 352 354
4 332 330 353 355
4 333 331 354 356
4 334 332 355 342
4 335 333 356 357
4 352 350 358 359
4 353 351 360 361
4 354 352 359 362
4 355 353 361 363
4 356 354 362 364
4 342 355 363 365
4 357 356 364 366
4 343 342 365 367
4 345 344 368 369
4 346 343 367 370
4 347 345 369 371
4 348 346 370 372
4 349 347 371 373
3 350 5 358
3 7 348 372
4 351 349 373 360
4 369 368 374 375
4 370 367 376 377
4 371 369 375 378
4 372 370 377 379
4 373 371 378 380
3 358 5 381
3 7 372 379
4 360 373 380 382
4 359 358 381 383
4 361 360 382 384
4 362 359 383 385
4 363 361 384 386
4 364 362 385 387
4 365 363 386 388
4 366 364 387 389
4 367 365 388 376
4 384 382 390 391
4 385 383 392 393
4 386 384 391 394
4 387 385 393 395
4 388 386 394 396
4 389 387 395 397
4 376 388 396 398
4 375 374 399 400
4 377 376 398 401
4 378 375 400 402
4 379 377 401 403
4 380 378 402 404
3 381 5 405
3 7 379 403
4 382 380 404 390
4 383 381 405 392
4 401 398 406 407
4 402 400 408 409
4 403 401 407 410
4 404 402 409 411
3 405 5 412
3 7 403 410
4 390 404 411 413
4 392 405 412 414
4 391 390 413 415
4 393 392 414 416
4 394 391 415 417
4 395 393 416 418
4 396 394 417 419
4 397 395 418 420
4 398 396 419 406
4 400 399 421 408
4 416 414 422 423
4 417 415 424 425
4 418 416 423 426
4 419 417 425 427
4 420 418 426 428
4 406 419 427 429
4 408 421 430 431
4 407 406 429 432
4 409 408 431 433
4 410 407 432 434
4 411 409 433 435
3 412 5 436
3 7 410 434
4 413 411 435 437
4 414 412 436 422
4 415 413 437 424
4 433 431 438 439
4 434 432 440 441
4 435 433 439 442
3 436 5 443
3 7 434 441
4 437 435 442 444
4 422 436 443 445
4 424 437 444 446
4 423 422 445 447
4 425 424 446 448
4 426 423 447 449
4 427 425 448 450
4 428 426 449 451
4 429 427 450 452
4 431 430 453 438
4 432 429 452 440
4 448 446 454 455
4 449 447 456 457
4 450 448 455 458
4 451 449 457 459
4 452 450 458 460
4 461 451 459 462
4 440 452 460 463
4 439 438 464 465
4 441 440 463 466
4 442 439 465 467
3 443 5 468
3 7 441 466
4 444 442 467 469
4 445 443 468 470
4 446 444 469 454
4 447 445 470 456
4 466 463 471 472
4 467 465 473 474
3 468 5 475
3 7 466 472
4 469 467 474 476
4 470 468 475 477
4 454 469 476 478
4 456 470 477 479
4 455 454 478 480
4 457 456 479 481
4 458 455 480 482
4 459 457 481 483
4 460 458 482 484
4 462 459 483 485
4 463 460 484 471
4 465 464 486 473
4 482 480 487 488
4 483 481 489 490
4 484 482 488 491
4 485 483 490 492
4 471 484 491 493
4 473 486 494 495
4 472 471 493 496
4 474 473 495 497
3 475 5 498
3 7 472 496
4 476 474 497 499
4 477 475 498 500
4 478 476 499 501
4 479 477 500 502
4 480 478 501 487
4 481 479 502 489
3 498 5 4
3 7 496 8
4 499 497 0 10
4 500 498 4 13
4 501 499 10 14
4 502 500 13 16
4 487 501 14 18
4 489 502 16 20
4 488 487 18 22
4 490 489 20 24
4 491 488 22 26
4 492 490 24 28
4 493 491 26 30
4 503 492 28 32
4 496 493 30 8
4 497 495 1 0
