ply
format ascii 1.0
comment Created by Blender 2.78 (sub 0) - www.blender.org, source file: ''
element vertex 480
property float x
property float y
property float z
property float nx
property float ny
property float nz
property float s
property float t
element face 128
property list uchar uint vertex_indices
end_header
0.000000 0.191342 -0.461940 0.109841 0.552208 -0.826439 0.695729 0.662120
0.000000 0.353553 -0.353553 0.109841 0.552208 -0.826439 0.729340 0.776239
0.135299 0.326641 -0.353553 0.109841 0.552208 -0.826439 0.659893 0.793024
0.073223 0.176777 -0.461940 0.109841 0.552208 -0.826439 0.668578 0.668672
0.000000 0.461940 -0.191342 0.191481 0.962637 -0.191481 0.807760 0.873551
0.000000 0.500000 -0.000000 0.191481 0.962637 -0.191481 0.987170 0.890057
0.191342 0.461940 -0.000000 0.191481 0.962637 -0.191481 1.253455 0.949881
0.176777 0.426777 -0.191342 0.191481 0.962637 -0.191481 0.631068 0.915854
0.000000 0.461940 0.191342 0.163173 0.820326 0.548124 0.090639 0.804092
0.000000 0.353553 0.353553 0.163173 0.820326 0.548124 0.130681 0.692192
0.135299 0.326641 0.353553 0.163173 0.820326 0.548124 0.184475 0.705142
0.176777 0.426777 0.191342 0.163173 0.820326 0.548124 0.195586 0.829312
0.000000 0.191342 0.461940 0.038777 0.194944 0.980048 0.154287 0.574719
-0.000000 0.000000 0.500000 0.038777 0.194944 0.980048 0.173885 0.455932
0.073223 0.176777 0.461940 0.038777 0.194944 0.980048 0.178614 0.580580
0.000000 0.000000 -0.500000 0.038777 0.194944 -0.980048 0.673885 0.544068
0.000000 0.191342 -0.461940 0.038777 0.194944 -0.980048 0.695729 0.662120
0.073223 0.176777 -0.461940 0.038777 0.194944 -0.980048 0.668578 0.668672
0.000000 0.353553 -0.353553 0.163173 0.820326 -0.548124 0.729340 0.776239
0.000000 0.461940 -0.191342 0.163173 0.820326 -0.548124 0.807760 0.873551
0.176777 0.426777 -0.191342 0.163173 0.820326 -0.548124 0.631068 0.915854
0.135299 0.326641 -0.353553 0.163173 0.820326 -0.548124 0.659893 0.793024
0.000000 0.500000 -0.000000 0.191481 0.962637 0.191481 0.987170 0.890057
0.000000 0.461940 0.191342 0.191481 0.962637 0.191481 1.090639 0.804092
0.176777 0.426777 0.191342 0.191481 0.962637 0.191481 1.195586 0.829312
0.191342 0.461940 -0.000000 0.191481 0.962637 0.191481 1.253455 0.949881
0.000000 0.353553 0.353553 0.109841 0.552209 0.826439 0.130681 0.692192
0.000000 0.191342 0.461940 0.109841 0.552209 0.826439 0.154287 0.574719
0.073223 0.176777 0.461940 0.109841 0.552209 0.826439 0.178614 0.580580
0.135299 0.326641 0.353553 0.109841 0.552209 0.826439 0.184475 0.705142
0.176777 0.426777 0.191342 0.464677 0.695439 0.548124 0.195586 0.829312
0.135299 0.326641 0.353553 0.464677 0.695439 0.548124 0.184475 0.705142
0.250000 0.250000 0.353553 0.464677 0.695439 0.548124 0.235134 0.676860
0.326641 0.326641 0.191342 0.464677 0.695439 0.548124 0.285599 0.776699
0.073223 0.176777 0.461940 0.110427 0.165265 0.980048 0.178614 0.580580
-0.000000 0.000000 0.500000 0.110427 0.165265 0.980048 0.173885 0.455932
0.135299 0.135299 0.461940 0.110427 0.165265 0.980048 0.202136 0.567601
0.000000 0.000000 -0.500000 0.110427 0.165265 -0.980048 0.673885 0.544068
0.073223 0.176777 -0.461940 0.110427 0.165265 -0.980048 0.668578 0.668672
0.135299 0.135299 -0.461940 0.110427 0.165265 -0.980048 0.642640 0.654224
0.135299 0.326641 -0.353553 0.464677 0.695438 -0.548124 0.659893 0.793024
0.176777 0.426777 -0.191342 0.464677 0.695438 -0.548124 0.631068 0.915854
0.326641 0.326641 -0.191342 0.464677 0.695438 -0.548124 0.514096 0.835548
0.250000 0.250000 -0.353553 0.464677 0.695438 -0.548124 0.597557 0.757070
0.191342 0.461940 -0.000000 0.545290 0.816085 0.191481 0.253455 0.949881
0.176777 0.426777 0.191342 0.545290 0.816085 0.191481 0.195586 0.829312
0.326641 0.326641 0.191342 0.545290 0.816085 0.191481 0.285599 0.776699
0.353553 0.353553 -0.000000 0.545290 0.816085 0.191481 0.381459 0.845133
0.135299 0.326641 0.353553 0.312801 0.468140 0.826439 0.184475 0.705142
0.073223 0.176777 0.461940 0.312801 0.468140 0.826439 0.178614 0.580580
0.135299 0.135299 0.461940 0.312801 0.468140 0.826439 0.202136 0.567601
0.250000 0.250000 0.353553 0.312801 0.468140 0.826439 0.235134 0.676860
0.073223 0.176777 -0.461940 0.312801 0.468140 -0.826439 0.668578 0.668672
0.135299 0.326641 -0.353553 0.312801 0.468140 -0.826439 0.659893 0.793024
0.250000 0.250000 -0.353553 0.312801 0.468140 -0.826439 0.597557 0.757070
0.135299 0.135299 -0.461940 0.312801 0.468140 -0.826439 0.642640 0.654224
0.176777 0.426777 -0.191342 0.545290 0.816085 -0.191481 0.631068 0.915854
0.191342 0.461940 -0.000000 0.545290 0.816085 -0.191481 0.253455 0.949881
0.353553 0.353553 -0.000000 0.545290 0.816085 -0.191481 0.381459 0.845133
0.326641 0.326641 -0.191342 0.545290 0.816085 -0.191481 0.514096 0.835548
0.000000 0.000000 -0.500000 0.165265 0.110427 -0.980048 0.673885 0.544068
0.135299 0.135299 -0.461940 0.165265 0.110427 -0.980048 0.642640 0.654224
0.176777 0.073223 -0.461940 0.165265 0.110427 -0.980048 0.623224 0.622221
0.250000 0.250000 -0.353553 0.695439 0.464677 -0.548124 0.597557 0.757070
0.326641 0.326641 -0.191342 0.695439 0.464677 -0.548124 0.514096 0.835548
0.426777 0.176777 -0.191342 0.695439 0.464677 -0.548124 0.487492 0.724969
0.326641 0.135299 -0.353553 0.695439 0.464677 -0.548124 0.562496 0.686965
0.353553 0.353553 -0.000000 0.816084 0.545290 0.191481 0.381459 0.845133
0.326641 0.326641 0.191342 0.816084 0.545290 0.191481 0.285599 0.776699
0.426777 0.176777 0.191342 0.816084 0.545290 0.191481 0.331072 0.682997
0.461940 0.191342 -0.000000 0.816084 0.545290 0.191481 0.405088 0.723441
0.250000 0.250000 0.353553 0.468140 0.312801 0.826439 0.235134 0.676860
0.135299 0.135299 0.461940 0.468140 0.312801 0.826439 0.202136 0.567601
0.176777 0.073223 0.461940 0.468140 0.312801 0.826439 0.221090 0.538164
0.326641 0.135299 0.353553 0.468140 0.312801 0.826439 0.271280 0.616885
0.135299 0.135299 -0.461940 0.468140 0.312801 -0.826439 0.642640 0.654224
0.250000 0.250000 -0.353553 0.468140 0.312801 -0.826439 0.597557 0.757070
0.326641 0.135299 -0.353553 0.468140 0.312801 -0.826439 0.562496 0.686965
0.176777 0.073223 -0.461940 0.468140 0.312801 -0.826439 0.623224 0.622221
0.326641 0.326641 -0.191342 0.816085 0.545290 -0.191481 0.514096 0.835548
0.353553 0.353553 -0.000000 0.816085 0.545290 -0.191481 0.381459 0.845133
0.461940 0.191342 -0.000000 0.816085 0.545290 -0.191481 0.405088 0.723441
0.426777 0.176777 -0.191342 0.816085 0.545290 -0.191481 0.487492 0.724969
0.326641 0.326641 0.191342 0.695439 0.464677 0.548124 0.285599 0.776699
0.250000 0.250000 0.353553 0.695439 0.464677 0.548124 0.235134 0.676860
0.326641 0.135299 0.353553 0.695439 0.464677 0.548124 0.271280 0.616885
0.426777 0.176777 0.191342 0.695439 0.464677 0.548124 0.331072 0.682997
0.135299 0.135299 0.461940 0.165265 0.110427 0.980048 0.202136 0.567601
-0.000000 0.000000 0.500000 0.165265 0.110427 0.980048 0.173885 0.455932
0.176777 0.073223 0.461940 0.165265 0.110427 0.980048 0.221090 0.538164
0.326641 0.135299 0.353553 0.552209 0.109841 0.826439 0.271280 0.616885
0.176777 0.073223 0.461940 0.552209 0.109841 0.826439 0.221090 0.538164
0.191342 0.000000 0.461940 0.552209 0.109841 0.826439 0.233107 0.497077
0.353553 0.000000 0.353553 0.552209 0.109841 0.826439 0.292191 0.538621
0.176777 0.073223 -0.461940 0.552209 0.109841 -0.826439 0.623224 0.622221
0.326641 0.135299 -0.353553 0.552209 0.109841 -0.826439 0.562496 0.686965
0.353553 0.000000 -0.353553 0.552209 0.109841 -0.826439 0.548660 0.602406
0.191342 0.000000 -0.461940 0.552209 0.109841 -0.826439 0.612694 0.579054
0.426777 0.176777 -0.191342 0.962637 0.191480 -0.191480 0.487492 0.724969
0.461940 0.191342 -0.000000 0.962637 0.191480 -0.191480 0.405088 0.723441
0.500000 0.000000 -0.000000 0.962637 0.191480 -0.191480 0.416673 0.600050
0.461940 0.000000 -0.191342 0.962637 0.191480 -0.191480 0.482581 0.609901
0.426777 0.176777 0.191342 0.820326 0.163173 0.548124 0.331072 0.682997
0.326641 0.135299 0.353553 0.820326 0.163173 0.548124 0.271280 0.616885
0.353553 0.000000 0.353553 0.820326 0.163173 0.548124 0.292191 0.538621
0.461940 0.000000 0.191342 0.820326 0.163173 0.548124 0.353026 0.574796
0.176777 0.073223 0.461940 0.194944 0.038777 0.980048 0.221090 0.538164
-0.000000 0.000000 0.500000 0.194944 0.038777 0.980048 0.173885 0.455932
0.191342 0.000000 0.461940 0.194944 0.038777 0.980048 0.233107 0.497077
0.000000 0.000000 -0.500000 0.194944 0.038777 -0.980048 0.673885 0.544068
0.176777 0.073223 -0.461940 0.194944 0.038777 -0.980048 0.623224 0.622221
0.191342 0.000000 -0.461940 0.194944 0.038777 -0.980048 0.612694 0.579054
0.326641 0.135299 -0.353553 0.820326 0.163173 -0.548125 0.562496 0.686965
0.426777 0.176777 -0.191342 0.820326 0.163173 -0.548125 0.487492 0.724969
0.461940 0.000000 -0.191342 0.820326 0.163173 -0.548125 0.482581 0.609901
0.353553 0.000000 -0.353553 0.820326 0.163173 -0.548125 0.548660 0.602406
0.461940 0.191342 -0.000000 0.962637 0.191480 0.191480 0.405088 0.723441
0.426777 0.176777 0.191342 0.962637 0.191480 0.191480 0.331072 0.682997
0.461940 0.000000 0.191342 0.962637 0.191480 0.191480 0.353026 0.574796
0.500000 0.000000 -0.000000 0.962637 0.191480 0.191480 0.416673 0.600050
0.191342 0.000000 -0.461940 0.552208 -0.109841 -0.826438 0.612694 0.579054
0.353553 0.000000 -0.353553 0.552208 -0.109841 -0.826438 0.548660 0.602406
0.326641 -0.135299 -0.353553 0.552208 -0.109841 -0.826438 0.549174 0.514309
0.176777 -0.073223 -0.461940 0.552208 -0.109841 -0.826438 0.611247 0.531566
0.461940 0.000000 -0.191342 0.962637 -0.191481 -0.191480 0.482581 0.609901
0.500000 0.000000 -0.000000 0.962637 -0.191481 -0.191480 0.416673 0.600050
0.461940 -0.191342 -0.000000 0.962637 -0.191481 -0.191480 0.425540 0.476280
0.426777 -0.176777 -0.191342 0.962637 -0.191481 -0.191480 0.487415 0.494916
0.461940 0.000000 0.191342 0.820326 -0.163173 0.548124 0.353026 0.574796
0.353553 0.000000 0.353553 0.820326 -0.163173 0.548124 0.292191 0.538621
0.326641 -0.135299 0.353553 0.820326 -0.163173 0.548124 0.300262 0.452000
0.426777 -0.176777 0.191342 0.820326 -0.163173 0.548124 0.363187 0.461200
0.191342 0.000000 0.461940 0.194944 -0.038777 0.980048 0.233107 0.497077
-0.000000 0.000000 0.500000 0.194944 -0.038777 0.980048 0.173885 0.455932
0.176777 -0.073223 0.461940 0.194944 -0.038777 0.980048 0.237013 0.450144
0.000000 0.000000 -0.500000 0.194944 -0.038777 -0.980048 0.673885 0.544068
0.191342 0.000000 -0.461940 0.194944 -0.038777 -0.980048 0.612694 0.579054
0.176777 -0.073223 -0.461940 0.194944 -0.038777 -0.980048 0.611247 0.531566
0.353553 0.000000 -0.353553 0.820325 -0.163173 -0.548125 0.548660 0.602406
0.461940 0.000000 -0.191342 0.820325 -0.163173 -0.548125 0.482581 0.609901
0.426777 -0.176777 -0.191342 0.820325 -0.163173 -0.548125 0.487415 0.494916
0.326641 -0.135299 -0.353553 0.820325 -0.163173 -0.548125 0.549174 0.514309
0.500000 0.000000 -0.000000 0.962637 -0.191481 0.191480 0.416673 0.600050
0.461940 0.000000 0.191342 0.962637 -0.191481 0.191480 0.353026 0.574796
0.426777 -0.176777 0.191342 0.962637 -0.191481 0.191480 0.363187 0.461200
0.461940 -0.191342 -0.000000 0.962637 -0.191481 0.191480 0.425540 0.476280
0.353553 0.000000 0.353553 0.552208 -0.109841 0.826439 0.292191 0.538621
0.191342 0.000000 0.461940 0.552208 -0.109841 0.826439 0.233107 0.497077
0.176777 -0.073223 0.461940 0.552208 -0.109841 0.826439 0.237013 0.450144
0.326641 -0.135299 0.353553 0.552208 -0.109841 0.826439 0.300262 0.452000
0.176777 -0.073223 0.461940 0.165265 -0.110427 0.980048 0.237013 0.450144
-0.000000 0.000000 0.500000 0.165265 -0.110427 0.980048 0.173885 0.455932
0.135299 -0.135299 0.461940 0.165265 -0.110427 0.980048 0.232131 0.403529
0.000000 0.000000 -0.500000 0.165265 -0.110427 -0.980048 0.673885 0.544068
0.176777 -0.073223 -0.461940 0.165265 -0.110427 -0.980048 0.611247 0.531566
0.135299 -0.135299 -0.461940 0.165265 -0.110427 -0.980048 0.618355 0.486162
0.326641 -0.135299 -0.353553 0.695438 -0.464677 -0.548125 0.549174 0.514309
0.426777 -0.176777 -0.191342 0.695438 -0.464677 -0.548125 0.487415 0.494916
0.326641 -0.326641 -0.191342 0.695438 -0.464677 -0.548125 0.501377 0.382805
0.250000 -0.250000 -0.353553 0.695438 -0.464677 -0.548125 0.561961 0.429947
0.461940 -0.191342 -0.000000 0.816084 -0.545291 0.191480 0.425540 0.476280
0.426777 -0.176777 0.191342 0.816084 -0.545291 0.191480 0.363187 0.461200
0.326641 -0.326641 0.191342 0.816084 -0.545291 0.191480 0.364713 0.345861
0.353553 -0.353553 -0.000000 0.816084 -0.545291 0.191480 0.434967 0.352588
0.326641 -0.135299 0.353553 0.468140 -0.312801 0.826438 0.300262 0.452000
0.176777 -0.073223 0.461940 0.468140 -0.312801 0.826438 0.237013 0.450144
0.135299 -0.135299 0.461940 0.468140 -0.312801 0.826438 0.232131 0.403529
0.250000 -0.250000 0.353553 0.468140 -0.312801 0.826438 0.295766 0.364317
0.176777 -0.073223 -0.461940 0.468140 -0.312801 -0.826439 0.611247 0.531566
0.326641 -0.135299 -0.353553 0.468140 -0.312801 -0.826439 0.549174 0.514309
0.250000 -0.250000 -0.353553 0.468140 -0.312801 -0.826439 0.561961 0.429947
0.135299 -0.135299 -0.461940 0.468140 -0.312801 -0.826439 0.618355 0.486162
0.426777 -0.176777 -0.191342 0.816084 -0.545290 -0.191480 0.487415 0.494916
0.461940 -0.191342 -0.000000 0.816084 -0.545290 -0.191480 0.425540 0.476280
0.353553 -0.353553 -0.000000 0.816084 -0.545290 -0.191480 0.434967 0.352588
0.326641 -0.326641 -0.191342 0.816084 -0.545290 -0.191480 0.501377 0.382805
0.426777 -0.176777 0.191342 0.695438 -0.464677 0.548124 0.363187 0.461200
0.326641 -0.135299 0.353553 0.695438 -0.464677 0.548124 0.300262 0.452000
0.250000 -0.250000 0.353553 0.695438 -0.464677 0.548124 0.295766 0.364317
0.326641 -0.326641 0.191342 0.695438 -0.464677 0.548124 0.364713 0.345861
0.250000 -0.250000 -0.353553 0.464677 -0.695439 -0.548124 0.561961 0.429947
0.326641 -0.326641 -0.191342 0.464677 -0.695439 -0.548124 0.501377 0.382805
0.176777 -0.426777 -0.191342 0.464677 -0.695439 -0.548124 0.530275 0.278509
0.135299 -0.326641 -0.353553 0.464677 -0.695439 -0.548124 0.588419 0.357293
0.353553 -0.353553 -0.000000 0.545290 -0.816085 0.191480 0.434967 0.352588
0.326641 -0.326641 0.191342 0.545290 -0.816085 0.191480 0.364713 0.345861
0.176777 -0.426777 0.191342 0.545290 -0.816085 0.191480 0.354120 0.231662
0.191342 -0.461940 -0.000000 0.545290 -0.816085 0.191480 0.449214 0.229570
0.250000 -0.250000 0.353553 0.312801 -0.468140 0.826438 0.295766 0.364317
0.135299 -0.135299 0.461940 0.312801 -0.468140 0.826438 0.232131 0.403529
0.073223 -0.176777 0.461940 0.312801 -0.468140 0.826438 0.218092 0.363819
0.135299 -0.326641 0.353553 0.312801 -0.468140 0.826438 0.274867 0.283620
0.135299 -0.135299 -0.461940 0.312801 -0.468140 -0.826438 0.618355 0.486162
0.250000 -0.250000 -0.353553 0.312801 -0.468140 -0.826438 0.561961 0.429947
0.135299 -0.326641 -0.353553 0.312801 -0.468140 -0.826438 0.588419 0.357293
0.073223 -0.176777 -0.461940 0.312801 -0.468140 -0.826438 0.633218 0.448883
0.326641 -0.326641 -0.191342 0.545290 -0.816085 -0.191480 0.501377 0.382805
0.353553 -0.353553 -0.000000 0.545290 -0.816085 -0.191480 0.434967 0.352588
0.191342 -0.461940 -0.000000 0.545290 -0.816085 -0.191480 0.449214 0.229570
0.176777 -0.426777 -0.191342 0.545290 -0.816085 -0.191480 0.530275 0.278509
0.326641 -0.326641 0.191342 0.464677 -0.695439 0.548124 0.364713 0.345861
0.250000 -0.250000 0.353553 0.464677 -0.695439 0.548124 0.295766 0.364317
0.135299 -0.326641 0.353553 0.464677 -0.695439 0.548124 0.274867 0.283620
0.176777 -0.426777 0.191342 0.464677 -0.695439 0.548124 0.354120 0.231662
0.135299 -0.135299 0.461940 0.110427 -0.165265 0.980048 0.232131 0.403529
-0.000000 0.000000 0.500000 0.110427 -0.165265 0.980048 0.173885 0.455932
0.073223 -0.176777 0.461940 0.110427 -0.165265 0.980048 0.218092 0.363819
0.000000 0.000000 -0.500000 0.110427 -0.165265 -0.980048 0.673885 0.544068
0.135299 -0.135299 -0.461940 0.110427 -0.165265 -0.980048 0.618355 0.486162
0.073223 -0.176777 -0.461940 0.110427 -0.165265 -0.980048 0.633218 0.448883
0.073223 -0.176777 -0.461940 0.109841 -0.552209 -0.826438 0.633218 0.448883
0.135299 -0.326641 -0.353553 0.109841 -0.552209 -0.826438 0.588419 0.357293
-0.000000 -0.353553 -0.353553 0.109841 -0.552209 -0.826438 0.630681 0.307808
-0.000000 -0.191342 -0.461940 0.109841 -0.552209 -0.826438 0.654287 0.425281
0.176777 -0.426777 -0.191342 0.191480 -0.962637 -0.191480 0.530275 0.278509
0.191342 -0.461940 -0.000000 0.191480 -0.962637 -0.191480 0.449214 0.229570
-0.000000 -0.500000 -0.000000 0.191480 -0.962637 -0.191480 0.487170 0.109943
-0.000000 -0.461940 -0.191342 0.191480 -0.962637 -0.191480 0.590639 0.195908
0.176777 -0.426777 0.191342 0.163173 -0.820326 0.548124 0.354120 0.231662
0.135299 -0.326641 0.353553 0.163173 -0.820326 0.548124 0.274867 0.283620
-0.000000 -0.353553 0.353553 0.163173 -0.820326 0.548124 0.229340 0.223761
-0.000000 -0.461940 0.191342 0.163173 -0.820326 0.548124 0.307760 0.126449
0.073223 -0.176777 0.461940 0.038777 -0.194944 0.980048 0.218092 0.363819
-0.000000 0.000000 0.500000 0.038777 -0.194944 0.980048 0.173885 0.455932
-0.000000 -0.191342 0.461940 0.038777 -0.194944 0.980048 0.195729 0.337880
0.000000 0.000000 -0.500000 0.038777 -0.194944 -0.980048 0.673885 0.544068
0.073223 -0.176777 -0.461940 0.038777 -0.194944 -0.980048 0.633218 0.448883
-0.000000 -0.191342 -0.461940 0.038777 -0.194944 -0.980048 0.654287 0.425281
0.135299 -0.326641 -0.353553 0.163173 -0.820326 -0.548124 0.588419 0.357293
0.176777 -0.426777 -0.191342 0.163173 -0.820326 -0.548124 0.530275 0.278509
-0.000000 -0.461940 -0.191342 0.163173 -0.820326 -0.548124 0.590639 0.195908
-0.000000 -0.353553 -0.353553 0.163173 -0.820326 -0.548124 0.630681 0.307808
0.191342 -0.461940 -0.000000 0.191480 -0.962637 0.191480 0.449214 0.229570
0.176777 -0.426777 0.191342 0.191480 -0.962637 0.191480 0.354120 0.231662
-0.000000 -0.461940 0.191342 0.191480 -0.962637 0.191480 0.307760 0.126449
-0.000000 -0.500000 -0.000000 0.191480 -0.962637 0.191480 0.487170 0.109943
0.135299 -0.326641 0.353553 0.109841 -0.552209 0.826438 0.274867 0.283620
0.073223 -0.176777 0.461940 0.109841 -0.552209 0.826438 0.218092 0.363819
-0.000000 -0.191342 0.461940 0.109841 -0.552209 0.826438 0.195729 0.337880
-0.000000 -0.353553 0.353553 0.109841 -0.552209 0.826438 0.229340 0.223761
-0.000000 -0.461940 -0.191342 -0.191481 -0.962637 -0.191480 0.590639 0.195908
-0.000000 -0.500000 -0.000000 -0.191481 -0.962637 -0.191480 0.487170 0.109943
-0.191342 -0.461940 -0.000000 -0.191481 -0.962637 -0.191480 0.753455 0.050119
-0.176777 -0.426777 -0.191342 -0.191481 -0.962637 -0.191480 0.695586 0.170688
-0.000000 -0.461940 0.191342 -0.163173 -0.820326 0.548124 0.307760 0.126449
-0.000000 -0.353553 0.353553 -0.163173 -0.820326 0.548124 0.229340 0.223761
-0.135299 -0.326641 0.353553 -0.163173 -0.820326 0.548124 0.159893 0.206976
-0.176777 -0.426777 0.191342 -0.163173 -0.820326 0.548124 0.131068 0.084146
-0.000000 -0.191342 0.461940 -0.038777 -0.194944 0.980048 0.195729 0.337880
-0.000000 0.000000 0.500000 -0.038777 -0.194944 0.980048 0.173885 0.455932
-0.073223 -0.176777 0.461940 -0.038777 -0.194944 0.980048 0.168578 0.331328
0.000000 0.000000 -0.500000 -0.038777 -0.194944 -0.980048 0.673885 0.544068
-0.000000 -0.191342 -0.461940 -0.038777 -0.194944 -0.980048 0.654287 0.425281
-0.073223 -0.176777 -0.461940 -0.038777 -0.194944 -0.980048 0.678614 0.419421
-0.000000 -0.353553 -0.353553 -0.163173 -0.820326 -0.548124 0.630681 0.307808
-0.000000 -0.461940 -0.191342 -0.163173 -0.820326 -0.548124 0.590639 0.195908
-0.176777 -0.426777 -0.191342 -0.163173 -0.820326 -0.548124 0.695586 0.170688
-0.135299 -0.326641 -0.353553 -0.163173 -0.820326 -0.548124 0.684475 0.294858
-0.000000 -0.500000 -0.000000 -0.191481 -0.962637 0.191480 0.487170 0.109943
-0.000000 -0.461940 0.191342 -0.191481 -0.962637 0.191480 0.307760 0.126449
-0.176777 -0.426777 0.191342 -0.191481 -0.962637 0.191480 1.131068 0.084146
-0.191342 -0.461940 -0.000000 -0.191481 -0.962637 0.191480 0.753455 0.050119
-0.000000 -0.353553 0.353553 -0.109841 -0.552209 0.826439 0.229340 0.223761
-0.000000 -0.191342 0.461940 -0.109841 -0.552209 0.826439 0.195729 0.337880
-0.073223 -0.176777 0.461940 -0.109841 -0.552209 0.826439 0.168578 0.331328
-0.135299 -0.326641 0.353553 -0.109841 -0.552209 0.826439 0.159893 0.206976
-0.000000 -0.191342 -0.461940 -0.109841 -0.552209 -0.826438 0.654287 0.425281
-0.000000 -0.353553 -0.353553 -0.109841 -0.552209 -0.826438 0.630681 0.307808
-0.135299 -0.326641 -0.353553 -0.109841 -0.552209 -0.826438 0.684475 0.294858
-0.073223 -0.176777 -0.461940 -0.109841 -0.552209 -0.826438 0.678614 0.419421
0.000000 0.000000 -0.500000 -0.110427 -0.165265 -0.980048 0.673885 0.544068
-0.073223 -0.176777 -0.461940 -0.110427 -0.165265 -0.980048 0.678614 0.419421
-0.135299 -0.135299 -0.461940 -0.110427 -0.165265 -0.980048 0.702136 0.432400
-0.135299 -0.326641 -0.353553 -0.464677 -0.695438 -0.548124 0.684475 0.294858
-0.176777 -0.426777 -0.191342 -0.464677 -0.695438 -0.548124 0.695586 0.170688
-0.326641 -0.326641 -0.191342 -0.464677 -0.695438 -0.548124 0.785599 0.223301
-0.250000 -0.250000 -0.353553 -0.464677 -0.695438 -0.548124 0.735134 0.323140
-0.191342 -0.461940 -0.000000 -0.545291 -0.816084 0.191480 0.753455 0.050119
-0.176777 -0.426777 0.191342 -0.545291 -0.816084 0.191480 1.131068 0.084146
-0.326641 -0.326641 0.191342 -0.545291 -0.816084 0.191480 1.014096 0.164452
-0.353554 -0.353553 -0.000000 -0.545291 -0.816084 0.191480 0.881459 0.154868
-0.135299 -0.326641 0.353553 -0.312801 -0.468140 0.826438 0.159893 0.206976
-0.073223 -0.176777 0.461940 -0.312801 -0.468140 0.826438 0.168578 0.331328
-0.135299 -0.135299 0.461940 -0.312801 -0.468140 0.826438 0.142640 0.345776
-0.250000 -0.250000 0.353553 -0.312801 -0.468140 0.826438 0.097557 0.242930
-0.073223 -0.176777 -0.461940 -0.312801 -0.468140 -0.826438 0.678614 0.419421
-0.135299 -0.326641 -0.353553 -0.312801 -0.468140 -0.826438 0.684475 0.294858
-0.250000 -0.250000 -0.353553 -0.312801 -0.468140 -0.826438 0.735134 0.323140
-0.135299 -0.135299 -0.461940 -0.312801 -0.468140 -0.826438 0.702136 0.432400
-0.176777 -0.426777 -0.191342 -0.545291 -0.816084 -0.191480 0.695586 0.170688
-0.191342 -0.461940 -0.000000 -0.545291 -0.816084 -0.191480 0.753455 0.050119
-0.353554 -0.353553 -0.000000 -0.545291 -0.816084 -0.191480 0.881459 0.154868
-0.326641 -0.326641 -0.191342 -0.545291 -0.816084 -0.191480 0.785599 0.223301
-0.176777 -0.426777 0.191342 -0.464678 -0.695438 0.548124 0.131068 0.084146
-0.135299 -0.326641 0.353553 -0.464678 -0.695438 0.548124 0.159893 0.206976
-0.250000 -0.250000 0.353553 -0.464678 -0.695438 0.548124 0.097557 0.242930
-0.326641 -0.326641 0.191342 -0.464678 -0.695438 0.548124 0.014096 0.164452
-0.073223 -0.176777 0.461940 -0.110427 -0.165265 0.980048 0.168578 0.331328
-0.000000 0.000000 0.500000 -0.110427 -0.165265 0.980048 0.173885 0.455932
-0.135299 -0.135299 0.461940 -0.110427 -0.165265 0.980048 0.142640 0.345776
-0.353554 -0.353553 -0.000000 -0.816085 -0.545290 0.191480 0.881459 0.154868
-0.326641 -0.326641 0.191342 -0.816085 -0.545290 0.191480 1.014096 0.164452
-0.426777 -0.176776 0.191342 -0.816085 -0.545290 0.191480 0.987492 0.275031
-0.461940 -0.191341 -0.000000 -0.816085 -0.545290 0.191480 0.905088 0.276559
-0.250000 -0.250000 0.353553 -0.468140 -0.312801 0.826438 0.097557 0.242930
-0.135299 -0.135299 0.461940 -0.468140 -0.312801 0.826438 0.142640 0.345776
-0.176777 -0.073223 0.461940 -0.468140 -0.312801 0.826438 0.123224 0.377780
-0.326641 -0.135299 0.353553 -0.468140 -0.312801 0.826438 0.062496 0.313035
-0.135299 -0.135299 -0.461940 -0.468140 -0.312801 -0.826439 0.702136 0.432400
-0.250000 -0.250000 -0.353553 -0.468140 -0.312801 -0.826439 0.735134 0.323140
-0.326641 -0.135299 -0.353553 -0.468140 -0.312801 -0.826439 0.771280 0.383115
-0.176777 -0.073223 -0.461940 -0.468140 -0.312801 -0.826439 0.721090 0.461836
-0.326641 -0.326641 -0.191342 -0.816085 -0.545290 -0.191480 0.785599 0.223301
-0.353554 -0.353553 -0.000000 -0.816085 -0.545290 -0.191480 0.881459 0.154868
-0.461940 -0.191341 -0.000000 -0.816085 -0.545290 -0.191480 0.905088 0.276559
-0.426777 -0.176776 -0.191342 -0.816085 -0.545290 -0.191480 0.831072 0.317003
-0.326641 -0.326641 0.191342 -0.695439 -0.464677 0.548124 1.014096 0.164452
-0.250000 -0.250000 0.353553 -0.695439 -0.464677 0.548124 1.097557 0.242930
-0.326641 -0.135299 0.353553 -0.695439 -0.464677 0.548124 1.062496 0.313035
-0.426777 -0.176776 0.191342 -0.695439 -0.464677 0.548124 0.987492 0.275031
-0.135299 -0.135299 0.461940 -0.165265 -0.110427 0.980048 0.142640 0.345776
-0.000000 0.000000 0.500000 -0.165265 -0.110427 0.980048 0.173885 0.455932
-0.176777 -0.073223 0.461940 -0.165265 -0.110427 0.980048 0.123224 0.377780
0.000000 0.000000 -0.500000 -0.165265 -0.110427 -0.980048 0.673885 0.544068
-0.135299 -0.135299 -0.461940 -0.165265 -0.110427 -0.980048 0.702136 0.432400
-0.176777 -0.073223 -0.461940 -0.165265 -0.110427 -0.980048 0.721090 0.461836
-0.250000 -0.250000 -0.353553 -0.695439 -0.464677 -0.548124 0.735134 0.323140
-0.326641 -0.326641 -0.191342 -0.695439 -0.464677 -0.548124 0.785599 0.223301
-0.426777 -0.176776 -0.191342 -0.695439 -0.464677 -0.548124 0.831072 0.317003
-0.326641 -0.135299 -0.353553 -0.695439 -0.464677 -0.548124 0.771280 0.383115
-0.176777 -0.073223 -0.461940 -0.552209 -0.109841 -0.826438 0.721090 0.461836
-0.326641 -0.135299 -0.353553 -0.552209 -0.109841 -0.826438 0.771280 0.383115
-0.353553 0.000000 -0.353553 -0.552209 -0.109841 -0.826438 0.792191 0.461380
-0.191342 0.000000 -0.461940 -0.552209 -0.109841 -0.826438 0.733107 0.502923
-0.426777 -0.176776 -0.191342 -0.962637 -0.191480 -0.191480 0.831072 0.317003
-0.461940 -0.191341 -0.000000 -0.962637 -0.191480 -0.191480 0.905088 0.276559
-0.500000 0.000000 -0.000000 -0.962637 -0.191480 -0.191480 0.916673 0.399950
-0.461940 0.000000 -0.191342 -0.962637 -0.191480 -0.191480 0.853026 0.425204
-0.426777 -0.176776 0.191342 -0.820326 -0.163173 0.548124 0.987492 0.275031
-0.326641 -0.135299 0.353553 -0.820326 -0.163173 0.548124 1.062496 0.313035
-0.353553 0.000000 0.353553 -0.820326 -0.163173 0.548124 1.048660 0.397595
-0.461940 0.000000 0.191342 -0.820326 -0.163173 0.548124 0.982581 0.390100
-0.176777 -0.073223 0.461940 -0.194944 -0.038777 0.980048 0.123224 0.377780
-0.000000 0.000000 0.500000 -0.194944 -0.038777 0.980048 0.173885 0.455932
-0.191342 0.000000 0.461940 -0.194944 -0.038777 0.980048 0.112694 0.420946
0.000000 0.000000 -0.500000 -0.194944 -0.038777 -0.980048 0.673885 0.544068
-0.176777 -0.073223 -0.461940 -0.194944 -0.038777 -0.980048 0.721090 0.461836
-0.191342 0.000000 -0.461940 -0.194944 -0.038777 -0.980048 0.733107 0.502923
-0.326641 -0.135299 -0.353553 -0.820326 -0.163173 -0.548124 0.771280 0.383115
-0.426777 -0.176776 -0.191342 -0.820326 -0.163173 -0.548124 0.831072 0.317003
-0.461940 0.000000 -0.191342 -0.820326 -0.163173 -0.548124 0.853026 0.425204
-0.353553 0.000000 -0.353553 -0.820326 -0.163173 -0.548124 0.792191 0.461380
-0.461940 -0.191341 -0.000000 -0.962637 -0.191480 0.191480 0.905088 0.276559
-0.426777 -0.176776 0.191342 -0.962637 -0.191480 0.191480 0.987492 0.275031
-0.461940 0.000000 0.191342 -0.962637 -0.191480 0.191480 0.982581 0.390100
-0.500000 0.000000 -0.000000 -0.962637 -0.191480 0.191480 0.916673 0.399950
-0.326641 -0.135299 0.353553 -0.552209 -0.109841 0.826439 0.062496 0.313035
-0.176777 -0.073223 0.461940 -0.552209 -0.109841 0.826439 0.123224 0.377780
-0.191342 0.000000 0.461940 -0.552209 -0.109841 0.826439 0.112694 0.420946
-0.353553 0.000000 0.353553 -0.552209 -0.109841 0.826439 0.048660 0.397595
-0.461940 0.000000 0.191342 -0.820326 0.163173 0.548124 0.982581 0.390100
-0.353553 0.000000 0.353553 -0.820326 0.163173 0.548124 1.048660 0.397595
-0.326641 0.135299 0.353553 -0.820326 0.163173 0.548124 1.049174 0.485691
-0.426777 0.176777 0.191342 -0.820326 0.163173 0.548124 0.987415 0.505084
-0.191342 0.000000 0.461940 -0.194944 0.038777 0.980048 0.112694 0.420946
-0.000000 0.000000 0.500000 -0.194944 0.038777 0.980048 0.173885 0.455932
-0.176777 0.073223 0.461940 -0.194944 0.038777 0.980048 0.111247 0.468434
0.000000 0.000000 -0.500000 -0.194944 0.038777 -0.980048 0.673885 0.544068
-0.191342 0.000000 -0.461940 -0.194944 0.038777 -0.980048 0.733107 0.502923
-0.176777 0.073223 -0.461940 -0.194944 0.038777 -0.980048 0.737013 0.549856
-0.353553 0.000000 -0.353553 -0.820326 0.163173 -0.548124 0.792191 0.461380
-0.461940 0.000000 -0.191342 -0.820326 0.163173 -0.548124 0.853026 0.425204
-0.426777 0.176777 -0.191342 -0.820326 0.163173 -0.548124 0.863187 0.538800
-0.326641 0.135299 -0.353553 -0.820326 0.163173 -0.548124 0.800262 0.548000
-0.500000 0.000000 -0.000000 -0.962637 0.191481 0.191480 0.916673 0.399950
-0.461940 0.000000 0.191342 -0.962637 0.191481 0.191480 0.982581 0.390100
-0.426777 0.176777 0.191342 -0.962637 0.191481 0.191480 0.987415 0.505084
-0.461940 0.191342 -0.000000 -0.962637 0.191481 0.191480 0.925540 0.523720
-0.353553 0.000000 0.353553 -0.552209 0.109841 0.826439 0.048660 0.397595
-0.191342 0.000000 0.461940 -0.552209 0.109841 0.826439 0.112694 0.420946
-0.176777 0.073223 0.461940 -0.552209 0.109841 0.826439 0.111247 0.468434
-0.326641 0.135299 0.353553 -0.552209 0.109841 0.826439 0.049174 0.485691
-0.191342 0.000000 -0.461940 -0.552209 0.109841 -0.826439 0.733107 0.502923
-0.353553 0.000000 -0.353553 -0.552209 0.109841 -0.826439 0.792191 0.461380
-0.326641 0.135299 -0.353553 -0.552209 0.109841 -0.826439 0.800262 0.548000
-0.176777 0.073223 -0.461940 -0.552209 0.109841 -0.826439 0.737013 0.549856
-0.461940 0.000000 -0.191342 -0.962637 0.191481 -0.191480 0.853026 0.425204
-0.500000 0.000000 -0.000000 -0.962637 0.191481 -0.191480 0.916673 0.399950
-0.461940 0.191342 -0.000000 -0.962637 0.191481 -0.191480 0.925540 0.523720
-0.426777 0.176777 -0.191342 -0.962637 0.191481 -0.191480 0.863187 0.538800
0.000000 0.000000 -0.500000 -0.165265 0.110427 -0.980048 0.673885 0.544068
-0.176777 0.073223 -0.461940 -0.165265 0.110427 -0.980048 0.737013 0.549856
-0.135299 0.135299 -0.461940 -0.165265 0.110427 -0.980048 0.732131 0.596471
-0.326641 0.135299 -0.353553 -0.695438 0.464678 -0.548124 0.800262 0.548000
-0.426777 0.176777 -0.191342 -0.695438 0.464678 -0.548124 0.863187 0.538800
-0.326641 0.326641 -0.191342 -0.695438 0.464678 -0.548124 0.864713 0.654139
-0.250000 0.250000 -0.353553 -0.695438 0.464678 -0.548124 0.795766 0.635683
-0.461940 0.191342 -0.000000 -0.816084 0.545291 0.191480 0.925540 0.523720
-0.426777 0.176777 0.191342 -0.816084 0.545291 0.191480 0.987415 0.505084
-0.326641 0.326641 0.191342 -0.816084 0.545291 0.191480 1.001377 0.617195
-0.353553 0.353554 -0.000000 -0.816084 0.545291 0.191480 0.934967 0.647412
-0.326641 0.135299 0.353553 -0.468140 0.312801 0.826438 0.049174 0.485691
-0.176777 0.073223 0.461940 -0.468140 0.312801 0.826438 0.111247 0.468434
-0.135299 0.135299 0.461940 -0.468140 0.312801 0.826438 0.118355 0.513838
-0.250000 0.250000 0.353553 -0.468140 0.312801 0.826438 0.061961 0.570053
-0.176777 0.073223 -0.461940 -0.468140 0.312801 -0.826439 0.737013 0.549856
-0.326641 0.135299 -0.353553 -0.468140 0.312801 -0.826439 0.800262 0.548000
-0.250000 0.250000 -0.353553 -0.468140 0.312801 -0.826439 0.795766 0.635683
-0.135299 0.135299 -0.461940 -0.468140 0.312801 -0.826439 0.732131 0.596471
-0.426777 0.176777 -0.191342 -0.816084 0.545291 -0.191480 0.863187 0.538800
-0.461940 0.191342 -0.000000 -0.816084 0.545291 -0.191480 0.925540 0.523720
-0.353553 0.353554 -0.000000 -0.816084 0.545291 -0.191480 0.934967 0.647412
-0.326641 0.326641 -0.191342 -0.816084 0.545291 -0.191480 0.864713 0.654139
-0.426777 0.176777 0.191342 -0.695438 0.464678 0.548124 0.987415 0.505084
-0.326641 0.135299 0.353553 -0.695438 0.464678 0.548124 1.049174 0.485691
-0.250000 0.250000 0.353553 -0.695438 0.464678 0.548124 1.061961 0.570053
-0.326641 0.326641 0.191342 -0.695438 0.464678 0.548124 1.001377 0.617195
-0.176777 0.073223 0.461940 -0.165265 0.110427 0.980048 0.111247 0.468434
-0.000000 0.000000 0.500000 -0.165265 0.110427 0.980048 0.173885 0.455932
-0.135299 0.135299 0.461940 -0.165265 0.110427 0.980048 0.118355 0.513838
-0.250000 0.250000 0.353553 -0.312801 0.468140 0.826438 0.061961 0.570053
-0.135299 0.135299 0.461940 -0.312801 0.468140 0.826438 0.118355 0.513838
-0.073223 0.176777 0.461940 -0.312801 0.468140 0.826438 0.133218 0.551117
-0.135299 0.326641 0.353553 -0.312801 0.468140 0.826438 0.088419 0.642707
-0.135299 0.135299 -0.461940 -0.312801 0.468140 -0.826438 0.732131 0.596471
-0.250000 0.250000 -0.353553 -0.312801 0.468140 -0.826438 0.795766 0.635683
-0.135299 0.326641 -0.353553 -0.312801 0.468140 -0.826438 0.774867 0.716381
-0.073223 0.176777 -0.461940 -0.312801 0.468140 -0.826438 0.718092 0.636181
-0.326641 0.326641 -0.191342 -0.545290 0.816085 -0.191480 0.864713 0.654139
-0.353553 0.353554 -0.000000 -0.545290 0.816085 -0.191480 0.934967 0.647412
-0.191341 0.461940 -0.000000 -0.545290 0.816085 -0.191480 0.949214 0.770430
-0.176776 0.426777 -0.191342 -0.545290 0.816085 -0.191480 0.854120 0.768338
-0.326641 0.326641 0.191342 -0.464677 0.695439 0.548124 0.001377 0.617195
-0.250000 0.250000 0.353553 -0.464677 0.695439 0.548124 0.061961 0.570053
-0.135299 0.326641 0.353553 -0.464677 0.695439 0.548124 0.088419 0.642707
-0.176776 0.426777 0.191342 -0.464677 0.695439 0.548124 0.030275 0.721491
-0.135299 0.135299 0.461940 -0.110427 0.165265 0.980048 0.118355 0.513838
-0.000000 0.000000 0.500000 -0.110427 0.165265 0.980048 0.173885 0.455932
-0.073223 0.176777 0.461940 -0.110427 0.165265 0.980048 0.133218 0.551117
0.000000 0.000000 -0.500000 -0.110427 0.165265 -0.980048 0.673885 0.544068
-0.135299 0.135299 -0.461940 -0.110427 0.165265 -0.980048 0.732131 0.596471
-0.073223 0.176777 -0.461940 -0.110427 0.165265 -0.980048 0.718092 0.636181
-0.250000 0.250000 -0.353553 -0.464677 0.695439 -0.548124 0.795766 0.635683
-0.326641 0.326641 -0.191342 -0.464677 0.695439 -0.548124 0.864713 0.654139
-0.176776 0.426777 -0.191342 -0.464677 0.695439 -0.548124 0.854120 0.768338
-0.135299 0.326641 -0.353553 -0.464677 0.695439 -0.548124 0.774867 0.716381
-0.353553 0.353554 -0.000000 -0.545290 0.816085 0.191480 0.934967 0.647412
-0.326641 0.326641 0.191342 -0.545290 0.816085 0.191480 1.001377 0.617195
-0.176776 0.426777 0.191342 -0.545290 0.816085 0.191480 1.030275 0.721491
-0.191341 0.461940 -0.000000 -0.545290 0.816085 0.191480 0.949214 0.770430
-0.073223 0.176777 -0.461940 -0.109841 0.552208 -0.826439 0.718092 0.636181
-0.135299 0.326641 -0.353553 -0.109841 0.552208 -0.826439 0.774867 0.716381
0.000000 0.353553 -0.353553 -0.109841 0.552208 -0.826439 0.729340 0.776239
0.000000 0.191342 -0.461940 -0.109841 0.552208 -0.826439 0.695729 0.662120
-0.176776 0.426777 -0.191342 -0.191481 0.962637 -0.191481 0.854120 0.768338
-0.191341 0.461940 -0.000000 -0.191481 0.962637 -0.191481 0.949214 0.770430
0.000000 0.500000 -0.000000 -0.191481 0.962637 -0.191481 0.987170 0.890057
0.000000 0.461940 -0.191342 -0.191481 0.962637 -0.191481 0.807760 0.873551
-0.176776 0.426777 0.191342 -0.163173 0.820326 0.548124 0.030275 0.721491
-0.135299 0.326641 0.353553 -0.163173 0.820326 0.548124 0.088419 0.642707
0.000000 0.353553 0.353553 -0.163173 0.820326 0.548124 0.130681 0.692192
0.000000 0.461940 0.191342 -0.163173 0.820326 0.548124 0.090639 0.804092
-0.073223 0.176777 0.461940 -0.038777 0.194944 0.980048 0.133218 0.551117
-0.000000 0.000000 0.500000 -0.038777 0.194944 0.980048 0.173885 0.455932
0.000000 0.191342 0.461940 -0.038777 0.194944 0.980048 0.154287 0.574719
0.000000 0.000000 -0.500000 -0.038777 0.194944 -0.980048 0.673885 0.544068
-0.073223 0.176777 -0.461940 -0.038777 0.194944 -0.980048 0.718092 0.636181
0.000000 0.191342 -0.461940 -0.038777 0.194944 -0.980048 0.695729 0.662120
-0.135299 0.326641 -0.353553 -0.163173 0.820326 -0.548124 0.774867 0.716381
-0.176776 0.426777 -0.191342 -0.163173 0.820326 -0.548124 0.854120 0.768338
0.000000 0.461940 -0.191342 -0.163173 0.820326 -0.548124 0.807760 0.873551
0.000000 0.353553 -0.353553 -0.163173 0.820326 -0.548124 0.729340 0.776239
-0.191341 0.461940 -0.000000 -0.191481 0.962637 0.191481 0.949214 0.770430
-0.176776 0.426777 0.191342 -0.191481 0.962637 0.191481 1.030275 0.721491
0.000000 0.461940 0.191342 -0.191481 0.962637 0.191481 1.090639 0.804092
0.000000 0.500000 -0.000000 -0.191481 0.962637 0.191481 0.987170 0.890057
0.000000 0.191342 0.461940 -0.109841 0.552208 0.826438 0.154287 0.574719
0.000000 0.353553 0.353553 -0.109841 0.552208 0.826438 0.130681 0.692192
-0.135299 0.326641 0.353553 -0.109841 0.552208 0.826438 0.088419 0.642707
-0.073223 0.176777 0.461940 -0.109841 0.552208 0.826438 0.133218 0.551117
4 0 1 2 3
4 4 5 6 7
4 8 9 10 11
3 12 13 14
3 15 16 17
4 18 19 20 21
4 22 23 24 25
4 26 27 28 29
4 30 31 32 33
3 34 35 36
3 37 38 39
4 40 41 42 43
4 44 45 46 47
4 48 49 50 51
4 52 53 54 55
4 56 57 58 59
3 60 61 62
4 63 64 65 66
4 67 68 69 70
4 71 72 73 74
4 75 76 77 78
4 79 80 81 82
4 83 84 85 86
3 87 88 89
4 90 91 92 93
4 94 95 96 97
4 98 99 100 101
4 102 103 104 105
3 106 107 108
3 109 110 111
4 112 113 114 115
4 116 117 118 119
4 120 121 122 123
4 124 125 126 127
4 128 129 130 131
3 132 133 134
3 135 136 137
4 138 139 140 141
4 142 143 144 145
4 146 147 148 149
3 150 151 152
3 153 154 155
4 156 157 158 159
4 160 161 162 163
4 164 165 166 167
4 168 169 170 171
4 172 173 174 175
4 176 177 178 179
4 180 181 182 183
4 184 185 186 187
4 188 189 190 191
4 192 193 194 195
4 196 197 198 199
4 200 201 202 203
3 204 205 206
3 207 208 209
4 210 211 212 213
4 214 215 216 217
4 218 219 220 221
3 222 223 224
3 225 226 227
4 228 229 230 231
4 232 233 234 235
4 236 237 238 239
4 240 241 242 243
4 244 245 246 247
3 248 249 250
3 251 252 253
4 254 255 256 257
4 258 259 260 261
4 262 263 264 265
4 266 267 268 269
3 270 271 272
4 273 274 275 276
4 277 278 279 280
4 281 282 283 284
4 285 286 287 288
4 289 290 291 292
4 293 294 295 296
3 297 298 299
4 300 301 302 303
4 304 305 306 307
4 308 309 310 311
4 312 313 314 315
4 316 317 318 319
3 320 321 322
3 323 324 325
4 326 327 328 329
4 330 331 332 333
4 334 335 336 337
4 338 339 340 341
3 342 343 344
3 345 346 347
4 348 349 350 351
4 352 353 354 355
4 356 357 358 359
4 360 361 362 363
3 364 365 366
3 367 368 369
4 370 371 372 373
4 374 375 376 377
4 378 379 380 381
4 382 383 384 385
4 386 387 388 389
3 390 391 392
4 393 394 395 396
4 397 398 399 400
4 401 402 403 404
4 405 406 407 408
4 409 410 411 412
4 413 414 415 416
3 417 418 419
4 420 421 422 423
4 424 425 426 427
4 428 429 430 431
4 432 433 434 435
3 436 437 438
3 439 440 441
4 442 443 444 445
4 446 447 448 449
4 450 451 452 453
4 454 455 456 457
4 458 459 460 461
3 462 463 464
3 465 466 467
4 468 469 470 471
4 472 473 474 475
4 476 477 478 479
