ply
format ascii 1.0
comment Created by Blender 2.78 (sub 0) - www.blender.org, source file: ''
element vertex 126
property float x
property float y
property float z
property float nx
property float ny
property float nz
property float s
property float t
element face 128
property list uchar uint vertex_indices
end_header
0.000000 0.500000 -0.000000 0.000000 1.000000 0.000000 0.987170 0.890057
0.000000 0.461940 0.191342 0.000000 0.927274 0.374340 1.090639 0.804092
0.176777 0.426777 0.191342 0.354839 0.856685 0.374340 1.195586 0.829312
0.191342 0.461940 -0.000000 0.382672 0.923856 0.000000 1.253455 0.949881
0.000000 0.353553 0.353553 0.000000 0.718833 0.695151 0.130681 0.692192
0.000000 0.191342 0.461940 0.000000 0.403088 0.915159 0.154287 0.574719
0.073223 0.176777 0.461940 0.154241 0.372387 0.915159 0.178614 0.580580
0.135299 0.326641 0.353553 0.275094 0.664113 0.695151 0.184475 0.705142
0.000000 0.191342 -0.461940 0.000000 0.403088 -0.915159 0.695729 0.662120
0.000000 0.353553 -0.353553 0.000000 0.718833 -0.695151 0.729340 0.776239
0.135299 0.326641 -0.353553 0.275094 0.664113 -0.695151 0.659893 0.793024
0.073223 0.176777 -0.461940 0.154241 0.372387 -0.915159 0.668578 0.668672
0.000000 0.461940 -0.191342 0.000000 0.927274 -0.374340 0.807760 0.873551
0.176777 0.426777 -0.191342 0.354839 0.856685 -0.374340 0.631068 0.915854
0.000000 0.461940 0.191342 0.000000 0.927274 0.374340 0.090639 0.804092
0.176777 0.426777 0.191342 0.354839 0.856685 0.374340 0.195586 0.829312
-0.000000 0.000000 0.500000 0.000000 0.000000 1.000000 0.173885 0.455932
0.000000 0.000000 -0.500000 0.000000 0.000000 -1.000000 0.673885 0.544068
0.250000 0.250000 -0.353553 0.508286 0.508286 -0.695151 0.597557 0.757070
0.135299 0.135299 -0.461940 0.285012 0.285012 -0.915159 0.642640 0.654224
0.191342 0.461940 -0.000000 0.382672 0.923856 0.000000 0.253455 0.949881
0.353553 0.353553 -0.000000 0.707083 0.707083 0.000000 0.381459 0.845133
0.326641 0.326641 -0.191342 0.655660 0.655660 -0.374340 0.514096 0.835548
0.250000 0.250000 0.353553 0.508286 0.508286 0.695151 0.235134 0.676860
0.326641 0.326641 0.191342 0.655660 0.655660 0.374340 0.285599 0.776699
0.135299 0.135299 0.461940 0.285012 0.285012 0.915159 0.202136 0.567601
0.176777 0.073223 0.461940 0.372387 0.154241 0.915159 0.221090 0.538164
0.176777 0.073223 -0.461940 0.372387 0.154241 -0.915159 0.623224 0.622221
0.426777 0.176777 -0.191342 0.856685 0.354839 -0.374340 0.487492 0.724969
0.326641 0.135299 -0.353553 0.664113 0.275094 -0.695151 0.562496 0.686965
0.426777 0.176777 0.191342 0.856685 0.354839 0.374340 0.331072 0.682997
0.461940 0.191342 -0.000000 0.923856 0.382672 0.000000 0.405088 0.723441
0.326641 0.135299 0.353553 0.664113 0.275094 0.695151 0.271280 0.616885
0.461940 0.000000 -0.191342 0.927274 0.000000 -0.374340 0.482581 0.609901
0.353553 0.000000 -0.353553 0.718833 0.000000 -0.695151 0.548660 0.602406
0.461940 0.000000 0.191342 0.927274 0.000000 0.374340 0.353026 0.574796
0.500000 0.000000 -0.000000 1.000000 0.000000 0.000000 0.416673 0.600050
0.191342 0.000000 0.461940 0.403088 0.000000 0.915159 0.233107 0.497077
0.353553 0.000000 0.353553 0.718833 0.000000 0.695151 0.292191 0.538621
0.191342 0.000000 -0.461940 0.403088 0.000000 -0.915159 0.612694 0.579054
0.326641 -0.135299 -0.353553 0.664113 -0.275094 -0.695151 0.549174 0.514309
0.176777 -0.073223 -0.461940 0.372387 -0.154241 -0.915159 0.611247 0.531566
0.461940 -0.191342 -0.000000 0.923856 -0.382672 0.000000 0.425540 0.476280
0.426777 -0.176777 -0.191342 0.856685 -0.354839 -0.374340 0.487415 0.494916
0.326641 -0.135299 0.353553 0.664113 -0.275094 0.695151 0.300262 0.452000
0.426777 -0.176777 0.191342 0.856685 -0.354839 0.374340 0.363187 0.461200
0.176777 -0.073223 0.461940 0.372387 -0.154241 0.915159 0.237013 0.450144
0.353553 -0.353553 -0.000000 0.707083 -0.707083 0.000000 0.434967 0.352588
0.326641 -0.326641 -0.191342 0.655660 -0.655660 -0.374340 0.501377 0.382805
0.250000 -0.250000 0.353553 0.508286 -0.508286 0.695151 0.295766 0.364317
0.326641 -0.326641 0.191342 0.655660 -0.655660 0.374340 0.364713 0.345861
0.135299 -0.135299 0.461940 0.285012 -0.285012 0.915159 0.232131 0.403529
0.135299 -0.135299 -0.461940 0.285012 -0.285012 -0.915159 0.618355 0.486162
0.250000 -0.250000 -0.353553 0.508286 -0.508286 -0.695151 0.561961 0.429947
0.073223 -0.176777 -0.461940 0.154241 -0.372387 -0.915159 0.633218 0.448883
0.176777 -0.426777 -0.191342 0.354839 -0.856685 -0.374340 0.530275 0.278509
0.135299 -0.326641 -0.353553 0.275094 -0.664113 -0.695151 0.588419 0.357293
0.176777 -0.426777 0.191342 0.354839 -0.856685 0.374340 0.354120 0.231662
0.191342 -0.461940 -0.000000 0.382672 -0.923856 0.000000 0.449214 0.229570
0.073223 -0.176777 0.461940 0.154241 -0.372387 0.915159 0.218092 0.363819
0.135299 -0.326641 0.353553 0.275094 -0.664113 0.695151 0.274867 0.283620
-0.000000 -0.461940 0.191342 0.000000 -0.927274 0.374340 0.307760 0.126449
-0.000000 -0.500000 -0.000000 0.000000 -1.000000 0.000000 0.487170 0.109943
-0.000000 -0.191342 0.461940 0.000000 -0.403088 0.915159 0.195729 0.337880
-0.000000 -0.353553 0.353553 0.000000 -0.718833 0.695151 0.229340 0.223761
-0.000000 -0.353553 -0.353553 0.000000 -0.718833 -0.695151 0.630681 0.307808
-0.000000 -0.191342 -0.461940 0.000000 -0.403088 -0.915159 0.654287 0.425281
-0.000000 -0.461940 -0.191342 0.000000 -0.927274 -0.374340 0.590639 0.195908
-0.135299 -0.326640 -0.353553 -0.275094 -0.664113 -0.695151 0.684475 0.294858
-0.073223 -0.176777 -0.461940 -0.154241 -0.372387 -0.915159 0.678614 0.419421
-0.191342 -0.461939 -0.000000 -0.382672 -0.923856 0.000000 0.753455 0.050119
-0.176777 -0.426776 -0.191342 -0.354839 -0.856685 -0.374340 0.695586 0.170688
-0.135299 -0.326640 0.353553 -0.275094 -0.664113 0.695151 0.159893 0.206976
-0.176777 -0.426776 0.191342 -0.354839 -0.856685 0.374340 0.131068 0.084146
-0.073223 -0.176777 0.461940 -0.154241 -0.372387 0.915159 0.168578 0.331328
-0.176777 -0.426776 0.191342 -0.354839 -0.856685 0.374340 1.131068 0.084146
-0.250000 -0.250000 0.353553 -0.508286 -0.508286 0.695151 0.097557 0.242930
-0.326641 -0.326640 0.191342 -0.655660 -0.655660 0.374340 0.014096 0.164452
-0.135299 -0.135299 0.461940 -0.285012 -0.285012 0.915159 0.142640 0.345776
-0.135299 -0.135299 -0.461940 -0.285012 -0.285012 -0.915159 0.702136 0.432400
-0.326641 -0.326640 -0.191342 -0.655660 -0.655660 -0.374340 0.785599 0.223301
-0.250000 -0.250000 -0.353553 -0.508286 -0.508286 -0.695151 0.735134 0.323140
-0.326641 -0.326640 0.191342 -0.655660 -0.655660 0.374340 1.014096 0.164452
-0.353553 -0.353553 -0.000000 -0.707083 -0.707083 0.000000 0.881459 0.154868
-0.176777 -0.073223 -0.461940 -0.372387 -0.154241 -0.915159 0.721090 0.461836
-0.426777 -0.176776 -0.191342 -0.856685 -0.354839 -0.374340 0.831072 0.317003
-0.326641 -0.135299 -0.353553 -0.664113 -0.275094 -0.695151 0.771280 0.383115
-0.426777 -0.176776 0.191342 -0.856685 -0.354839 0.374340 0.987492 0.275031
-0.461940 -0.191341 -0.000000 -0.923856 -0.382672 0.000000 0.905088 0.276559
-0.176777 -0.073223 0.461940 -0.372387 -0.154241 0.915159 0.123224 0.377780
-0.326641 -0.135299 0.353553 -0.664113 -0.275094 0.695151 0.062496 0.313035
-0.250000 -0.250000 0.353553 -0.508286 -0.508286 0.695151 1.097557 0.242930
-0.326641 -0.135299 0.353553 -0.664113 -0.275094 0.695151 1.062496 0.313035
-0.191342 0.000000 0.461940 -0.403088 0.000000 0.915159 0.112694 0.420946
-0.353553 0.000000 0.353553 -0.718833 0.000000 0.695151 0.048660 0.397595
-0.353553 0.000000 -0.353553 -0.718833 0.000000 -0.695151 0.792191 0.461380
-0.191342 0.000000 -0.461940 -0.403088 0.000000 -0.915159 0.733107 0.502923
-0.500000 0.000000 -0.000000 -1.000000 0.000000 0.000000 0.916673 0.399950
-0.461940 0.000000 -0.191342 -0.927274 0.000000 -0.374340 0.853026 0.425204
-0.353553 0.000000 0.353553 -0.718833 0.000000 0.695151 1.048660 0.397595
-0.461940 0.000000 0.191342 -0.927274 0.000000 0.374340 0.982581 0.390100
-0.326641 0.135299 -0.353553 -0.664113 0.275094 -0.695151 0.800262 0.548000
-0.176777 0.073223 -0.461940 -0.372387 0.154241 -0.915159 0.737013 0.549856
-0.461939 0.191342 -0.000000 -0.923856 0.382672 0.000000 0.925540 0.523720
-0.426776 0.176777 -0.191342 -0.856685 0.354839 -0.374340 0.863187 0.538800
-0.326641 0.135299 0.353553 -0.664113 0.275094 0.695151 1.049174 0.485691
-0.426776 0.176777 0.191342 -0.856685 0.354839 0.374340 0.987415 0.505084
-0.176777 0.073223 0.461940 -0.372387 0.154241 0.915159 0.111247 0.468434
-0.326641 0.135299 0.353553 -0.664113 0.275094 0.695151 0.049174 0.485691
-0.135299 0.135299 0.461940 -0.285012 0.285012 0.915159 0.118355 0.513838
-0.135299 0.135299 -0.461940 -0.285012 0.285012 -0.915159 0.732131 0.596471
-0.326640 0.326641 -0.191342 -0.655660 0.655660 -0.374340 0.864713 0.654139
-0.250000 0.250000 -0.353553 -0.508286 0.508286 -0.695151 0.795766 0.635683
-0.326640 0.326641 0.191342 -0.655660 0.655660 0.374340 1.001377 0.617195
-0.353553 0.353554 -0.000000 -0.707083 0.707083 0.000000 0.934967 0.647412
-0.250000 0.250000 0.353553 -0.508286 0.508286 0.695151 0.061961 0.570053
-0.250000 0.250000 0.353553 -0.508286 0.508286 0.695151 1.061961 0.570053
-0.176776 0.426777 -0.191342 -0.354839 0.856685 -0.374340 0.854120 0.768338
-0.135299 0.326641 -0.353553 -0.275094 0.664113 -0.695151 0.774867 0.716381
-0.176776 0.426777 0.191342 -0.354839 0.856685 0.374340 1.030275 0.721491
-0.191341 0.461940 -0.000000 -0.382672 0.923856 0.000000 0.949214 0.770430
-0.073223 0.176777 0.461940 -0.154241 0.372387 0.915159 0.133218 0.551117
-0.135299 0.326641 0.353553 -0.275094 0.664113 0.695151 0.088419 0.642707
-0.073223 0.176777 -0.461940 -0.154241 0.372387 -0.915159 0.718092 0.636181
-0.326640 0.326641 0.191342 -0.655660 0.655660 0.374340 0.001377 0.617195
-0.176776 0.426777 0.191342 -0.354839 0.856685 0.374340 0.030275 0.721491
4 0 1 2 3
4 4 5 6 7
4 8 9 10 11
4 12 0 3 13
4 14 4 7 15
3 5 16 6
3 17 8 11
4 9 12 13 10
4 11 10 18 19
4 13 20 21 22
4 15 7 23 24
3 6 16 25
3 17 11 19
4 10 13 22 18
4 20 15 24 21
4 7 6 25 23
3 25 16 26
3 17 19 27
4 18 22 28 29
4 21 24 30 31
4 23 25 26 32
4 19 18 29 27
4 22 21 31 28
4 24 23 32 30
4 29 28 33 34
4 31 30 35 36
4 32 26 37 38
4 27 29 34 39
4 28 31 36 33
4 30 32 38 35
3 26 16 37
3 17 27 39
4 39 34 40 41
4 33 36 42 43
4 35 38 44 45
3 37 16 46
3 17 39 41
4 34 33 43 40
4 36 35 45 42
4 38 37 46 44
4 43 42 47 48
4 45 44 49 50
3 46 16 51
3 17 41 52
4 40 43 48 53
4 42 45 50 47
4 44 46 51 49
4 41 40 53 52
3 17 52 54
4 53 48 55 56
4 47 50 57 58
4 49 51 59 60
4 52 53 56 54
4 48 47 58 55
4 50 49 60 57
3 51 16 59
4 58 57 61 62
4 60 59 63 64
4 54 56 65 66
4 55 58 62 67
4 57 60 64 61
3 59 16 63
3 17 54 66
4 56 55 67 65
4 66 65 68 69
4 67 62 70 71
4 61 64 72 73
3 63 16 74
3 17 66 69
4 65 67 71 68
4 62 61 75 70
4 64 63 74 72
4 73 72 76 77
3 74 16 78
3 17 69 79
4 68 71 80 81
4 70 75 82 83
4 72 74 78 76
4 69 68 81 79
4 71 70 83 80
3 17 79 84
4 81 80 85 86
4 83 82 87 88
4 76 78 89 90
4 79 81 86 84
4 80 83 88 85
4 82 91 92 87
3 78 16 89
4 90 89 93 94
4 84 86 95 96
4 85 88 97 98
4 87 92 99 100
3 89 16 93
3 17 84 96
4 86 85 98 95
4 88 87 100 97
4 96 95 101 102
4 98 97 103 104
4 100 99 105 106
3 93 16 107
3 17 96 102
4 95 98 104 101
4 97 100 106 103
4 94 93 107 108
3 107 16 109
3 17 102 110
4 101 104 111 112
4 103 106 113 114
4 108 107 109 115
4 102 101 112 110
4 104 103 114 111
4 106 105 116 113
4 112 111 117 118
4 114 113 119 120
4 115 109 121 122
4 110 112 118 123
4 111 114 120 117
4 124 115 122 125
3 109 16 121
3 17 110 123
4 123 118 9 8
4 117 120 0 12
4 125 122 4 14
3 121 16 5
3 17 123 8
4 118 117 12 9
4 120 119 1 0
4 5 4 122 121
